{
.appVersion = "1230";
copyright = "Copyright 2019 The Tomorrow Project Authors (https://github.com/googlefonts/Tomorrow)";
customParameters = (
{
name = panose;
value = (
0,
0,
3,
0,
0,
0,
0,
0,
0,
0
);
},
{
name = unicodeRanges;
value = (
0,
1,
2,
29
);
},
{
name = codePageRanges;
value = (
1252,
1250,
1257
);
},
{
name = blueScale;
value = 0.037;
},
{
name = glyphOrder;
value = (
.notdef,
CR,
space,
A,
Aacute,
Abreve,
uni1EAE,
uni1EB6,
uni1EB0,
uni1EB2,
uni1EB4,
Acircumflex,
uni1EA4,
uni1EAC,
uni1EA6,
uni1EA8,
uni1EAA,
uni0200,
Adieresis,
uni1EA0,
Agrave,
uni1EA2,
uni0202,
Amacron,
Aogonek,
Aring,
Aringacute,
Atilde,
AE,
AEacute,
B,
C,
Cacute,
Ccaron,
Ccedilla,
Ccircumflex,
Cdotaccent,
D,
uni01C4,
Eth,
Dcaron,
Dcroat,
uni01C5,
E,
Eacute,
Ebreve,
Ecaron,
Ecircumflex,
uni1EBE,
uni1EC6,
uni1EC0,
uni1EC2,
uni1EC4,
uni0204,
Edieresis,
Edotaccent,
uni1EB8,
Egrave,
uni1EBA,
uni0206,
Emacron,
Eogonek,
uni1EBC,
F,
G,
Gbreve,
Gcaron,
Gcircumflex,
uni0122,
Gdotaccent,
H,
Hbar,
Hcircumflex,
I,
Iacute,
Ibreve,
Icircumflex,
uni0208,
Idieresis,
Idotaccent,
uni1ECA,
Igrave,
uni1EC8,
uni020A,
Imacron,
Iogonek,
Itilde,
J,
Jcircumflex,
K,
uni0136,
L,
uni01C7,
Lacute,
Lcaron,
uni013B,
Ldot,
uni01C8,
Lslash,
M,
N,
uni01CA,
Nacute,
Ncaron,
uni0145,
Eng,
uni01CB,
Ntilde,
O,
Oacute,
Obreve,
Ocircumflex,
uni1ED0,
uni1ED8,
uni1ED2,
uni1ED4,
uni1ED6,
uni020C,
Odieresis,
uni022A,
uni0230,
uni1ECC,
Ograve,
uni1ECE,
Ohorn,
uni1EDA,
uni1EE2,
uni1EDC,
uni1EDE,
uni1EE0,
Ohungarumlaut,
uni020E,
Omacron,
uni01EA,
Oslash,
Oslashacute,
Otilde,
uni022C,
OE,
P,
Thorn,
Q,
R,
Racute,
Rcaron,
uni0156,
uni0210,
uni0212,
S,
Sacute,
Scaron,
Scedilla,
Scircumflex,
uni0218,
uni1E9E,
uni018F,
T,
Tbar,
Tcaron,
uni0162,
uni021A,
U,
Uacute,
Ubreve,
Ucircumflex,
uni0214,
Udieresis,
uni1EE4,
Ugrave,
uni1EE6,
Uhorn,
uni1EE8,
uni1EF0,
uni1EEA,
uni1EEC,
uni1EEE,
Uhungarumlaut,
uni0216,
Umacron,
Uogonek,
Uring,
Utilde,
V,
W,
Wacute,
Wcircumflex,
Wdieresis,
Wgrave,
X,
Y,
Yacute,
Ycircumflex,
Ydieresis,
uni1EF4,

glyphs = (
{
glyphname = .notdef;
lastChange = "2019-09-03 16:25:56 +0000";
layers = (
{
hints = (
{
horizontal = 1;
place = "{215.55, 29.95}";
type = Stem;
},
{
horizontal = 1;
place = "{381.21, 141.29}";
type = Stem;
},
{
place = "{92.78, 31.77}";
type = Stem;
},
{
place = "{227.47, 30.56}";
type = Stem;
},
{
place = "{424.53, 30.55}";
type = Stem;
},
{
place = "{558.11, 31.78}";
type = Stem;
}
);
layerId = "7107EBA0-69BE-4603-8F48-BAA3372D0529";
paths = (
{
closed = 1;
nodes = (
"124.55 98.86 LINE",
"124.55 136.19 LINE",
"198.78 215.55 LINE",
"484.01 215.55 LINE",
"558.11 136.32 LINE",
"558.11 98.86 LINE",
"589.89 98.86 LINE",
"589.89 145.48 LINE",
"495.65 245.5 LINE",
"187.01 245.5 LINE",
"92.78 145.48 LINE",
"92.78 98.86 LINE"
);
},
{
closed = 1;
nodes = (
"258.03 381.21 LINE",
"258.03 522.5 LINE",
"227.47 522.5 LINE",
"227.47 381.21 LINE"
);
},
{
closed = 1;
nodes = (
"455.08 381.21 LINE",
"455.08 522.5 LINE",
"424.53 522.5 LINE",
"424.53 381.21 LINE"
);
}
);
width = 683;
}
);
note = .notdef;
},
{
glyphname = A;
lastChange = "2019-09-03 16:25:56 +0000";
layers = (
{
hints = (
{
horizontal = 1;
place = "{212.58, 31.78}";
type = Stem;
},
{
horizontal = 1;
place = "{704.25, 32.75}";
type = Stem;
},
{
place = "{18.89, 595.61}";
type = Stem;
}
);
layerId = "7107EBA0-69BE-4603-8F48-BAA3372D0529";
paths = (
{
closed = 1;
nodes = (
"53.22 0 LINE",
"129.76 212.58 LINE",
"504.14 212.58 LINE",
"580.72 0 LINE",
"614.5 0 LINE",
"348.97 737 LINE",
"285.08 737 LINE",
"18.89 0 LINE"
);
},
{
closed = 1;
nodes = (
"306.79 704.25 LINE",
"327.04 704.25 LINE",
"492.7 244.36 LINE",
"141.2 244.36 LINE"
);
}
);
width = 633;
}
);
leftKerningGroup = A;
note = A;
rightKerningGroup = A;
unicode = 0041;
},
{
glyphname = Aacute;
lastChange = "2019-09-03 16:25:56 +0000";
layers = (
{
hints = (
{
horizontal = 1;
place = "{212.58, 31.78}";
type = Stem;
},
{
horizontal = 1;
place = "{704.25, 32.75}";
type = Stem;
},
{
horizontal = 1;
place = "{794.25, 140.22}";
type = Stem;
},
{
place = "{18.89, 595.61}";
type = Stem;
}
);
layerId = "7107EBA0-69BE-4603-8F48-BAA3372D0529";
paths = (
{
closed = 1;
nodes = (
"53.22 0 LINE",
"129.76 212.58 LINE",
"504.14 212.58 LINE",
"580.72 0 LINE",
"614.5 0 LINE",
"348.97 737 LINE",
"285.08 737 LINE",
"18.89 0 LINE"
);
},
{
closed = 1;
nodes = (
"306.79 704.25 LINE",
"327.04 704.25 LINE",
"492.7 244.36 LINE",
"141.2 244.36 LINE"
);
},
{
closed = 1;
nodes = (
"333.51 794.25 LINE",
"433.03 934.47 LINE",
"390.29 934.47 LINE",
"303.72 794.25 LINE"
);
}
);
width = 633;
}
);
leftKerningGroup = A;
note = Aacute;
rightKerningGroup = A;
unicode = 00C1;
},
{
glyphname = Abreve;
lastChange = "2019-09-03 16:25:56 +0000";
layers = (
{
hints = (
{
horizontal = 1;
place = "{212.58, 31.78}";
type = Stem;
},
{
horizontal = 1;
place = "{704.25, 32.75}";
type = Stem;
},
{
horizontal = 1;
place = "{794.25, 27.22}";
type = Stem;
},
{
place = "{200.37, 27.6}";
type = Stem;
},
{
place = "{405.83, 27.6}";
type = Stem;
}
);
layerId = "7107EBA0-69BE-4603-8F48-BAA3372D0529";
paths = (
{
closed = 1;
nodes = (
"53.22 0 LINE",
"129.76 212.58 LINE",
"504.14 212.58 LINE",
"580.72 0 LINE",
"614.5 0 LINE",
"348.97 737 LINE",
"285.08 737 LINE",
"18.89 0 LINE"
);
},
{
closed = 1;
nodes = (
"306.79 704.25 LINE",
"327.04 704.25 LINE",
"492.7 244.36 LINE",
"141.2 244.36 LINE"
);
},
{
closed = 1;
nodes = (
"381.72 794.25 LINE",
"433.43 845.94 LINE",
"433.43 913.69 LINE",
"405.83 913.69 LINE",
"405.83 855.03 LINE",
"372.29 821.47 LINE",
"261.51 821.47 LINE",
"227.97 855.03 LINE",
"227.97 913.69 LINE",
"200.37 913.69 LINE",
"200.37 845.94 LINE",
"252.08 794.25 LINE"
);
}
);
width = 633;
}
);
leftKerningGroup = A;
note = Abreve;
rightKerningGroup = A;
unicode = 0102;
},
{
glyphname = uni1EAE;
lastChange = "2019-09-03 16:25:56 +0000";
layers = (
{
hints = (
{
horizontal = 1;
place = "{212.58, 31.78}";
type = Stem;
},
{
horizontal = 1;
place = "{704.25, 32.75}";
type = Stem;
},
{
horizontal = 1;
place = "{794.25, 27.22}";
type = Stem;
},
{
horizontal = 1;
place = "{935.73, 140.23}";
type = Stem;
},
{
place = "{200.37, 27.6}";
type = Stem;
},
{
place = "{405.83, 27.6}";
type = Stem;
}
);
layerId = "7107EBA0-69BE-4603-8F48-BAA3372D0529";
paths = (
{
closed = 1;
nodes = (
"53.22 0 LINE",
"129.76 212.58 LINE",
"504.14 212.58 LINE",
"580.72 0 LINE",
"614.5 0 LINE",
"348.97 737 LINE",
"285.08 737 LINE",
"18.89 0 LINE"
);
},
{
closed = 1;
nodes = (
"306.79 704.25 LINE",
"327.04 704.25 LINE",
"492.7 244.36 LINE",
"141.2 244.36 LINE"
);
},
{
closed = 1;
nodes = (
"381.72 794.25 LINE",
"433.43 845.94 LINE",
"433.43 913.69 LINE",
"405.83 913.69 LINE",
"405.83 855.03 LINE",
"372.29 821.47 LINE",
"261.51 821.47 LINE",
"227.97 855.03 LINE",
"227.97 913.69 LINE",
"200.37 913.69 LINE",
"200.37 845.94 LINE",
"252.08 794.25 LINE"
);
},
{
closed = 1;
nodes = (
"330.84 935.73 LINE",
"430.36 1075.96 LINE",
"387.62 1075.96 LINE",
"301.05 935.73 LINE"
);
}
);
width = 633;
}
);
leftKerningGroup = A;
note = uni1EAE;
rightKerningGroup = A;
unicode = 1EAE;
},
{
glyphname = uni1EB6;
lastChange = "2019-09-03 16:25:56 +0000";
layers = (
{
hints = (
{
horizontal = 1;
place = "{-163.07, 105.82}";
type = Stem;
},
{
horizontal = 1;
place = "{212.58, 31.78}";
type = Stem;
},
{
horizontal = 1;
place = "{704.25, 32.75}";
type = Stem;
},
{
horizontal = 1;
place = "{794.25, 27.22}";
type = Stem;
},
{
place = "{200.37, 27.6}";
type = Stem;
},
{
place = "{300.07, 33}";
type = Stem;
},
{
place = "{405.83, 27.6}";
type = Stem;
}
);
layerId = "7107EBA0-69BE-4603-8F48-BAA3372D0529";
paths = (
{
closed = 1;
nodes = (
"53.22 0 LINE",
"129.76 212.58 LINE",
"504.14 212.58 LINE",
"580.72 0 LINE",
"614.5 0 LINE",
"348.97 737 LINE",
"285.08 737 LINE",
"18.89 0 LINE"
);
},
{
closed = 1;
nodes = (
"333.07 -163.07 LINE",
"333.07 -57.25 LINE",
"300.07 -57.25 LINE",
"300.07 -163.07 LINE"
);
},
{
closed = 1;
nodes = (
"306.79 704.25 LINE",
"327.04 704.25 LINE",
"492.7 244.36 LINE",
"141.2 244.36 LINE"
);
},
{
closed = 1;
nodes = (
"381.72 794.25 LINE",
"433.43 845.94 LINE",
"433.43 913.69 LINE",
"405.83 913.69 LINE",
"405.83 855.03 LINE",
"372.29 821.47 LINE",
"261.51 821.47 LINE",
"227.97 855.03 LINE",
"227.97 913.69 LINE",
"200.37 913.69 LINE",
"200.37 845.94 LINE",
"252.08 794.25 LINE"
);
}
);
width = 633;
}
);
leftKerningGroup = A;
note = uni1EB6;
rightKerningGroup = A;
unicode = 1EB6;
},
{
glyphname = uni1EB0;
lastChange = "2019-09-03 16:25:56 +0000";
layers = (
{
hints = (
{
horizontal = 1;
place = "{212.58, 31.78}";
type = Stem;
},
{
horizontal = 1;
place = "{704.25, 32.75}";
type = Stem;
},
{
horizontal = 1;
place = "{794.25, 27.22}";
type = Stem;
},
{
horizontal = 1;
place = "{935.73, 140.23}";
type = Stem;
},
{
place = "{200.37, 27.6}";
type = Stem;
},
{
place = "{405.83, 27.6}";
type = Stem;
}
);
layerId = "7107EBA0-69BE-4603-8F48-BAA3372D0529";
paths = (
{
closed = 1;
nodes = (
"53.22 0 LINE",
"129.76 212.58 LINE",
"504.14 212.58 LINE",
"580.72 0 LINE",
"614.5 0 LINE",
"348.97 737 LINE",
"285.08 737 LINE",
"18.89 0 LINE"
);
},
{
closed = 1;
nodes = (
"306.79 704.25 LINE",
"327.04 704.25 LINE",
"492.7 244.36 LINE",
"141.2 244.36 LINE"
);
},
{
closed = 1;
nodes = (
"381.72 794.25 LINE",
"433.43 845.94 LINE",
"433.43 913.69 LINE",
"405.83 913.69 LINE",
"405.83 855.03 LINE",
"372.29 821.47 LINE",
"261.51 821.47 LINE",
"227.97 855.03 LINE",
"227.97 913.69 LINE",
"200.37 913.69 LINE",
"200.37 845.94 LINE",
"252.08 794.25 LINE"
);
},
{
closed = 1;
nodes = (
"335.72 935.73 LINE",
"249.15 1075.96 LINE",
"206.41 1075.96 LINE",
"305.93 935.73 LINE"
);
}
);
width = 633;
}
);
leftKerningGroup = A;
note = uni1EB0;
rightKerningGroup = A;
unicode = 1EB0;
},
{
glyphname = uni1EB2;
lastChange = "2019-09-03 16:25:56 +0000";
layers = (
{
hints = (
{
horizontal = 1;
place = "{212.58, 31.78}";
type = Stem;
},
{
horizontal = 1;
place = "{704.25, 32.75}";
type = Stem;
},
{
horizontal = 1;
place = "{794.25, 27.22}";
type = Stem;
},
{
horizontal = 1;
place = "{935.73, 40.35}";
type = Stem;
},
{
horizontal = 1;
place = "{1100.04, 27.11}";
type = Stem;
},
{
place = "{200.37, 27.6}";
type = Stem;
},
{
place = "{302.36, 27.93}";
type = Stem;
},
{
place = "{369.55, 28.82}";
type = Stem;
},
{
place = "{405.83, 27.6}";
type = Stem;
}
);
layerId = "7107EBA0-69BE-4603-8F48-BAA3372D0529";
paths = (
{
closed = 1;
nodes = (
"53.22 0 LINE",
"129.76 212.58 LINE",
"504.14 212.58 LINE",
"580.72 0 LINE",
"614.5 0 LINE",
"348.97 737 LINE",
"285.08 737 LINE",
"18.89 0 LINE"
);
},
{
closed = 1;
nodes = (
"306.79 704.25 LINE",
"327.04 704.25 LINE",
"492.7 244.36 LINE",
"141.2 244.36 LINE"
);
},
{
closed = 1;
nodes = (
"381.72 794.25 LINE",
"433.43 845.94 LINE",
"433.43 913.69 LINE",
"405.83 913.69 LINE",
"405.83 855.03 LINE",
"372.29 821.47 LINE",
"261.51 821.47 LINE",
"227.97 855.03 LINE",
"227.97 913.69 LINE",
"200.37 913.69 LINE",
"200.37 845.94 LINE",
"252.08 794.25 LINE"
);
},
{
closed = 1;
nodes = (
"330.29 935.73 LINE",
"330.29 965.08 LINE",
"398.37 1030.12 LINE",
"398.37 1091.72 LINE",
"364.29 1127.15 LINE",
"285.9 1127.15 LINE",
"246.79 1085.68 LINE",
"266.9 1066.41 LINE",
"298.69 1100.04 LINE",
"351.65 1100.04 LINE",
"369.55 1081.25 LINE",
"369.55 1040.86 LINE",
"302.36 976.08 LINE",
"302.36 935.73 LINE"
);
}
);
width = 633;
}
);
leftKerningGroup = A;
note = uni1EB2;
rightKerningGroup = A;
unicode = 1EB2;
},
{
glyphname = uni1EB4;
lastChange = "2019-09-03 16:25:56 +0000";
layers = (
{
hints = (
{
horizontal = 1;
place = "{212.58, 31.78}";
type = Stem;
},
{
horizontal = 1;
place = "{704.25, 32.75}";
type = Stem;
},
{
horizontal = 1;
place = "{794.25, 27.22}";
type = Stem;
},
{
horizontal = 1;
place = "{935.72, 26.99}";
type = Stem;
},
{
horizontal = 1;
place = "{1011.5, 26.98}";
type = Stem;
},
{
place = "{168.18, 22.42}";
type = Stem;
},
{
place = "{200.37, 27.6}";
type = Stem;
},
{
place = "{405.83, 27.6}";
type = Stem;
},
{
place = "{442.74, 22.44}";
type = Stem;
}
);
layerId = "7107EBA0-69BE-4603-8F48-BAA3372D0529";
paths = (
{
closed = 1;
nodes = (
"53.22 0 LINE",
"129.76 212.58 LINE",
"504.14 212.58 LINE",
"580.72 0 LINE",
"614.5 0 LINE",
"348.97 737 LINE",
"285.08 737 LINE",
"18.89 0 LINE"
);
},
{
closed = 1;
nodes = (
"306.79 704.25 LINE",
"327.04 704.25 LINE",
"492.7 244.36 LINE",
"141.2 244.36 LINE"
);
},
{
closed = 1;
nodes = (
"381.72 794.25 LINE",
"433.43 845.94 LINE",
"433.43 913.69 LINE",
"405.83 913.69 LINE",
"405.83 855.03 LINE",
"372.29 821.47 LINE",
"261.51 821.47 LINE",
"227.97 855.03 LINE",
"227.97 913.69 LINE",
"200.37 913.69 LINE",
"200.37 845.94 LINE",
"252.08 794.25 LINE"
);
},
{
closed = 1;
nodes = (
"414.23 935.72 LINE",
"464.68 987.16 LINE",
"465.68 1038.11 LINE",
"444.19 1038.11 LINE",
"441.3 998.96 LINE",
"402.18 962.71 LINE",
"366.53 962.71 LINE",
"291.28 1038.48 LINE",
"219.12 1038.48 LINE",
"168.68 987.03 LINE",
"167.68 936.08 LINE",
"189.16 936.08 LINE",
"192.05 975.12 LINE",
"231.18 1011.5 LINE",
"278.61 1011.5 LINE",
"353.75 935.72 LINE"
);
}
);
width = 633;
}
);
leftKerningGroup = A;
note = uni1EB4;
rightKerningGroup = A;
unicode = 1EB4;
},
{
glyphname = Acircumflex;
lastChange = "2019-09-03 16:25:56 +0000";
layers = (
{
hints = (
{
horizontal = 1;
place = "{212.58, 31.78}";
type = Stem;
},
{
horizontal = 1;
place = "{704.25, 32.75}";
type = Stem;
},
{
horizontal = 1;
place = "{906.37, 25.99}";
type = Stem;
},
{
place = "{18.89, 595.61}";
type = Stem;
}
);
layerId = "7107EBA0-69BE-4603-8F48-BAA3372D0529";
paths = (
{
closed = 1;
nodes = (
"53.22 0 LINE",
"129.76 212.58 LINE",
"504.14 212.58 LINE",
"580.72 0 LINE",
"614.5 0 LINE",
"348.97 737 LINE",
"285.08 737 LINE",
"18.89 0 LINE"
);
},
{
closed = 1;
nodes = (
"306.79 704.25 LINE",
"327.04 704.25 LINE",
"492.7 244.36 LINE",
"141.2 244.36 LINE"
);
},
{
closed = 1;
nodes = (
"215.55 794.25 LINE",
"309.12 906.37 LINE",
"324.68 906.37 LINE",
"418.25 794.25 LINE",
"449.04 794.25 LINE",
"344.54 932.36 LINE",
"289.26 932.36 LINE",
"184.76 794.25 LINE"
);
}
);
width = 633;
}
);
leftKerningGroup = A;
note = Acircumflex;
rightKerningGroup = A;
unicode = 00C2;
},
{
glyphname = uni1EA4;
lastChange = "2019-09-03 16:25:56 +0000";
layers = (
{
hints = (
{
horizontal = 1;
place = "{212.58, 31.78}";
type = Stem;
},
{
horizontal = 1;
place = "{704.25, 32.75}";
type = Stem;
},
{
horizontal = 1;
place = "{861.64, 140.22}";
type = Stem;
},
{
place = "{18.89, 595.61}";
type = Stem;
},
{
horizontal = 1;
place = "{906.37, 25.99}";
type = Stem;
}
);
layerId = "7107EBA0-69BE-4603-8F48-BAA3372D0529";
paths = (
{
closed = 1;
nodes = (
"53.22 0 LINE",
"129.76 212.58 LINE",
"504.14 212.58 LINE",
"580.72 0 LINE",
"614.5 0 LINE",
"348.97 737 LINE",
"285.08 737 LINE",
"18.89 0 LINE"
);
},
{
closed = 1;
nodes = (
"306.79 704.25 LINE",
"327.04 704.25 LINE",
"492.7 244.36 LINE",
"141.2 244.36 LINE"
);
},
{
closed = 1;
nodes = (
"215.55 794.25 LINE",
"309.12 906.37 LINE",
"324.68 906.37 LINE",
"418.25 794.25 LINE",
"449.04 794.25 LINE",
"344.54 932.36 LINE",
"289.26 932.36 LINE",
"184.76 794.25 LINE"
);
},
{
closed = 1;
nodes = (
"475.9 861.64 LINE",
"575.41 1001.86 LINE",
"532.68 1001.86 LINE",
"446.11 861.64 LINE"
);
}
);
width = 633;
}
);
leftKerningGroup = A;
note = uni1EA4;
rightKerningGroup = A;
unicode = 1EA4;
},
{
glyphname = uni1EAC;
lastChange = "2019-09-03 16:25:56 +0000";
layers = (
{
hints = (
{
horizontal = 1;
place = "{-163.07, 105.82}";
type = Stem;
},
{
horizontal = 1;
place = "{212.58, 31.78}";
type = Stem;
},
{
horizontal = 1;
place = "{704.25, 32.75}";
type = Stem;
},
{
horizontal = 1;
place = "{906.37, 25.99}";
type = Stem;
},
{
place = "{300.07, 33}";
type = Stem;
}
);
layerId = "7107EBA0-69BE-4603-8F48-BAA3372D0529";
paths = (
{
closed = 1;
nodes = (
"53.22 0 LINE",
"129.76 212.58 LINE",
"504.14 212.58 LINE",
"580.72 0 LINE",
"614.5 0 LINE",
"348.97 737 LINE",
"285.08 737 LINE",
"18.89 0 LINE"
);
},
{
closed = 1;
nodes = (
"333.07 -163.07 LINE",
"333.07 -57.25 LINE",
"300.07 -57.25 LINE",
"300.07 -163.07 LINE"
);
},
{
closed = 1;
nodes = (
"306.79 704.25 LINE",
"327.04 704.25 LINE",
"492.7 244.36 LINE",
"141.2 244.36 LINE"
);
},
{
closed = 1;
nodes = (
"215.55 794.25 LINE",
"309.12 906.37 LINE",
"324.68 906.37 LINE",
"418.25 794.25 LINE",
"449.04 794.25 LINE",
"344.54 932.36 LINE",
"289.26 932.36 LINE",
"184.76 794.25 LINE"
);
}
);
width = 633;
}
);
leftKerningGroup = A;
note = uni1EAC;
rightKerningGroup = A;
unicode = 1EAC;
},
{
glyphname = uni1EA6;
lastChange = "2019-09-03 16:25:56 +0000";
layers = (
{
hints = (
{
horizontal = 1;
place = "{212.58, 31.78}";
type = Stem;
},
{
horizontal = 1;
place = "{704.25, 32.75}";
type = Stem;
},
{
horizontal = 1;
place = "{861.64, 140.22}";
type = Stem;
},
{
place = "{18.89, 595.61}";
type = Stem;
},
{
horizontal = 1;
place = "{906.37, 25.99}";
type = Stem;
}
);
layerId = "7107EBA0-69BE-4603-8F48-BAA3372D0529";
paths = (
{
closed = 1;
nodes = (
"53.22 0 LINE",
"129.76 212.58 LINE",
"504.14 212.58 LINE",
"580.72 0 LINE",
"614.5 0 LINE",
"348.97 737 LINE",
"285.08 737 LINE",
"18.89 0 LINE"
);
},
{
closed = 1;
nodes = (
"306.79 704.25 LINE",
"327.04 704.25 LINE",
"492.7 244.36 LINE",
"141.2 244.36 LINE"
);
},
{
closed = 1;
nodes = (
"197.8 861.64 LINE",
"111.23 1001.86 LINE",
"68.5 1001.86 LINE",
"168.01 861.64 LINE"
);
},
{
closed = 1;
nodes = (
"215.55 794.25 LINE",
"309.12 906.37 LINE",
"324.68 906.37 LINE",
"418.25 794.25 LINE",
"449.04 794.25 LINE",
"344.54 932.36 LINE",
"289.26 932.36 LINE",
"184.76 794.25 LINE"
);
}
);
width = 633;
}
);
leftKerningGroup = A;
note = uni1EA6;
rightKerningGroup = A;
unicode = 1EA6;
},
{
glyphname = uni1EA8;
lastChange = "2019-09-03 16:25:56 +0000";
layers = (
{
hints = (
{
horizontal = 1;
place = "{212.58, 31.78}";
type = Stem;
},
{
horizontal = 1;
place = "{704.25, 32.75}";
type = Stem;
},
{
horizontal = 1;
place = "{906.37, 25.99}";
type = Stem;
},
{
horizontal = 1;
place = "{1025.94, 27.11}";
type = Stem;
},
{
place = "{432.82, 27.93}";
type = Stem;
},
{
place = "{500.01, 28.82}";
type = Stem;
},
{
horizontal = 1;
place = "{861.64, 40.34}";
type = Stem;
}
);
layerId = "7107EBA0-69BE-4603-8F48-BAA3372D0529";
paths = (
{
closed = 1;
nodes = (
"53.22 0 LINE",
"129.76 212.58 LINE",
"504.14 212.58 LINE",
"580.72 0 LINE",
"614.5 0 LINE",
"348.97 737 LINE",
"285.08 737 LINE",
"18.89 0 LINE"
);
},
{
closed = 1;
nodes = (
"306.79 704.25 LINE",
"327.04 704.25 LINE",
"492.7 244.36 LINE",
"141.2 244.36 LINE"
);
},
{
closed = 1;
nodes = (
"215.55 794.25 LINE",
"309.12 906.37 LINE",
"324.68 906.37 LINE",
"418.25 794.25 LINE",
"449.04 794.25 LINE",
"344.54 932.36 LINE",
"289.26 932.36 LINE",
"184.76 794.25 LINE"
);
},
{
closed = 1;
nodes = (
"460.75 861.64 LINE",
"460.75 890.98 LINE",
"528.83 956.03 LINE",
"528.83 1017.62 LINE",
"494.75 1053.05 LINE",
"416.36 1053.05 LINE",
"377.25 1011.58 LINE",
"397.36 992.32 LINE",
"429.15 1025.94 LINE",
"482.11 1025.94 LINE",
"500.01 1007.15 LINE",
"500.01 966.76 LINE",
"432.82 901.98 LINE",
"432.82 861.64 LINE"
);
}
);
width = 633;
}
);
leftKerningGroup = A;
note = uni1EA8;
rightKerningGroup = A;
unicode = 1EA8;
},
{
glyphname = uni1EAA;
lastChange = "2019-09-03 16:25:56 +0000";
layers = (
{
hints = (
{
horizontal = 1;
place = "{212.58, 31.78}";
type = Stem;
},
{
horizontal = 1;
place = "{704.25, 32.75}";
type = Stem;
},
{
horizontal = 1;
place = "{954.43, 26.98}";
type = Stem;
},
{
horizontal = 1;
place = "{1030.21, 26.98}";
type = Stem;
},
{
place = "{176.4, 22.43}";
type = Stem;
},
{
place = "{450.97, 22.43}";
type = Stem;
},
{
horizontal = 1;
place = "{906.37, 25.99}";
type = Stem;
}
);
layerId = "7107EBA0-69BE-4603-8F48-BAA3372D0529";
paths = (
{
closed = 1;
nodes = (
"53.22 0 LINE",
"129.76 212.58 LINE",
"504.14 212.58 LINE",
"580.72 0 LINE",
"614.5 0 LINE",
"348.97 737 LINE",
"285.08 737 LINE",
"18.89 0 LINE"
);
},
{
closed = 1;
nodes = (
"306.79 704.25 LINE",
"327.04 704.25 LINE",
"492.7 244.36 LINE",
"141.2 244.36 LINE"
);
},
{
closed = 1;
nodes = (
"215.55 794.25 LINE",
"309.12 906.37 LINE",
"324.68 906.37 LINE",
"418.25 794.25 LINE",
"449.04 794.25 LINE",
"344.54 932.36 LINE",
"289.26 932.36 LINE",
"184.76 794.25 LINE"
);
},
{
closed = 1;
nodes = (
"422.46 954.43 LINE",
"472.9 1005.87 LINE",
"473.9 1056.82 LINE",
"452.41 1056.82 LINE",
"449.53 1017.66 LINE",
"410.4 981.41 LINE",
"374.75 981.41 LINE",
"299.5 1057.19 LINE",
"227.34 1057.19 LINE",
"176.9 1005.73 LINE",
"175.9 954.79 LINE",
"197.39 954.79 LINE",
"200.28 993.83 LINE",
"239.4 1030.21 LINE",
"286.83 1030.21 LINE",
"361.97 954.43 LINE"
);
}
);
width = 633;
}
);
leftKerningGroup = A;
note = uni1EAA;
rightKerningGroup = A;
unicode = 1EAA;
},
{
glyphname = uni0200;
lastChange = "2019-09-03 16:25:56 +0000";
layers = (
{
hints = (
{
horizontal = 1;
place = "{212.58, 31.78}";
type = Stem;
},
{
horizontal = 1;
place = "{704.25, 32.75}";
type = Stem;
},
{
horizontal = 1;
place = "{794.25, 140.22}";
type = Stem;
},
{
place = "{18.89, 595.61}";
type = Stem;
}
);
layerId = "7107EBA0-69BE-4603-8F48-BAA3372D0529";
paths = (
{
closed = 1;
nodes = (
"53.22 0 LINE",
"129.76 212.58 LINE",
"504.14 212.58 LINE",
"580.72 0 LINE",
"614.5 0 LINE",
"348.97 737 LINE",
"285.08 737 LINE",
"18.89 0 LINE"
);
},
{
closed = 1;
nodes = (
"306.79 704.25 LINE",
"327.04 704.25 LINE",
"492.7 244.36 LINE",
"141.2 244.36 LINE"
);
},
{
closed = 1;
nodes = (
"272.57 794.25 LINE",
"185.98 934.47 LINE",
"144.47 934.47 LINE",
"243.98 794.25 LINE"
);
},
{
closed = 1;
nodes = (
"391.86 794.25 LINE",
"305.28 934.47 LINE",
"263.76 934.47 LINE",
"363.28 794.25 LINE"
);
}
);
width = 633;
}
);
leftKerningGroup = A;
note = uni0200;
rightKerningGroup = A;
unicode = 0200;
},
{
glyphname = Adieresis;
lastChange = "2019-09-03 16:25:56 +0000";
layers = (
{
hints = (
{
horizontal = 1;
place = "{212.58, 31.78}";
type = Stem;
},
{
horizontal = 1;
place = "{704.25, 32.75}";
type = Stem;
},
{
horizontal = 1;
place = "{794.25, 105.94}";
type = Stem;
},
{
place = "{167.34, 33}";
type = Stem;
},
{
place = "{433.46, 33}";
type = Stem;
}
);
layerId = "7107EBA0-69BE-4603-8F48-BAA3372D0529";
paths = (
{
closed = 1;
nodes = (
"53.22 0 LINE",
"129.76 212.58 LINE",
"504.14 212.58 LINE",
"580.72 0 LINE",
"614.5 0 LINE",
"348.97 737 LINE",
"285.08 737 LINE",
"18.89 0 LINE"
);
},
{
closed = 1;
nodes = (
"306.79 704.25 LINE",
"327.04 704.25 LINE",
"492.7 244.36 LINE",
"141.2 244.36 LINE"
);
},
{
closed = 1;
nodes = (
"200.34 794.25 LINE",
"200.34 900.19 LINE",
"167.34 900.19 LINE",
"167.34 794.25 LINE"
);
},
{
closed = 1;
nodes = (
"466.46 794.25 LINE",
"466.46 900.19 LINE",
"433.46 900.19 LINE",
"433.46 794.25 LINE"
);
}
);
width = 633;
}
);
leftKerningGroup = A;
note = Adieresis;
rightKerningGroup = A;
unicode = 00C4;
},
{
glyphname = uni1EA0;
lastChange = "2019-09-03 16:25:56 +0000";
layers = (
{
hints = (
{
horizontal = 1;
place = "{-163.07, 105.82}";
type = Stem;
},
{
horizontal = 1;
place = "{212.58, 31.78}";
type = Stem;
},
{
horizontal = 1;
place = "{704.25, 32.75}";
type = Stem;
},
{
place = "{300.07, 33}";
type = Stem;
}
);
layerId = "7107EBA0-69BE-4603-8F48-BAA3372D0529";
paths = (
{
closed = 1;
nodes = (
"53.22 0 LINE",
"129.76 212.58 LINE",
"504.14 212.58 LINE",
"580.72 0 LINE",
"614.5 0 LINE",
"348.97 737 LINE",
"285.08 737 LINE",
"18.89 0 LINE"
);
},
{
closed = 1;
nodes = (
"333.07 -163.07 LINE",
"333.07 -57.25 LINE",
"300.07 -57.25 LINE",
"300.07 -163.07 LINE"
);
},
{
closed = 1;
nodes = (
"306.79 704.25 LINE",
"327.04 704.25 LINE",
"492.7 244.36 LINE",
"141.2 244.36 LINE"
);
}
);
width = 633;
}
);
leftKerningGroup = A;
note = uni1EA0;
rightKerningGroup = A;
unicode = 1EA0;
},
{
glyphname = Agrave;
lastChange = "2019-09-03 16:25:56 +0000";
layers = (
{
hints = (
{
horizontal = 1;
place = "{212.58, 31.78}";
type = Stem;
},
{
horizontal = 1;
place = "{704.25, 32.75}";
type = Stem;
},
{
horizontal = 1;
place = "{794.25, 140.22}";
type = Stem;
},
{
place = "{18.89, 595.61}";
type = Stem;
}
);
layerId = "7107EBA0-69BE-4603-8F48-BAA3372D0529";
paths = (
{
closed = 1;
nodes = (
"53.22 0 LINE",
"129.76 212.58 LINE",
"504.14 212.58 LINE",
"580.72 0 LINE",
"614.5 0 LINE",
"348.97 737 LINE",
"285.08 737 LINE",
"18.89 0 LINE"
);
},
{
closed = 1;
nodes = (
"306.79 704.25 LINE",
"327.04 704.25 LINE",
"492.7 244.36 LINE",
"141.2 244.36 LINE"
);
},
{
closed = 1;
nodes = (
"329.12 794.25 LINE",
"242.55 934.47 LINE",
"199.82 934.47 LINE",
"299.33 794.25 LINE"
);
}
);
width = 633;
}
);
leftKerningGroup = A;
note = Agrave;
rightKerningGroup = A;
unicode = 00C0;
},
{
glyphname = uni1EA2;
lastChange = "2019-09-03 16:25:56 +0000";
layers = (
{
hints = (
{
horizontal = 1;
place = "{212.58, 31.78}";
type = Stem;
},
{
horizontal = 1;
place = "{704.25, 32.75}";
type = Stem;
},
{
horizontal = 1;
place = "{794.25, 40.34}";
type = Stem;
},
{
horizontal = 1;
place = "{958.55, 27.11}";
type = Stem;
},
{
place = "{305.21, 27.93}";
type = Stem;
},
{
place = "{372.4, 28.82}";
type = Stem;
}
);
layerId = "7107EBA0-69BE-4603-8F48-BAA3372D0529";
paths = (
{
closed = 1;
nodes = (
"53.22 0 LINE",
"129.76 212.58 LINE",
"504.14 212.58 LINE",
"580.72 0 LINE",
"614.5 0 LINE",
"348.97 737 LINE",
"285.08 737 LINE",
"18.89 0 LINE"
);
},
{
closed = 1;
nodes = (
"306.79 704.25 LINE",
"327.04 704.25 LINE",
"492.7 244.36 LINE",
"141.2 244.36 LINE"
);
},
{
closed = 1;
nodes = (
"333.14 794.25 LINE",
"333.14 823.59 LINE",
"401.22 888.64 LINE",
"401.22 950.23 LINE",
"367.14 985.66 LINE",
"288.75 985.66 LINE",
"249.64 944.19 LINE",
"269.75 924.93 LINE",
"301.54 958.55 LINE",
"354.5 958.55 LINE",
"372.4 939.76 LINE",
"372.4 899.37 LINE",
"305.21 834.59 LINE",
"305.21 794.25 LINE"
);
}
);
width = 633;
}
);
leftKerningGroup = A;
note = uni1EA2;
rightKerningGroup = A;
unicode = 1EA2;
},
{
glyphname = uni0202;
lastChange = "2019-09-03 16:25:56 +0000";
layers = (
{
hints = (
{
horizontal = 1;
place = "{212.58, 31.78}";
type = Stem;
},
{
horizontal = 1;
place = "{704.25, 32.75}";
type = Stem;
},
{
horizontal = 1;
place = "{886.46, 27.23}";
type = Stem;
},
{
place = "{200.37, 27.6}";
type = Stem;
},
{
place = "{405.83, 27.6}";
type = Stem;
}
);
layerId = "7107EBA0-69BE-4603-8F48-BAA3372D0529";
paths = (
{
closed = 1;
nodes = (
"53.22 0 LINE",
"129.76 212.58 LINE",
"504.14 212.58 LINE",
"580.72 0 LINE",
"614.5 0 LINE",
"348.97 737 LINE",
"285.08 737 LINE",
"18.89 0 LINE"
);
},
{
closed = 1;
nodes = (
"306.79 704.25 LINE",
"327.04 704.25 LINE",
"492.7 244.36 LINE",
"141.2 244.36 LINE"
);
},
{
closed = 1;
nodes = (
"227.97 794.25 LINE",
"227.97 852.91 LINE",
"261.51 886.46 LINE",
"372.29 886.46 LINE",
"405.83 852.91 LINE",
"405.83 794.25 LINE",
"433.43 794.25 LINE",
"433.43 861.98 LINE",
"381.72 913.69 LINE",
"252.08 913.69 LINE",
"200.37 861.98 LINE",
"200.37 794.25 LINE"
);
}
);
width = 633;
}
);
leftKerningGroup = A;
note = uni0202;
rightKerningGroup = A;
unicode = 0202;
},
{
glyphname = Amacron;
lastChange = "2019-09-03 16:25:56 +0000";
layers = (
{
hints = (
{
horizontal = 1;
place = "{212.58, 31.78}";
type = Stem;
},
{
horizontal = 1;
place = "{704.25, 32.75}";
type = Stem;
},
{
horizontal = 1;
place = "{794.25, 28.57}";
type = Stem;
},
{
place = "{18.89, 595.61}";
type = Stem;
}
);
layerId = "7107EBA0-69BE-4603-8F48-BAA3372D0529";
paths = (
{
closed = 1;
nodes = (
"53.22 0 LINE",
"129.76 212.58 LINE",
"504.14 212.58 LINE",
"580.72 0 LINE",
"614.5 0 LINE",
"348.97 737 LINE",
"285.08 737 LINE",
"18.89 0 LINE"
);
},
{
closed = 1;
nodes = (
"306.79 704.25 LINE",
"327.04 704.25 LINE",
"492.7 244.36 LINE",
"141.2 244.36 LINE"
);
},
{
closed = 1;
nodes = (
"466.46 794.25 LINE",
"466.46 822.82 LINE",
"167.34 822.82 LINE",
"167.34 794.25 LINE"
);
}
);
width = 633;
}
);
leftKerningGroup = A;
note = Amacron;
rightKerningGroup = A;
unicode = 0100;
},
{
glyphname = Aogonek;
lastChange = "2019-09-03 18:11:12 +0000";
layers = (
{
hints = (
{
horizontal = 1;
place = "{-141.88, 28.63}";
type = Stem;
},
{
horizontal = 1;
place = "{212.58, 31.78}";
type = Stem;
},
{
horizontal = 1;
place = "{704.25, 32.75}";
type = Stem;
},
{
place = "{527.75, 28.5}";
type = Stem;
}
);
layerId = "7107EBA0-69BE-4603-8F48-BAA3372D0529";
paths = (
{
closed = 1;
nodes = (
"610.25 -141.88 LINE",
"610.25 -113.25 LINE",
"589.25 -113.25 LINE",
"556.25 -80.25 LINE",
"556.25 -47.25 LINE",
"617.75 -8.75 LINE",
"348.97 737 LINE",
"285.08 737 LINE",
"18.89 0 LINE",
"53.22 0 LINE",
"129.76 212.58 LINE",
"504.14 212.58 LINE",
"580.72 0 LINE",
"527.75 -33 LINE",
"527.75 -93.5 LINE",
"577.25 -141.88 LINE"
);
},
{
closed = 1;
nodes = (
"306.79 704.25 LINE",
"327.04 704.25 LINE",
"492.7 244.36 LINE",
"141.2 244.36 LINE"
);
}
);
width = 582;
}
);
leftKerningGroup = A;
note = Aogonek;
rightKerningGroup = A;
unicode = 0104;
},
{
glyphname = Aring;
lastChange = "2019-09-03 16:25:56 +0000";
layers = (
{
hints = (
{
horizontal = 1;
place = "{212.58, 31.78}";
type = Stem;
},
{
horizontal = 1;
place = "{704.25, 32.75}";
type = Stem;
},
{
horizontal = 1;
place = "{794.25, 25.76}";
type = Stem;
},
{
horizontal = 1;
place = "{940.5, 25.76}";
type = Stem;
},
{
place = "{229, 27.59}";
type = Stem;
},
{
place = "{377.21, 27.59}";
type = Stem;
}
);
layerId = "7107EBA0-69BE-4603-8F48-BAA3372D0529";
paths = (
{
closed = 1;
nodes = (
"53.22 0 LINE",
"129.76 212.58 LINE",
"504.14 212.58 LINE",
"580.72 0 LINE",
"614.5 0 LINE",
"348.97 737 LINE",
"285.08 737 LINE",
"18.89 0 LINE"
);
},
{
closed = 1;
nodes = (
"306.79 704.25 LINE",
"327.04 704.25 LINE",
"492.7 244.36 LINE",
"141.2 244.36 LINE"
);
},
{
closed = 1;
nodes = (
"353.34 794.25 LINE",
"404.8 845.69 LINE",
"404.8 914.8 LINE",
"353.34 966.26 LINE",
"280.46 966.26 LINE",
"229 914.8 LINE",
"229 845.69 LINE",
"280.46 794.25 LINE"
);
},
{
closed = 1;
nodes = (
"256.59 854.16 LINE",
"256.59 906.23 LINE",
"290.87 940.5 LINE",
"342.93 940.5 LINE",
"377.21 906.23 LINE",
"377.21 854.16 LINE",
"342.93 820.01 LINE",
"290.87 820.01 LINE"
);
}
);
width = 633;
}
);
leftKerningGroup = A;
note = Aring;
rightKerningGroup = A;
unicode = 00C5;
},
{
glyphname = Aringacute;
lastChange = "2019-09-03 16:25:56 +0000";
layers = (
{
hints = (
{
horizontal = 1;
place = "{212.58, 31.78}";
type = Stem;
},
{
horizontal = 1;
place = "{704.25, 32.75}";
type = Stem;
},
{
horizontal = 1;
place = "{794.25, 25.76}";
type = Stem;
},
{
horizontal = 1;
place = "{940.5, 25.76}";
type = Stem;
},
{
horizontal = 1;
place = "{988.25, 140.22}";
type = Stem;
},
{
place = "{229, 27.59}";
type = Stem;
},
{
place = "{377.21, 27.59}";
type = Stem;
}
);
layerId = "7107EBA0-69BE-4603-8F48-BAA3372D0529";
paths = (
{
closed = 1;
nodes = (
"53.22 0 LINE",
"129.76 212.58 LINE",
"504.14 212.58 LINE",
"580.72 0 LINE",
"614.5 0 LINE",
"348.97 737 LINE",
"285.08 737 LINE",
"18.89 0 LINE"
);
},
{
closed = 1;
nodes = (
"306.79 704.25 LINE",
"327.04 704.25 LINE",
"492.7 244.36 LINE",
"141.2 244.36 LINE"
);
},
{
closed = 1;
nodes = (
"353.34 794.25 LINE",
"404.8 845.69 LINE",
"404.8 914.8 LINE",
"353.34 966.26 LINE",
"280.46 966.26 LINE",
"229 914.8 LINE",
"229 845.69 LINE",
"280.46 794.25 LINE"
);
},
{
closed = 1;
nodes = (
"256.59 854.16 LINE",
"256.59 906.23 LINE",
"290.87 940.5 LINE",
"342.93 940.5 LINE",
"377.21 906.23 LINE",
"377.21 854.16 LINE",
"342.93 820.01 LINE",
"290.87 820.01 LINE"
);
},
{
closed = 1;
nodes = (
"332.26 988.25 LINE",
"431.78 1128.47 LINE",
"389.04 1128.47 LINE",
"302.47 988.25 LINE"
);
}
);
width = 633;
}
);
leftKerningGroup = A;
note = Aringacute;
rightKerningGroup = A;
unicode = 01FA;
},
{
glyphname = Atilde;
lastChange = "2019-09-03 16:25:56 +0000";
layers = (
{
hints = (
{
horizontal = 1;
place = "{212.58, 31.78}";
type = Stem;
},
{
horizontal = 1;
place = "{704.25, 32.75}";
type = Stem;
},
{
horizontal = 1;
place = "{794.25, 26.98}";
type = Stem;
},
{
horizontal = 1;
place = "{870.03, 26.98}";
type = Stem;
},
{
place = "{168.26, 22.43}";
type = Stem;
},
{
place = "{442.83, 22.43}";
type = Stem;
}
);
layerId = "7107EBA0-69BE-4603-8F48-BAA3372D0529";
paths = (
{
closed = 1;
nodes = (
"53.22 0 LINE",
"129.76 212.58 LINE",
"504.14 212.58 LINE",
"580.72 0 LINE",
"614.5 0 LINE",
"348.97 737 LINE",
"285.08 737 LINE",
"18.89 0 LINE"
);
},
{
closed = 1;
nodes = (
"306.79 704.25 LINE",
"327.04 704.25 LINE",
"492.7 244.36 LINE",
"141.2 244.36 LINE"
);
},
{
closed = 1;
nodes = (
"414.32 794.25 LINE",
"464.76 845.69 LINE",
"465.76 896.64 LINE",
"444.28 896.64 LINE",
"441.39 857.48 LINE",
"402.26 821.23 LINE",
"366.61 821.23 LINE",
"291.36 897.01 LINE",
"219.21 897.01 LINE",
"168.76 845.55 LINE",
"167.76 794.61 LINE",
"189.25 794.61 LINE",
"192.14 833.65 LINE",
"231.26 870.03 LINE",
"278.69 870.03 LINE",
"353.83 794.25 LINE"
);
}
);
width = 633;
}
);
leftKerningGroup = A;
note = Atilde;
rightKerningGroup = A;
unicode = 00C3;
},
{
glyphname = AE;
lastChange = "2019-09-03 16:25:56 +0000";
layers = (
{
hints = (
{
horizontal = 1;
place = "{0, 32.26}";
type = Stem;
},
{
horizontal = 1;
place = "{212.58, 31.78}";
type = Stem;
},
{
horizontal = 1;
place = "{373.87, 32.27}";
type = Stem;
},
{
horizontal = 1;
place = "{704.73, 32.27}";
type = Stem;
},
{
place = "{18.89, 864.3}";
type = Stem;
}
);
layerId = "7107EBA0-69BE-4603-8F48-BAA3372D0529";
paths = (
{
closed = 1;
nodes = (
"53.22 0 LINE",
"129.76 212.58 LINE",
"504.14 212.58 LINE",
"580.72 0 LINE",
"883.19 0 LINE",
"883.19 32.26 LINE",
"602.87 32.26 LINE",
"479.8 373.87 LINE",
"826.64 373.87 LINE",
"826.64 406.14 LINE",
"468.17 406.14 LINE",
"360.59 704.73 LINE",
"883.19 704.73 LINE",
"883.19 737 LINE",
"285.08 737 LINE",
"18.89 0 LINE"
);
},
{
closed = 1;
nodes = (
"306.79 704.25 LINE",
"327.04 704.25 LINE",
"492.7 244.36 LINE",
"141.2 244.36 LINE"
);
}
);
width = 938;
}
);
leftKerningGroup = A;
note = AE;
rightKerningGroup = AE;
unicode = 00C6;
},
{
glyphname = AEacute;
lastChange = "2019-09-03 16:25:56 +0000";
layers = (
{
hints = (
{
horizontal = 1;
place = "{0, 32.26}";
type = Stem;
},
{
horizontal = 1;
place = "{212.58, 31.78}";
type = Stem;
},
{
horizontal = 1;
place = "{373.87, 32.27}";
type = Stem;
},
{
horizontal = 1;
place = "{704.73, 32.27}";
type = Stem;
},
{
horizontal = 1;
place = "{794.25, 140.22}";
type = Stem;
},
{
place = "{18.89, 864.3}";
type = Stem;
}
);
layerId = "7107EBA0-69BE-4603-8F48-BAA3372D0529";
paths = (
{
closed = 1;
nodes = (
"53.22 0 LINE",
"129.76 212.58 LINE",
"504.14 212.58 LINE",
"580.72 0 LINE",
"883.19 0 LINE",
"883.19 32.26 LINE",
"602.87 32.26 LINE",
"479.8 373.87 LINE",
"826.64 373.87 LINE",
"826.64 406.14 LINE",
"468.17 406.14 LINE",
"360.59 704.73 LINE",
"883.19 704.73 LINE",
"883.19 737 LINE",
"285.08 737 LINE",
"18.89 0 LINE"
);
},
{
closed = 1;
nodes = (
"306.79 704.25 LINE",
"327.04 704.25 LINE",
"492.7 244.36 LINE",
"141.2 244.36 LINE"
);
},
{
closed = 1;
nodes = (
"333.51 794.25 LINE",
"433.03 934.47 LINE",
"390.29 934.47 LINE",
"303.72 794.25 LINE"
);
}
);
width = 938;
}
);
leftKerningGroup = A;
note = AEacute;
rightKerningGroup = AE;
unicode = 01FC;
},
{
glyphname = B;
lastChange = "2019-09-03 16:25:56 +0000";
layers = (
{
hints = (
{
horizontal = 1;
place = "{0, 31.79}";
type = Stem;
},
{
horizontal = 1;
place = "{374.14, 31.76}";
type = Stem;
},
{
horizontal = 1;
place = "{705.24, 31.76}";
type = Stem;
},
{
place = "{97.78, 33.55}";
type = Stem;
},
{
place = "{505.99, 33.51}";
type = Stem;
},
{
place = "{552.7, 33.46}";
type = Stem;
}
);
layerId = "7107EBA0-69BE-4603-8F48-BAA3372D0529";
paths = (
{
closed = 1;
nodes = (
"492.72 0 LINE",
"586.16 94.46 LINE",
"586.16 296.55 LINE",
"494.14 394.36 LINE",
"539.5 469.8 LINE",
"539.5 642.54 LINE",
"445.94 737 LINE",
"97.78 737 LINE",
"97.78 0 LINE"
);
},
{
closed = 1;
nodes = (
"131.33 374.12 LINE",
"471.23 374.15 LINE",
"552.69 287.79 LINE",
"552.71 105.11 LINE",
"480.34 31.8 LINE",
"131.33 31.78 LINE"
);
},
{
closed = 1;
nodes = (
"131.33 705.22 LINE",
"433.68 705.25 LINE",
"505.98 631.89 LINE",
"506.01 476.05 LINE",
"463.86 405.9 LINE",
"131.33 405.9 LINE"
);
}
);
width = 659;
}
);
leftKerningGroup = B;
note = B;
rightKerningGroup = B;
unicode = 0042;
},
{
glyphname = C;
lastChange = "2019-09-03 16:25:56 +0000";
layers = (
{
hints = (
{
horizontal = 1;
place = "{0, 31.77}";
type = Stem;
},
{
horizontal = 1;
place = "{705.21, 31.79}";
type = Stem;
},
{
place = "{82.22, 33.48}";
type = Stem;
}
);
layerId = "7107EBA0-69BE-4603-8F48-BAA3372D0529";
paths = (
{
closed = 1;
nodes = (
"490.05 0 LINE",
"596.08 107.03 LINE",
"574.61 128.72 LINE",
"478.54 31.78 LINE",
"188.04 31.75 LINE",
"115.73 105.11 LINE",
"115.68 631.89 LINE",
"188.04 705.19 LINE",
"472.68 705.22 LINE",
"565.86 611.28 LINE",
"587.32 632.86 LINE",
"484.19 737 LINE",
"175.68 737 LINE",
"82.22 642.54 LINE",
"82.22 94.46 LINE",
"175.68 0 LINE"
);
}
);
width = 643;
}
);
leftKerningGroup = C;
note = C;
rightKerningGroup = C;
unicode = 0043;
},
{
glyphname = Cacute;
lastChange = "2019-09-03 16:25:56 +0000";
layers = (
{
hints = (
{
horizontal = 1;
place = "{0, 31.77}";
type = Stem;
},
{
horizontal = 1;
place = "{705.21, 31.79}";
type = Stem;
},
{
horizontal = 1;
place = "{794.25, 140.22}";
type = Stem;
},
{
place = "{82.22, 33.48}";
type = Stem;
}
);
layerId = "7107EBA0-69BE-4603-8F48-BAA3372D0529";
paths = (
{
closed = 1;
nodes = (
"490.05 0 LINE",
"596.08 107.03 LINE",
"574.61 128.72 LINE",
"478.54 31.78 LINE",
"188.04 31.75 LINE",
"115.73 105.11 LINE",
"115.68 631.89 LINE",
"188.04 705.19 LINE",
"472.68 705.22 LINE",
"565.86 611.28 LINE",
"587.32 632.86 LINE",
"484.19 737 LINE",
"175.68 737 LINE",
"82.22 642.54 LINE",
"82.22 94.46 LINE",
"175.68 0 LINE"
);
},
{
closed = 1;
nodes = (
"348.94 794.25 LINE",
"448.46 934.47 LINE",
"405.72 934.47 LINE",
"319.15 794.25 LINE"
);
}
);
width = 643;
}
);
leftKerningGroup = C;
note = Cacute;
rightKerningGroup = C;
unicode = 0106;
},
{
glyphname = Ccaron;
lastChange = "2019-09-03 16:25:56 +0000";
layers = (
{
hints = (
{
horizontal = 1;
place = "{0, 31.77}";
type = Stem;
},
{
horizontal = 1;
place = "{705.21, 31.79}";
type = Stem;
},
{
horizontal = 1;
place = "{794.25, 25.98}";
type = Stem;
},
{
place = "{82.22, 33.48}";
type = Stem;
}
);
layerId = "7107EBA0-69BE-4603-8F48-BAA3372D0529";
paths = (
{
closed = 1;
nodes = (
"490.05 0 LINE",
"596.08 107.03 LINE",
"574.61 128.72 LINE",
"478.54 31.78 LINE",
"188.04 31.75 LINE",
"115.73 105.11 LINE",
"115.68 631.89 LINE",
"188.04 705.19 LINE",
"472.68 705.22 LINE",
"565.86 611.28 LINE",
"587.32 632.86 LINE",
"484.19 737 LINE",
"175.68 737 LINE",
"82.22 642.54 LINE",
"82.22 94.46 LINE",
"175.68 0 LINE"
);
},
{
closed = 1;
nodes = (
"358.97 794.25 LINE",
"463.47 932.36 LINE",
"432.68 932.36 LINE",
"339.11 820.23 LINE",
"323.55 820.23 LINE",
"229.98 932.36 LINE",
"199.19 932.36 LINE",
"303.69 794.25 LINE"
);
}
);
width = 643;
}
);
leftKerningGroup = C;
note = Ccaron;
rightKerningGroup = C;
unicode = 010C;
},
{
glyphname = Ccedilla;
lastChange = "2019-09-03 16:25:56 +0000";
layers = (
{
hints = (
{
horizontal = 1;
place = "{0, 31.77}";
type = Stem;
},
{
horizontal = 1;
place = "{705.21, 31.79}";
type = Stem;
},
{
place = "{82.22, 33.48}";
type = Stem;
}
);
layerId = "7107EBA0-69BE-4603-8F48-BAA3372D0529";
paths = (
{
closed = 1;
nodes = (
"310.28 -131.27 LINE",
"348.78 0 LINE",
"490.05 0 LINE",
"596.08 107.03 LINE",
"574.61 128.72 LINE",
"478.54 31.78 LINE",
"188.04 31.75 LINE",
"115.73 105.11 LINE",
"115.68 631.89 LINE",
"188.04 705.19 LINE",
"472.68 705.22 LINE",
"565.86 611.28 LINE",
"587.32 632.86 LINE",
"484.19 737 LINE",
"175.68 737 LINE",
"82.22 642.54 LINE",
"82.22 94.46 LINE",
"175.68 0 LINE",
"316.73 0 LINE",
"281.3 -131.27 LINE"
);
}
);
width = 643;
}
);
leftKerningGroup = C;
note = Ccedilla;
rightKerningGroup = C;
unicode = 00C7;
},
{
glyphname = Ccircumflex;
lastChange = "2019-09-03 16:25:56 +0000";
layers = (
{
hints = (
{
horizontal = 1;
place = "{0, 31.77}";
type = Stem;
},
{
horizontal = 1;
place = "{705.21, 31.79}";
type = Stem;
},
{
horizontal = 1;
place = "{906.37, 25.99}";
type = Stem;
},
{
place = "{82.22, 33.48}";
type = Stem;
}
);
layerId = "7107EBA0-69BE-4603-8F48-BAA3372D0529";
paths = (
{
closed = 1;
nodes = (
"490.06 0 LINE",
"596.09 107.03 LINE",
"574.62 128.72 LINE",
"478.55 31.78 LINE",
"188.05 31.75 LINE",
"115.74 105.11 LINE",
"115.69 631.89 LINE",
"188.05 705.19 LINE",
"472.69 705.22 LINE",
"565.87 611.28 LINE",
"587.33 632.86 LINE",
"484.2 737 LINE",
"175.69 737 LINE",
"82.23 642.54 LINE",
"82.23 94.46 LINE",
"175.69 0 LINE"
);
},
{
closed = 1;
nodes = (
"230.98 794.25 LINE",
"324.55 906.37 LINE",
"340.11 906.37 LINE",
"433.68 794.25 LINE",
"464.47 794.25 LINE",
"359.97 932.36 LINE",
"304.69 932.36 LINE",
"200.19 794.25 LINE"
);
}
);
width = 643;
}
);
leftKerningGroup = C;
note = Ccircumflex;
rightKerningGroup = C;
unicode = 0108;
},
{
glyphname = Cdotaccent;
lastChange = "2019-09-03 16:25:56 +0000";
layers = (
{
hints = (
{
horizontal = 1;
place = "{0, 31.77}";
type = Stem;
},
{
horizontal = 1;
place = "{705.21, 31.79}";
type = Stem;
},
{
horizontal = 1;
place = "{794.25, 105.82}";
type = Stem;
},
{
place = "{82.22, 33.48}";
type = Stem;
},
{
place = "{315.83, 33}";
type = Stem;
}
);
layerId = "7107EBA0-69BE-4603-8F48-BAA3372D0529";
paths = (
{
closed = 1;
nodes = (
"490.05 0 LINE",
"596.08 107.03 LINE",
"574.61 128.72 LINE",
"478.54 31.78 LINE",
"188.04 31.75 LINE",
"115.73 105.11 LINE",
"115.68 631.89 LINE",
"188.04 705.19 LINE",
"472.68 705.22 LINE",
"565.86 611.28 LINE",
"587.32 632.86 LINE",
"484.19 737 LINE",
"175.68 737 LINE",
"82.22 642.54 LINE",
"82.22 94.46 LINE",
"175.68 0 LINE"
);
},
{
closed = 1;
nodes = (
"348.83 794.25 LINE",
"348.83 900.07 LINE",
"315.83 900.07 LINE",
"315.83 794.25 LINE"
);
}
);
width = 643;
}
);
leftKerningGroup = C;
note = Cdotaccent;
rightKerningGroup = C;
unicode = 010A;
},
{
glyphname = D;
lastChange = "2019-09-03 16:25:56 +0000";
layers = (
{
hints = (
{
horizontal = 1;
place = "{0, 31.78}";
type = Stem;
},
{
horizontal = 1;
place = "{705.22, 31.78}";
type = Stem;
},
{
place = "{97.78, 33.55}";
type = Stem;
},
{
place = "{573.59, 33.49}";
type = Stem;
}
);
layerId = "7107EBA0-69BE-4603-8F48-BAA3372D0529";
paths = (
{
closed = 1;
nodes = (
"457.84 0 LINE",
"607.08 155.12 LINE",
"607.08 581.87 LINE",
"457.84 737 LINE",
"97.78 737 LINE",
"97.78 0 LINE"
);
},
{
closed = 1;
nodes = (
"131.33 705.22 LINE",
"445.26 705.22 LINE",
"573.59 571.78 LINE",
"573.59 165.33 LINE",
"445.37 31.78 LINE",
"131.33 31.78 LINE"
);
}
);
width = 680;
}
);
leftKerningGroup = B;
note = D;
rightKerningGroup = D;
unicode = 0044;
},
{
glyphname = uni01C4;
lastChange = "2019-09-03 16:25:56 +0000";
layers = (
{
hints = (
{
horizontal = 1;
place = "{0.08, 32.26}";
type = Stem;
},
{
horizontal = 1;
place = "{704.82, 32.26}";
type = Stem;
},
{
horizontal = 1;
place = "{794.33, 25.99}";
type = Stem;
},
{
place = "{97.78, 33.55}";
type = Stem;
},
{
place = "{573.59, 33.49}";
type = Stem;
},
{
place = "{776.73, 38.14}";
type = Stem;
},
{
place = "{1215.18, 37.89}";
type = Stem;
},
{
horizontal = 1;
place = "{0, 31.78}";
type = Stem;
},
{
horizontal = 1;
place = "{705.22, 31.78}";
type = Stem;
}
);
layerId = "7107EBA0-69BE-4603-8F48-BAA3372D0529";
paths = (
{
closed = 1;
nodes = (
"457.84 0 LINE",
"607.08 155.12 LINE",
"607.08 581.87 LINE",
"457.84 737 LINE",
"97.78 737 LINE",
"97.78 0 LINE"
);
},
{
closed = 1;
nodes = (
"131.33 705.22 LINE",
"445.26 705.22 LINE",
"573.59 571.78 LINE",
"573.59 165.33 LINE",
"445.37 31.78 LINE",
"131.33 31.78 LINE"
);
},
{
closed = 1;
nodes = (
"1265.84 0.08 LINE",
"1265.84 32.34 LINE",
"814.87 32.34 LINE",
"814.87 52.59 LINE",
"1253.07 683.26 LINE",
"1253.07 737.08 LINE",
"795.84 737.08 LINE",
"795.84 704.82 LINE",
"1215.18 704.82 LINE",
"1215.18 684.57 LINE",
"776.73 53.9 LINE",
"776.73 0.08 LINE"
);
},
{
closed = 1;
nodes = (
"1064.43 794.33 LINE",
"1168.93 932.44 LINE",
"1138.14 932.44 LINE",
"1044.57 820.32 LINE",
"1029.01 820.32 LINE",
"935.44 932.44 LINE",
"904.65 932.44 LINE",
"1009.15 794.33 LINE"
);
}
);
width = 1357;
}
);
leftKerningGroup = B;
note = uni01C4;
rightKerningGroup = uni01C4;
unicode = 01C4;
},
{
glyphname = Eth;
lastChange = "2019-09-03 16:25:56 +0000";
layers = (
{
hints = (
{
horizontal = 1;
place = "{0, 31.78}";
type = Stem;
},
{
horizontal = 1;
place = "{358.72, 30.56}";
type = Stem;
},
{
horizontal = 1;
place = "{705.22, 31.78}";
type = Stem;
},
{
place = "{97.78, 33.55}";
type = Stem;
},
{
place = "{573.59, 33.49}";
type = Stem;
}
);
layerId = "7107EBA0-69BE-4603-8F48-BAA3372D0529";
paths = (
{
closed = 1;
nodes = (
"457.84 0 LINE",
"607.08 155.12 LINE",
"607.08 581.87 LINE",
"457.84 737 LINE",
"97.78 737 LINE",
"97.78 389.28 LINE",
"17.87 389.28 LINE",
"17.87 358.72 LINE",
"97.78 358.72 LINE",
"97.78 0 LINE"
);
},
{
closed = 1;
nodes = (
"131.33 358.72 LINE",
"296.26 358.72 LINE",
"296.26 389.28 LINE",
"131.33 389.28 LINE",
"131.33 705.22 LINE",
"445.26 705.22 LINE",
"573.59 571.78 LINE",
"573.59 165.33 LINE",
"445.37 31.78 LINE",
"131.33 31.78 LINE"
);
}
);
width = 680;
}
);
leftKerningGroup = B;
note = Eth;
rightKerningGroup = D;
unicode = 00D0;
},
{
glyphname = Dcaron;
lastChange = "2019-09-03 16:25:56 +0000";
layers = (
{
hints = (
{
horizontal = 1;
place = "{0, 31.78}";
type = Stem;
},
{
horizontal = 1;
place = "{705.22, 31.78}";
type = Stem;
},
{
horizontal = 1;
place = "{794.25, 25.98}";
type = Stem;
},
{
place = "{97.78, 33.55}";
type = Stem;
},
{
place = "{573.59, 33.49}";
type = Stem;
}
);
layerId = "7107EBA0-69BE-4603-8F48-BAA3372D0529";
paths = (
{
closed = 1;
nodes = (
"457.84 0 LINE",
"607.08 155.12 LINE",
"607.08 581.87 LINE",
"457.84 737 LINE",
"97.78 737 LINE",
"97.78 0 LINE"
);
},
{
closed = 1;
nodes = (
"131.33 705.22 LINE",
"445.26 705.22 LINE",
"573.59 571.78 LINE",
"573.59 165.33 LINE",
"445.37 31.78 LINE",
"131.33 31.78 LINE"
);
},
{
closed = 1;
nodes = (
"341.19 794.25 LINE",
"445.69 932.36 LINE",
"414.9 932.36 LINE",
"321.33 820.23 LINE",
"305.78 820.23 LINE",
"212.21 932.36 LINE",
"181.41 932.36 LINE",
"285.91 794.25 LINE"
);
}
);
width = 680;
}
);
leftKerningGroup = B;
note = Dcaron;
rightKerningGroup = D;
unicode = 010E;
},
{
glyphname = Dcroat;
lastChange = "2019-09-03 16:25:56 +0000";
layers = (
{
hints = (
{
horizontal = 1;
place = "{0, 31.78}";
type = Stem;
},
{
horizontal = 1;
place = "{358.72, 30.56}";
type = Stem;
},
{
horizontal = 1;
place = "{705.22, 31.78}";
type = Stem;
},
{
place = "{97.78, 33.55}";
type = Stem;
},
{
place = "{573.59, 33.49}";
type = Stem;
}
);
layerId = "7107EBA0-69BE-4603-8F48-BAA3372D0529";
paths = (
{
closed = 1;
nodes = (
"457.84 0 LINE",
"607.08 155.12 LINE",
"607.08 581.87 LINE",
"457.84 737 LINE",
"97.78 737 LINE",
"97.78 389.28 LINE",
"17.87 389.28 LINE",
"17.87 358.72 LINE",
"97.78 358.72 LINE",
"97.78 0 LINE"
);
},
{
closed = 1;
nodes = (
"131.33 358.72 LINE",
"296.26 358.72 LINE",
"296.26 389.28 LINE",
"131.33 389.28 LINE",
"131.33 705.22 LINE",
"445.26 705.22 LINE",
"573.59 571.78 LINE",
"573.59 165.33 LINE",
"445.37 31.78 LINE",
"131.33 31.78 LINE"
);
}
);
width = 680;
}
);
leftKerningGroup = B;
note = Dcroat;
rightKerningGroup = D;
unicode = 0110;
},
{
glyphname = uni01C5;
lastChange = "2019-09-03 16:25:56 +0000";
layers = (
{
hints = (
{
horizontal = 1;
place = "{0, 31.78}";
type = Stem;
},
{
horizontal = 1;
place = "{491.94, 30.56}";
type = Stem;
},
{
horizontal = 1;
place = "{579.75, 25.98}";
type = Stem;
},
{
horizontal = 1;
place = "{705.22, 31.78}";
type = Stem;
},
{
place = "{97.78, 33.55}";
type = Stem;
},
{
place = "{573.59, 33.49}";
type = Stem;
},
{
place = "{754.36, 31.47}";
type = Stem;
},
{
place = "{1105.44, 31.35}";
type = Stem;
},
{
horizontal = 1;
place = "{0, 30.55}";
type = Stem;
}
);
layerId = "7107EBA0-69BE-4603-8F48-BAA3372D0529";
paths = (
{
closed = 1;
nodes = (
"457.84 0 LINE",
"607.08 155.12 LINE",
"607.08 581.87 LINE",
"457.84 737 LINE",
"97.78 737 LINE",
"97.78 0 LINE"
);
},
{
closed = 1;
nodes = (
"131.33 705.22 LINE",
"445.26 705.22 LINE",
"573.59 571.78 LINE",
"573.59 165.33 LINE",
"445.37 31.78 LINE",
"131.33 31.78 LINE"
);
},
{
closed = 1;
nodes = (
"1148.19 0 LINE",
"1148.19 30.55 LINE",
"785.16 30.55 LINE",
"786.5 44.08 LINE",
"1136.79 468.15 LINE",
"1136.79 522.5 LINE",
"781.12 522.5 LINE",
"781.12 491.94 LINE",
"1106.11 491.94 LINE",
"1104.78 478.54 LINE",
"754.36 54.34 LINE",
"754.36 0 LINE"
);
},
{
closed = 1;
nodes = (
"988.08 579.75 LINE",
"1092.58 717.86 LINE",
"1061.79 717.86 LINE",
"968.22 605.73 LINE",
"952.66 605.73 LINE",
"859.09 717.86 LINE",
"828.3 717.86 LINE",
"932.8 579.75 LINE"
);
}
);
width = 1221;
}
);
leftKerningGroup = B;
note = uni01C5;
unicode = 01C5;
},
{
glyphname = E;
lastChange = "2019-09-03 16:25:56 +0000";
layers = (
{
hints = (
{
horizontal = 1;
place = "{0, 32.26}";
type = Stem;
},
{
horizontal = 1;
place = "{373.87, 32.27}";
type = Stem;
},
{
horizontal = 1;
place = "{704.73, 32.27}";
type = Stem;
},
{
place = "{97.78, 33.55}";
type = Stem;
}
);
layerId = "7107EBA0-69BE-4603-8F48-BAA3372D0529";
paths = (
{
closed = 1;
nodes = (
"554.64 0 LINE",
"554.64 32.26 LINE",
"131.33 32.26 LINE",
"131.33 373.87 LINE",
"498.19 373.87 LINE",
"498.19 406.14 LINE",
"131.33 406.14 LINE",
"131.33 704.73 LINE",
"554.64 704.73 LINE",
"554.64 737 LINE",
"97.78 737 LINE",
"97.78 0 LINE"
);
}
);
width = 609;
}
);
leftKerningGroup = B;
note = E;
rightKerningGroup = AE;
unicode = 0045;
},
{
glyphname = Eacute;
lastChange = "2019-09-03 16:25:56 +0000";
layers = (
{
hints = (
{
horizontal = 1;
place = "{0, 32.26}";
type = Stem;
},
{
horizontal = 1;
place = "{373.87, 32.27}";
type = Stem;
},
{
horizontal = 1;
place = "{704.73, 32.27}";
type = Stem;
},
{
horizontal = 1;
place = "{794.25, 140.22}";
type = Stem;
},
{
place = "{97.78, 33.55}";
type = Stem;
}
);
layerId = "7107EBA0-69BE-4603-8F48-BAA3372D0529";
paths = (
{
closed = 1;
nodes = (
"554.64 0 LINE",
"554.64 32.26 LINE",
"131.33 32.26 LINE",
"131.33 373.87 LINE",
"498.19 373.87 LINE",
"498.19 406.14 LINE",
"131.33 406.14 LINE",
"131.33 704.73 LINE",
"554.64 704.73 LINE",
"554.64 737 LINE",
"97.78 737 LINE",
"97.78 0 LINE"
);
},
{
closed = 1;
nodes = (
"343.57 794.25 LINE",
"443.08 934.47 LINE",
"400.34 934.47 LINE",
"313.78 794.25 LINE"
);
}
);
width = 609;
}
);
leftKerningGroup = B;
note = Eacute;
rightKerningGroup = AE;
unicode = 00C9;
},
{
glyphname = Ebreve;
lastChange = "2019-09-03 16:25:56 +0000";
layers = (
{
hints = (
{
horizontal = 1;
place = "{0, 32.26}";
type = Stem;
},
{
horizontal = 1;
place = "{373.87, 32.27}";
type = Stem;
},
{
horizontal = 1;
place = "{704.73, 32.27}";
type = Stem;
},
{
horizontal = 1;
place = "{794.25, 27.22}";
type = Stem;
},
{
place = "{97.78, 33.55}";
type = Stem;
},
{
place = "{210.43, 27.6}";
type = Stem;
},
{
place = "{415.89, 27.59}";
type = Stem;
}
);
layerId = "7107EBA0-69BE-4603-8F48-BAA3372D0529";
paths = (
{
closed = 1;
nodes = (
"554.64 0 LINE",
"554.64 32.26 LINE",
"131.33 32.26 LINE",
"131.33 373.87 LINE",
"498.19 373.87 LINE",
"498.19 406.14 LINE",
"131.33 406.14 LINE",
"131.33 704.73 LINE",
"554.64 704.73 LINE",
"554.64 737 LINE",
"97.78 737 LINE",
"97.78 0 LINE"
);
},
{
closed = 1;
nodes = (
"391.78 794.25 LINE",
"443.48 845.94 LINE",
"443.48 913.69 LINE",
"415.89 913.69 LINE",
"415.89 855.03 LINE",
"382.34 821.47 LINE",
"271.57 821.47 LINE",
"238.03 855.03 LINE",
"238.03 913.69 LINE",
"210.43 913.69 LINE",
"210.43 845.94 LINE",
"262.14 794.25 LINE"
);
}
);
width = 609;
}
);
leftKerningGroup = B;
note = Ebreve;
rightKerningGroup = AE;
unicode = 0114;
},
{
glyphname = Ecaron;
lastChange = "2019-09-03 16:25:56 +0000";
layers = (
{
hints = (
{
horizontal = 1;
place = "{0, 32.26}";
type = Stem;
},
{
horizontal = 1;
place = "{373.87, 32.27}";
type = Stem;
},
{
horizontal = 1;
place = "{704.73, 32.27}";
type = Stem;
},
{
horizontal = 1;
place = "{794.25, 25.98}";
type = Stem;
},
{
place = "{97.78, 33.55}";
type = Stem;
}
);
layerId = "7107EBA0-69BE-4603-8F48-BAA3372D0529";
paths = (
{
closed = 1;
nodes = (
"554.64 0 LINE",
"554.64 32.26 LINE",
"131.33 32.26 LINE",
"131.33 373.87 LINE",
"498.19 373.87 LINE",
"498.19 406.14 LINE",
"131.33 406.14 LINE",
"131.33 704.73 LINE",
"554.64 704.73 LINE",
"554.64 737 LINE",
"97.78 737 LINE",
"97.78 0 LINE"
);
},
{
closed = 1;
nodes = (
"353.59 794.25 LINE",
"458.09 932.36 LINE",
"427.3 932.36 LINE",
"333.73 820.23 LINE",
"318.18 820.23 LINE",
"224.61 932.36 LINE",
"193.82 932.36 LINE",
"298.32 794.25 LINE"
);
}
);
width = 609;
}
);
leftKerningGroup = B;
note = Ecaron;
rightKerningGroup = AE;
unicode = 011A;
},
{
glyphname = Ecircumflex;
lastChange = "2019-09-03 16:25:56 +0000";
layers = (
{
hints = (
{
horizontal = 1;
place = "{0, 32.26}";
type = Stem;
},
{
horizontal = 1;
place = "{373.87, 32.27}";
type = Stem;
},
{
horizontal = 1;
place = "{704.73, 32.27}";
type = Stem;
},
{
horizontal = 1;
place = "{906.37, 25.99}";
type = Stem;
},
{
place = "{97.78, 33.55}";
type = Stem;
}
);
layerId = "7107EBA0-69BE-4603-8F48-BAA3372D0529";
paths = (
{
closed = 1;
nodes = (
"554.64 0 LINE",
"554.64 32.26 LINE",
"131.33 32.26 LINE",
"131.33 373.87 LINE",
"498.19 373.87 LINE",
"498.19 406.14 LINE",
"131.33 406.14 LINE",
"131.33 704.73 LINE",
"554.64 704.73 LINE",
"554.64 737 LINE",
"97.78 737 LINE",
"97.78 0 LINE"
);
},
{
closed = 1;
nodes = (
"225.61 794.25 LINE",
"319.18 906.37 LINE",
"334.73 906.37 LINE",
"428.3 794.25 LINE",
"459.09 794.25 LINE",
"354.59 932.36 LINE",
"299.32 932.36 LINE",
"194.82 794.25 LINE"
);
}
);
width = 609;
}
);
leftKerningGroup = B;
note = Ecircumflex;
rightKerningGroup = AE;
unicode = 00CA;
},
{
glyphname = uni1EBE;
lastChange = "2019-09-03 16:25:56 +0000";
layers = (
{
hints = (
{
horizontal = 1;
place = "{0, 32.26}";
type = Stem;
},
{
horizontal = 1;
place = "{373.87, 32.27}";
type = Stem;
},
{
horizontal = 1;
place = "{704.73, 32.27}";
type = Stem;
},
{
horizontal = 1;
place = "{861.64, 140.22}";
type = Stem;
},
{
place = "{97.78, 33.55}";
type = Stem;
},
{
horizontal = 1;
place = "{906.37, 25.99}";
type = Stem;
}
);
layerId = "7107EBA0-69BE-4603-8F48-BAA3372D0529";
paths = (
{
closed = 1;
nodes = (
"554.64 0 LINE",
"554.64 32.26 LINE",
"131.33 32.26 LINE",
"131.33 373.87 LINE",
"498.19 373.87 LINE",
"498.19 406.14 LINE",
"131.33 406.14 LINE",
"131.33 704.73 LINE",
"554.64 704.73 LINE",
"554.64 737 LINE",
"97.78 737 LINE",
"97.78 0 LINE"
);
},
{
closed = 1;
nodes = (
"225.61 794.25 LINE",
"319.18 906.37 LINE",
"334.73 906.37 LINE",
"428.3 794.25 LINE",
"459.09 794.25 LINE",
"354.59 932.36 LINE",
"299.32 932.36 LINE",
"194.82 794.25 LINE"
);
},
{
closed = 1;
nodes = (
"485.96 861.64 LINE",
"585.47 1001.86 LINE",
"542.73 1001.86 LINE",
"456.16 861.64 LINE"
);
}
);
width = 609;
}
);
leftKerningGroup = B;
note = uni1EBE;
rightKerningGroup = AE;
unicode = 1EBE;
},
{
glyphname = uni1EC6;
lastChange = "2019-09-03 16:25:56 +0000";
layers = (
{
hints = (
{
horizontal = 1;
place = "{-163.07, 105.82}";
type = Stem;
},
{
horizontal = 1;
place = "{0, 32.26}";
type = Stem;
},
{
horizontal = 1;
place = "{373.87, 32.27}";
type = Stem;
},
{
horizontal = 1;
place = "{704.73, 32.27}";
type = Stem;
},
{
horizontal = 1;
place = "{906.37, 25.99}";
type = Stem;
},
{
place = "{97.78, 33.55}";
type = Stem;
},
{
place = "{310.46, 33}";
type = Stem;
}
);
layerId = "7107EBA0-69BE-4603-8F48-BAA3372D0529";
paths = (
{
closed = 1;
nodes = (
"554.64 0 LINE",
"554.64 32.26 LINE",
"131.33 32.26 LINE",
"131.33 373.87 LINE",
"498.19 373.87 LINE",
"498.19 406.14 LINE",
"131.33 406.14 LINE",
"131.33 704.73 LINE",
"554.64 704.73 LINE",
"554.64 737 LINE",
"97.78 737 LINE",
"97.78 0 LINE"
);
},
{
closed = 1;
nodes = (
"343.46 -163.07 LINE",
"343.46 -57.25 LINE",
"310.46 -57.25 LINE",
"310.46 -163.07 LINE"
);
},
{
closed = 1;
nodes = (
"225.61 794.25 LINE",
"319.18 906.37 LINE",
"334.73 906.37 LINE",
"428.3 794.25 LINE",
"459.09 794.25 LINE",
"354.59 932.36 LINE",
"299.32 932.36 LINE",
"194.82 794.25 LINE"
);
}
);
width = 609;
}
);
leftKerningGroup = B;
note = uni1EC6;
rightKerningGroup = AE;
unicode = 1EC6;
},
{
glyphname = uni1EC0;
lastChange = "2019-09-03 16:25:56 +0000";
layers = (
{
hints = (
{
horizontal = 1;
place = "{0, 32.26}";
type = Stem;
},
{
horizontal = 1;
place = "{373.87, 32.27}";
type = Stem;
},
{
horizontal = 1;
place = "{704.73, 32.27}";
type = Stem;
},
{
horizontal = 1;
place = "{861.64, 140.22}";
type = Stem;
},
{
place = "{97.78, 33.55}";
type = Stem;
},
{
horizontal = 1;
place = "{906.37, 25.99}";
type = Stem;
}
);
layerId = "7107EBA0-69BE-4603-8F48-BAA3372D0529";
paths = (
{
closed = 1;
nodes = (
"554.64 0 LINE",
"554.64 32.26 LINE",
"131.33 32.26 LINE",
"131.33 373.87 LINE",
"498.19 373.87 LINE",
"498.19 406.14 LINE",
"131.33 406.14 LINE",
"131.33 704.73 LINE",
"554.64 704.73 LINE",
"554.64 737 LINE",
"97.78 737 LINE",
"97.78 0 LINE"
);
},
{
closed = 1;
nodes = (
"207.86 861.64 LINE",
"121.29 1001.86 LINE",
"78.55 1001.86 LINE",
"178.07 861.64 LINE"
);
},
{
closed = 1;
nodes = (
"225.61 794.25 LINE",
"319.18 906.37 LINE",
"334.73 906.37 LINE",
"428.3 794.25 LINE",
"459.09 794.25 LINE",
"354.59 932.36 LINE",
"299.32 932.36 LINE",
"194.82 794.25 LINE"
);
}
);
width = 609;
}
);
leftKerningGroup = B;
note = uni1EC0;
rightKerningGroup = AE;
unicode = 1EC0;
},
{
glyphname = uni1EC2;
lastChange = "2019-09-03 16:25:56 +0000";
layers = (
{
hints = (
{
horizontal = 1;
place = "{0, 32.26}";
type = Stem;
},
{
horizontal = 1;
place = "{373.87, 32.27}";
type = Stem;
},
{
horizontal = 1;
place = "{704.73, 32.27}";
type = Stem;
},
{
horizontal = 1;
place = "{906.37, 25.99}";
type = Stem;
},
{
horizontal = 1;
place = "{1025.94, 27.11}";
type = Stem;
},
{
place = "{97.78, 33.55}";
type = Stem;
},
{
place = "{442.87, 27.93}";
type = Stem;
},
{
place = "{510.07, 28.82}";
type = Stem;
},
{
horizontal = 1;
place = "{861.64, 40.34}";
type = Stem;
}
);
layerId = "7107EBA0-69BE-4603-8F48-BAA3372D0529";
paths = (
{
closed = 1;
nodes = (
"554.64 0 LINE",
"554.64 32.26 LINE",
"131.33 32.26 LINE",
"131.33 373.87 LINE",
"498.19 373.87 LINE",
"498.19 406.14 LINE",
"131.33 406.14 LINE",
"131.33 704.73 LINE",
"554.64 704.73 LINE",
"554.64 737 LINE",
"97.78 737 LINE",
"97.78 0 LINE"
);
},
{
closed = 1;
nodes = (
"225.61 794.25 LINE",
"319.18 906.37 LINE",
"334.73 906.37 LINE",
"428.3 794.25 LINE",
"459.09 794.25 LINE",
"354.59 932.36 LINE",
"299.32 932.36 LINE",
"194.82 794.25 LINE"
);
},
{
closed = 1;
nodes = (
"470.8 861.64 LINE",
"470.8 890.98 LINE",
"538.89 956.03 LINE",
"538.89 1017.62 LINE",
"504.8 1053.05 LINE",
"426.41 1053.05 LINE",
"387.3 1011.58 LINE",
"407.41 992.32 LINE",
"439.21 1025.94 LINE",
"492.16 1025.94 LINE",
"510.07 1007.15 LINE",
"510.07 966.76 LINE",
"442.87 901.98 LINE",
"442.87 861.64 LINE"
);
}
);
width = 609;
}
);
leftKerningGroup = B;
note = uni1EC2;
rightKerningGroup = AE;
unicode = 1EC2;
},
{
glyphname = uni1EC4;
lastChange = "2019-09-03 16:25:56 +0000";
layers = (
{
hints = (
{
horizontal = 1;
place = "{0, 32.26}";
type = Stem;
},
{
horizontal = 1;
place = "{373.87, 32.27}";
type = Stem;
},
{
horizontal = 1;
place = "{704.73, 32.27}";
type = Stem;
},
{
horizontal = 1;
place = "{954.43, 26.98}";
type = Stem;
},
{
horizontal = 1;
place = "{1030.21, 26.98}";
type = Stem;
},
{
place = "{97.78, 33.55}";
type = Stem;
},
{
place = "{186.46, 22.42}";
type = Stem;
},
{
place = "{461.02, 22.44}";
type = Stem;
},
{
horizontal = 1;
place = "{906.37, 25.99}";
type = Stem;
}
);
layerId = "7107EBA0-69BE-4603-8F48-BAA3372D0529";
paths = (
{
closed = 1;
nodes = (
"554.64 0 LINE",
"554.64 32.26 LINE",
"131.33 32.26 LINE",
"131.33 373.87 LINE",
"498.19 373.87 LINE",
"498.19 406.14 LINE",
"131.33 406.14 LINE",
"131.33 704.73 LINE",
"554.64 704.73 LINE",
"554.64 737 LINE",
"97.78 737 LINE",
"97.78 0 LINE"
);
},
{
closed = 1;
nodes = (
"225.61 794.25 LINE",
"319.18 906.37 LINE",
"334.73 906.37 LINE",
"428.3 794.25 LINE",
"459.09 794.25 LINE",
"354.59 932.36 LINE",
"299.32 932.36 LINE",
"194.82 794.25 LINE"
);
},
{
closed = 1;
nodes = (
"432.51 954.43 LINE",
"482.96 1005.87 LINE",
"483.96 1056.82 LINE",
"462.47 1056.82 LINE",
"459.58 1017.66 LINE",
"420.46 981.41 LINE",
"384.8 981.41 LINE",
"309.55 1057.19 LINE",
"237.4 1057.19 LINE",
"186.96 1005.73 LINE",
"185.96 954.79 LINE",
"207.44 954.79 LINE",
"210.33 993.83 LINE",
"249.46 1030.21 LINE",
"296.89 1030.21 LINE",
"372.03 954.43 LINE"
);
}
);
width = 609;
}
);
leftKerningGroup = B;
note = uni1EC4;
rightKerningGroup = AE;
unicode = 1EC4;
},
{
glyphname = uni0204;
lastChange = "2019-09-03 16:25:56 +0000";
layers = (
{
hints = (
{
horizontal = 1;
place = "{0, 32.26}";
type = Stem;
},
{
horizontal = 1;
place = "{373.87, 32.27}";
type = Stem;
},
{
horizontal = 1;
place = "{704.73, 32.27}";
type = Stem;
},
{
horizontal = 1;
place = "{794.25, 140.22}";
type = Stem;
},
{
place = "{97.78, 33.55}";
type = Stem;
}
);
layerId = "7107EBA0-69BE-4603-8F48-BAA3372D0529";
paths = (
{
closed = 1;
nodes = (
"554.64 0 LINE",
"554.64 32.26 LINE",
"131.33 32.26 LINE",
"131.33 373.87 LINE",
"498.19 373.87 LINE",
"498.19 406.14 LINE",
"131.33 406.14 LINE",
"131.33 704.73 LINE",
"554.64 704.73 LINE",
"554.64 737 LINE",
"97.78 737 LINE",
"97.78 0 LINE"
);
},
{
closed = 1;
nodes = (
"282.62 794.25 LINE",
"196.04 934.47 LINE",
"154.53 934.47 LINE",
"254.04 794.25 LINE"
);
},
{
closed = 1;
nodes = (
"401.91 794.25 LINE",
"315.33 934.47 LINE",
"273.82 934.47 LINE",
"373.33 794.25 LINE"
);
}
);
width = 609;
}
);
leftKerningGroup = B;
note = uni0204;
rightKerningGroup = AE;
unicode = 0204;
},
{
glyphname = Edieresis;
lastChange = "2019-09-03 16:25:56 +0000";
layers = (
{
hints = (
{
horizontal = 1;
place = "{0, 32.26}";
type = Stem;
},
{
horizontal = 1;
place = "{373.87, 32.27}";
type = Stem;
},
{
horizontal = 1;
place = "{704.73, 32.27}";
type = Stem;
},
{
horizontal = 1;
place = "{794.25, 105.94}";
type = Stem;
},
{
place = "{97.78, 33.55}";
type = Stem;
},
{
place = "{177.4, 33}";
type = Stem;
},
{
place = "{443.51, 33}";
type = Stem;
}
);
layerId = "7107EBA0-69BE-4603-8F48-BAA3372D0529";
paths = (
{
closed = 1;
nodes = (
"554.64 0 LINE",
"554.64 32.26 LINE",
"131.33 32.26 LINE",
"131.33 373.87 LINE",
"498.19 373.87 LINE",
"498.19 406.14 LINE",
"131.33 406.14 LINE",
"131.33 704.73 LINE",
"554.64 704.73 LINE",
"554.64 737 LINE",
"97.78 737 LINE",
"97.78 0 LINE"
);
},
{
closed = 1;
nodes = (
"210.4 794.25 LINE",
"210.4 900.19 LINE",
"177.4 900.19 LINE",
"177.4 794.25 LINE"
);
},
{
closed = 1;
nodes = (
"476.51 794.25 LINE",
"476.51 900.19 LINE",
"443.51 900.19 LINE",
"443.51 794.25 LINE"
);
}
);
width = 609;
}
);
leftKerningGroup = B;
note = Edieresis;
rightKerningGroup = AE;
unicode = 00CB;
},
{
glyphname = Edotaccent;
lastChange = "2019-09-03 16:25:56 +0000";
layers = (
{
hints = (
{
horizontal = 1;
place = "{0, 32.26}";
type = Stem;
},
{
horizontal = 1;
place = "{373.87, 32.27}";
type = Stem;
},
{
horizontal = 1;
place = "{704.73, 32.27}";
type = Stem;
},
{
horizontal = 1;
place = "{794.25, 105.82}";
type = Stem;
},
{
place = "{97.78, 33.55}";
type = Stem;
},
{
place = "{310.46, 33}";
type = Stem;
}
);
layerId = "7107EBA0-69BE-4603-8F48-BAA3372D0529";
paths = (
{
closed = 1;
nodes = (
"554.64 0 LINE",
"554.64 32.26 LINE",
"131.33 32.26 LINE",
"131.33 373.87 LINE",
"498.19 373.87 LINE",
"498.19 406.14 LINE",
"131.33 406.14 LINE",
"131.33 704.73 LINE",
"554.64 704.73 LINE",
"554.64 737 LINE",
"97.78 737 LINE",
"97.78 0 LINE"
);
},
{
closed = 1;
nodes = (
"343.46 794.25 LINE",
"343.46 900.07 LINE",
"310.46 900.07 LINE",
"310.46 794.25 LINE"
);
}
);
width = 609;
}
);
leftKerningGroup = B;
note = Edotaccent;
rightKerningGroup = AE;
unicode = 0116;
},
{
glyphname = uni1EB8;
lastChange = "2019-09-03 16:25:56 +0000";
layers = (
{
hints = (
{
horizontal = 1;
place = "{-163.07, 105.82}";
type = Stem;
},
{
horizontal = 1;
place = "{0, 32.26}";
type = Stem;
},
{
horizontal = 1;
place = "{373.87, 32.27}";
type = Stem;
},
{
horizontal = 1;
place = "{704.73, 32.27}";
type = Stem;
},
{
place = "{97.78, 33.55}";
type = Stem;
},
{
place = "{310.46, 33}";
type = Stem;
}
);
layerId = "7107EBA0-69BE-4603-8F48-BAA3372D0529";
paths = (
{
closed = 1;
nodes = (
"554.64 0 LINE",
"554.64 32.26 LINE",
"131.33 32.26 LINE",
"131.33 373.87 LINE",
"498.19 373.87 LINE",
"498.19 406.14 LINE",
"131.33 406.14 LINE",
"131.33 704.73 LINE",
"554.64 704.73 LINE",
"554.64 737 LINE",
"97.78 737 LINE",
"97.78 0 LINE"
);
},
{
closed = 1;
nodes = (
"343.46 -163.07 LINE",
"343.46 -57.25 LINE",
"310.46 -57.25 LINE",
"310.46 -163.07 LINE"
);
}
);
width = 609;
}
);
leftKerningGroup = B;
note = uni1EB8;
rightKerningGroup = AE;
unicode = 1EB8;
},
{
glyphname = Egrave;
lastChange = "2019-09-03 16:25:56 +0000";
layers = (
{
hints = (
{
horizontal = 1;
place = "{0, 32.26}";
type = Stem;
},
{
horizontal = 1;
place = "{373.87, 32.27}";
type = Stem;
},
{
horizontal = 1;
place = "{704.73, 32.27}";
type = Stem;
},
{
horizontal = 1;
place = "{794.25, 140.22}";
type = Stem;
},
{
place = "{97.78, 33.55}";
type = Stem;
}
);
layerId = "7107EBA0-69BE-4603-8F48-BAA3372D0529";
paths = (
{
closed = 1;
nodes = (
"554.64 0 LINE",
"554.64 32.26 LINE",
"131.33 32.26 LINE",
"131.33 373.87 LINE",
"498.19 373.87 LINE",
"498.19 406.14 LINE",
"131.33 406.14 LINE",
"131.33 704.73 LINE",
"554.64 704.73 LINE",
"554.64 737 LINE",
"97.78 737 LINE",
"97.78 0 LINE"
);
},
{
closed = 1;
nodes = (
"339.18 794.25 LINE",
"252.61 934.47 LINE",
"209.87 934.47 LINE",
"309.39 794.25 LINE"
);
}
);
width = 609;
}
);
leftKerningGroup = B;
note = Egrave;
rightKerningGroup = AE;
unicode = 00C8;
},
{
glyphname = uni1EBA;
lastChange = "2019-09-03 16:25:56 +0000";
layers = (
{
hints = (
{
horizontal = 1;
place = "{0, 32.26}";
type = Stem;
},
{
horizontal = 1;
place = "{373.87, 32.27}";
type = Stem;
},
{
horizontal = 1;
place = "{704.73, 32.27}";
type = Stem;
},
{
horizontal = 1;
place = "{794.25, 40.34}";
type = Stem;
},
{
horizontal = 1;
place = "{958.55, 27.11}";
type = Stem;
},
{
place = "{97.78, 33.55}";
type = Stem;
},
{
place = "{315.26, 27.93}";
type = Stem;
},
{
place = "{382.46, 28.82}";
type = Stem;
}
);
layerId = "7107EBA0-69BE-4603-8F48-BAA3372D0529";
paths = (
{
closed = 1;
nodes = (
"554.64 0 LINE",
"554.64 32.26 LINE",
"131.33 32.26 LINE",
"131.33 373.87 LINE",
"498.19 373.87 LINE",
"498.19 406.14 LINE",
"131.33 406.14 LINE",
"131.33 704.73 LINE",
"554.64 704.73 LINE",
"554.64 737 LINE",
"97.78 737 LINE",
"97.78 0 LINE"
);
},
{
closed = 1;
nodes = (
"343.19 794.25 LINE",
"343.19 823.59 LINE",
"411.28 888.64 LINE",
"411.28 950.23 LINE",
"377.19 985.66 LINE",
"298.8 985.66 LINE",
"259.69 944.19 LINE",
"279.8 924.93 LINE",
"311.59 958.55 LINE",
"364.55 958.55 LINE",
"382.46 939.76 LINE",
"382.46 899.37 LINE",
"315.26 834.59 LINE",
"315.26 794.25 LINE"
);
}
);
width = 609;
}
);
leftKerningGroup = B;
note = uni1EBA;
rightKerningGroup = AE;
unicode = 1EBA;
},
{
glyphname = uni0206;
lastChange = "2019-09-03 16:25:56 +0000";
layers = (
{
hints = (
{
horizontal = 1;
place = "{0, 32.26}";
type = Stem;
},
{
horizontal = 1;
place = "{373.87, 32.27}";
type = Stem;
},
{
horizontal = 1;
place = "{704.73, 32.27}";
type = Stem;
},
{
horizontal = 1;
place = "{886.46, 27.23}";
type = Stem;
},
{
place = "{97.78, 33.55}";
type = Stem;
},
{
place = "{210.43, 27.6}";
type = Stem;
},
{
place = "{415.89, 27.59}";
type = Stem;
}
);
layerId = "7107EBA0-69BE-4603-8F48-BAA3372D0529";
paths = (
{
closed = 1;
nodes = (
"554.64 0 LINE",
"554.64 32.26 LINE",
"131.33 32.26 LINE",
"131.33 373.87 LINE",
"498.19 373.87 LINE",
"498.19 406.14 LINE",
"131.33 406.14 LINE",
"131.33 704.73 LINE",
"554.64 704.73 LINE",
"554.64 737 LINE",
"97.78 737 LINE",
"97.78 0 LINE"
);
},
{
closed = 1;
nodes = (
"238.03 794.25 LINE",
"238.03 852.91 LINE",
"271.57 886.46 LINE",
"382.34 886.46 LINE",
"415.89 852.91 LINE",
"415.89 794.25 LINE",
"443.48 794.25 LINE",
"443.48 861.98 LINE",
"391.78 913.69 LINE",
"262.14 913.69 LINE",
"210.43 861.98 LINE",
"210.43 794.25 LINE"
);
}
);
width = 609;
}
);
leftKerningGroup = B;
note = uni0206;
rightKerningGroup = AE;
unicode = 0206;
},
{
glyphname = Emacron;
lastChange = "2019-09-03 16:25:56 +0000";
layers = (
{
hints = (
{
horizontal = 1;
place = "{0, 32.26}";
type = Stem;
},
{
horizontal = 1;
place = "{373.87, 32.27}";
type = Stem;
},
{
horizontal = 1;
place = "{704.73, 32.27}";
type = Stem;
},
{
horizontal = 1;
place = "{794.25, 28.57}";
type = Stem;
},
{
place = "{97.78, 33.55}";
type = Stem;
}
);
layerId = "7107EBA0-69BE-4603-8F48-BAA3372D0529";
paths = (
{
closed = 1;
nodes = (
"554.64 0 LINE",
"554.64 32.26 LINE",
"131.33 32.26 LINE",
"131.33 373.87 LINE",
"498.19 373.87 LINE",
"498.19 406.14 LINE",
"131.33 406.14 LINE",
"131.33 704.73 LINE",
"554.64 704.73 LINE",
"554.64 737 LINE",
"97.78 737 LINE",
"97.78 0 LINE"
);
},
{
closed = 1;
nodes = (
"476.51 794.25 LINE",
"476.51 822.82 LINE",
"177.4 822.82 LINE",
"177.4 794.25 LINE"
);
}
);
width = 609;
}
);
leftKerningGroup = B;
note = Emacron;
rightKerningGroup = AE;
unicode = 0112;
},
{
glyphname = Eogonek;
lastChange = "2019-09-03 18:11:30 +0000";
layers = (
{
hints = (
{
horizontal = 1;
place = "{-142.29, 28.59}";
type = Stem;
},
{
horizontal = 1;
place = "{0, 32.26}";
type = Stem;
},
{
horizontal = 1;
place = "{373.87, 32.27}";
type = Stem;
},
{
horizontal = 1;
place = "{704.73, 32.27}";
type = Stem;
},
{
place = "{97.78, 33.55}";
type = Stem;
},
{
place = "{476.22, 27.99}";
type = Stem;
}
);
layerId = "7107EBA0-69BE-4603-8F48-BAA3372D0529";
paths = (
{
closed = 1;
nodes = (
"555 -142 LINE",
"555 -114 LINE",
"532 -114 LINE",
"501 -83 LINE",
"501 -42 LINE",
"555 0 LINE",
"554.64 32.26 LINE",
"131.33 32.26 LINE",
"131.33 373.87 LINE",
"498.19 373.87 LINE",
"498.19 406.14 LINE",
"131.33 406.14 LINE",
"131.33 704.73 LINE",
"554.64 704.73 LINE",
"554.64 737 LINE",
"97.78 737 LINE",
"97.78 0 LINE",
"515 0 LINE",
"473 -33 LINE",
"473 -93 LINE",
"522 -142 LINE"
);
}
);
width = 609;
}
);
leftKerningGroup = B;
note = Eogonek;
rightKerningGroup = AE;
unicode = 0118;
},
{
glyphname = uni1EBC;
lastChange = "2019-09-03 16:25:56 +0000";
layers = (
{
hints = (
{
horizontal = 1;
place = "{0, 32.26}";
type = Stem;
},
{
horizontal = 1;
place = "{373.87, 32.27}";
type = Stem;
},
{
horizontal = 1;
place = "{704.73, 32.27}";
type = Stem;
},
{
horizontal = 1;
place = "{794.25, 26.98}";
type = Stem;
},
{
horizontal = 1;
place = "{870.03, 26.98}";
type = Stem;
},
{
place = "{97.78, 33.55}";
type = Stem;
},
{
place = "{178.32, 22.42}";
type = Stem;
},
{
place = "{452.88, 22.44}";
type = Stem;
}
);
layerId = "7107EBA0-69BE-4603-8F48-BAA3372D0529";
paths = (
{
closed = 1;
nodes = (
"554.64 0 LINE",
"554.64 32.26 LINE",
"131.33 32.26 LINE",
"131.33 373.87 LINE",
"498.19 373.87 LINE",
"498.19 406.14 LINE",
"131.33 406.14 LINE",
"131.33 704.73 LINE",
"554.64 704.73 LINE",
"554.64 737 LINE",
"97.78 737 LINE",
"97.78 0 LINE"
);
},
{
closed = 1;
nodes = (
"424.37 794.25 LINE",
"474.82 845.69 LINE",
"475.82 896.64 LINE",
"454.33 896.64 LINE",
"451.44 857.48 LINE",
"412.32 821.23 LINE",
"376.66 821.23 LINE",
"301.41 897.01 LINE",
"229.26 897.01 LINE",
"178.82 845.55 LINE",
"177.82 794.61 LINE",
"199.3 794.61 LINE",
"202.19 833.65 LINE",
"241.32 870.03 LINE",
"288.75 870.03 LINE",
"363.89 794.25 LINE"
);
}
);
width = 609;
}
);
leftKerningGroup = B;
note = uni1EBC;
rightKerningGroup = AE;
unicode = 1EBC;
},
{
glyphname = F;
lastChange = "2019-09-03 16:25:56 +0000";
layers = (
{
hints = (
{
horizontal = 1;
place = "{357.75, 32.26}";
type = Stem;
},
{
horizontal = 1;
place = "{704.73, 32.27}";
type = Stem;
},
{
place = "{97.78, 33.55}";
type = Stem;
}
);
layerId = "7107EBA0-69BE-4603-8F48-BAA3372D0529";
paths = (
{
closed = 1;
nodes = (
"131.33 0 LINE",
"131.33 357.75 LINE",
"491.86 357.75 LINE",
"491.86 390.01 LINE",
"131.33 390.01 LINE",
"131.33 704.73 LINE",
"543.64 704.73 LINE",
"543.64 737 LINE",
"97.78 737 LINE",
"97.78 0 LINE"
);
}
);
width = 567;
}
);
leftKerningGroup = B;
note = F;
rightKerningGroup = F;
unicode = 0046;
},
{
glyphname = G;
lastChange = "2019-09-03 16:25:56 +0000";
layers = (
{
hints = (
{
horizontal = 1;
place = "{0, 31.77}";
type = Stem;
},
{
horizontal = 1;
place = "{326.08, 31.78}";
type = Stem;
},
{
horizontal = 1;
place = "{705.21, 31.79}";
type = Stem;
},
{
place = "{82.22, 33.48}";
type = Stem;
},
{
place = "{570.26, 31.04}";
type = Stem;
}
);
layerId = "7107EBA0-69BE-4603-8F48-BAA3372D0529";
paths = (
{
closed = 1;
nodes = (
"467.96 0 LINE",
"570.26 105.15 LINE",
"570.26 0 LINE",
"601.3 0 LINE",
"601.3 357.86 LINE",
"398 357.86 LINE",
"398 326.08 LINE",
"570.26 326.08 LINE",
"570.26 146.94 LINE",
"458.43 31.78 LINE",
"188.04 31.75 LINE",
"115.73 105.11 LINE",
"115.68 631.89 LINE",
"188.04 705.19 LINE",
"487.43 705.22 LINE",
"580.59 611.28 LINE",
"602.07 632.86 LINE",
"498.93 737 LINE",
"175.68 737 LINE",
"82.22 642.54 LINE",
"82.22 94.46 LINE",
"175.34 0 LINE"
);
}
);
width = 696;
}
);
leftKerningGroup = C;
note = G;
rightKerningGroup = G;
unicode = 0047;
},
{
glyphname = Gbreve;
lastChange = "2019-09-03 16:25:56 +0000";
layers = (
{
hints = (
{
horizontal = 1;
place = "{0, 31.77}";
type = Stem;
},
{
horizontal = 1;
place = "{326.08, 31.78}";
type = Stem;
},
{
horizontal = 1;
place = "{705.21, 31.79}";
type = Stem;
},
{
horizontal = 1;
place = "{794.25, 27.22}";
type = Stem;
},
{
place = "{82.22, 33.48}";
type = Stem;
},
{
place = "{226.16, 27.6}";
type = Stem;
},
{
place = "{431.62, 27.6}";
type = Stem;
},
{
place = "{570.26, 31.04}";
type = Stem;
}
);
layerId = "7107EBA0-69BE-4603-8F48-BAA3372D0529";
paths = (
{
closed = 1;
nodes = (
"467.96 0 LINE",
"570.26 105.15 LINE",
"570.26 0 LINE",
"601.3 0 LINE",
"601.3 357.86 LINE",
"398 357.86 LINE",
"398 326.08 LINE",
"570.26 326.08 LINE",
"570.26 146.94 LINE",
"458.43 31.78 LINE",
"188.04 31.75 LINE",
"115.73 105.11 LINE",
"115.68 631.89 LINE",
"188.04 705.19 LINE",
"487.43 705.22 LINE",
"580.59 611.28 LINE",
"602.07 632.86 LINE",
"498.93 737 LINE",
"175.68 737 LINE",
"82.22 642.54 LINE",
"82.22 94.46 LINE",
"175.34 0 LINE"
);
},
{
closed = 1;
nodes = (
"407.51 794.25 LINE",
"459.22 845.94 LINE",
"459.22 913.69 LINE",
"431.62 913.69 LINE",
"431.62 855.03 LINE",
"398.08 821.47 LINE",
"287.3 821.47 LINE",
"253.76 855.03 LINE",
"253.76 913.69 LINE",
"226.16 913.69 LINE",
"226.16 845.94 LINE",
"277.87 794.25 LINE"
);
}
);
width = 696;
}
);
leftKerningGroup = C;
note = Gbreve;
rightKerningGroup = G;
unicode = 011E;
},
{
glyphname = Gcaron;
lastChange = "2019-09-03 16:25:56 +0000";
layers = (
{
hints = (
{
horizontal = 1;
place = "{0, 31.77}";
type = Stem;
},
{
horizontal = 1;
place = "{326.08, 31.78}";
type = Stem;
},
{
horizontal = 1;
place = "{705.21, 31.79}";
type = Stem;
},
{
horizontal = 1;
place = "{794.25, 25.98}";
type = Stem;
},
{
place = "{82.22, 33.48}";
type = Stem;
},
{
place = "{570.26, 31.04}";
type = Stem;
}
);
layerId = "7107EBA0-69BE-4603-8F48-BAA3372D0529";
paths = (
{
closed = 1;
nodes = (
"467.96 0 LINE",
"570.26 105.15 LINE",
"570.26 0 LINE",
"601.3 0 LINE",
"601.3 357.86 LINE",
"398 357.86 LINE",
"398 326.08 LINE",
"570.26 326.08 LINE",
"570.26 146.94 LINE",
"458.43 31.78 LINE",
"188.04 31.75 LINE",
"115.73 105.11 LINE",
"115.68 631.89 LINE",
"188.04 705.19 LINE",
"487.43 705.22 LINE",
"580.59 611.28 LINE",
"602.07 632.86 LINE",
"498.93 737 LINE",
"175.68 737 LINE",
"82.22 642.54 LINE",
"82.22 94.46 LINE",
"175.34 0 LINE"
);
},
{
closed = 1;
nodes = (
"369.33 794.25 LINE",
"473.83 932.36 LINE",
"443.04 932.36 LINE",
"349.47 820.23 LINE",
"333.91 820.23 LINE",
"240.34 932.36 LINE",
"209.55 932.36 LINE",
"314.05 794.25 LINE"
);
}
);
width = 696;
}
);
leftKerningGroup = C;
note = Gcaron;
rightKerningGroup = G;
unicode = 01E6;
},
{
glyphname = Gcircumflex;
lastChange = "2019-09-03 16:25:56 +0000";
layers = (
{
hints = (
{
horizontal = 1;
place = "{0, 31.77}";
type = Stem;
},
{
horizontal = 1;
place = "{326.08, 31.78}";
type = Stem;
},
{
horizontal = 1;
place = "{705.21, 31.79}";
type = Stem;
},
{
horizontal = 1;
place = "{906.37, 25.99}";
type = Stem;
},
{
place = "{82.22, 33.48}";
type = Stem;
},
{
place = "{570.26, 31.04}";
type = Stem;
}
);
layerId = "7107EBA0-69BE-4603-8F48-BAA3372D0529";
paths = (
{
closed = 1;
nodes = (
"467.96 0 LINE",
"570.26 105.15 LINE",
"570.26 0 LINE",
"601.3 0 LINE",
"601.3 357.86 LINE",
"398 357.86 LINE",
"398 326.08 LINE",
"570.26 326.08 LINE",
"570.26 146.94 LINE",
"458.43 31.78 LINE",
"188.04 31.75 LINE",
"115.73 105.11 LINE",
"115.68 631.89 LINE",
"188.04 705.19 LINE",
"487.43 705.22 LINE",
"580.59 611.28 LINE",
"602.07 632.86 LINE",
"498.93 737 LINE",
"175.68 737 LINE",
"82.22 642.54 LINE",
"82.22 94.46 LINE",
"175.34 0 LINE"
);
},
{
closed = 1;
nodes = (
"241.34 794.25 LINE",
"334.91 906.37 LINE",
"350.47 906.37 LINE",
"444.04 794.25 LINE",
"474.83 794.25 LINE",
"370.33 932.36 LINE",
"315.05 932.36 LINE",
"210.55 794.25 LINE"
);
}
);
width = 696;
}
);
leftKerningGroup = C;
note = Gcircumflex;
rightKerningGroup = G;
unicode = 011C;
},
{
glyphname = uni0122;
lastChange = "2019-09-03 16:25:56 +0000";
layers = (
{
hints = (
{
horizontal = 1;
place = "{0, 31.77}";
type = Stem;
},
{
horizontal = 1;
place = "{326.08, 31.78}";
type = Stem;
},
{
horizontal = 1;
place = "{705.21, 31.79}";
type = Stem;
},
{
place = "{82.22, 33.48}";
type = Stem;
},
{
place = "{570.26, 31.04}";
type = Stem;
}
);
layerId = "7107EBA0-69BE-4603-8F48-BAA3372D0529";
paths = (
{
closed = 1;
nodes = (
"467.96 0 LINE",
"570.26 105.15 LINE",
"570.26 0 LINE",
"601.3 0 LINE",
"601.3 357.86 LINE",
"398 357.86 LINE",
"398 326.08 LINE",
"570.26 326.08 LINE",
"570.26 146.94 LINE",
"458.43 31.78 LINE",
"188.04 31.75 LINE",
"115.73 105.11 LINE",
"115.68 631.89 LINE",
"188.04 705.19 LINE",
"487.43 705.22 LINE",
"580.59 611.28 LINE",
"602.07 632.86 LINE",
"498.93 737 LINE",
"175.68 737 LINE",
"82.22 642.54 LINE",
"82.22 94.46 LINE",
"175.34 0 LINE"
);
},
{
closed = 1;
nodes = (
"297.96 -219.31 LINE",
"348.22 -57.25 LINE",
"311.69 -57.25 LINE",
"273.84 -219.31 LINE"
);
}
);
width = 696;
}
);
leftKerningGroup = C;
note = uni0122;
rightKerningGroup = G;
unicode = 0122;
},
{
glyphname = Gdotaccent;
lastChange = "2019-09-03 16:25:56 +0000";
layers = (
{
hints = (
{
horizontal = 1;
place = "{0, 31.77}";
type = Stem;
},
{
horizontal = 1;
place = "{326.08, 31.78}";
type = Stem;
},
{
horizontal = 1;
place = "{705.21, 31.79}";
type = Stem;
},
{
horizontal = 1;
place = "{794.25, 105.82}";
type = Stem;
},
{
place = "{82.22, 33.48}";
type = Stem;
},
{
place = "{326.19, 33}";
type = Stem;
},
{
place = "{570.26, 31.04}";
type = Stem;
}
);
layerId = "7107EBA0-69BE-4603-8F48-BAA3372D0529";
paths = (
{
closed = 1;
nodes = (
"467.96 0 LINE",
"570.26 105.15 LINE",
"570.26 0 LINE",
"601.3 0 LINE",
"601.3 357.86 LINE",
"398 357.86 LINE",
"398 326.08 LINE",
"570.26 326.08 LINE",
"570.26 146.94 LINE",
"458.43 31.78 LINE",
"188.04 31.75 LINE",
"115.73 105.11 LINE",
"115.68 631.89 LINE",
"188.04 705.19 LINE",
"487.43 705.22 LINE",
"580.59 611.28 LINE",
"602.07 632.86 LINE",
"498.93 737 LINE",
"175.68 737 LINE",
"82.22 642.54 LINE",
"82.22 94.46 LINE",
"175.34 0 LINE"
);
},
{
closed = 1;
nodes = (
"359.19 794.25 LINE",
"359.19 900.07 LINE",
"326.19 900.07 LINE",
"326.19 794.25 LINE"
);
}
);
width = 696;
}
);
leftKerningGroup = C;
note = Gdotaccent;
rightKerningGroup = G;
unicode = 0120;
},
{
glyphname = H;
lastChange = "2019-09-03 16:25:56 +0000";
layers = (
{
hints = (
{
horizontal = 1;
place = "{374.12, 31.78}";
type = Stem;
},
{
place = "{97.78, 33.55}";
type = Stem;
},
{
place = "{567.96, 33.55}";
type = Stem;
}
);
layerId = "7107EBA0-69BE-4603-8F48-BAA3372D0529";
paths = (
{
closed = 1;
nodes = (
"131.33 0 LINE",
"131.33 374.12 LINE",
"567.96 374.12 LINE",
"567.96 0 LINE",
"601.51 0 LINE",
"601.51 737 LINE",
"567.96 737 LINE",
"567.96 405.9 LINE",
"131.33 405.9 LINE",
"131.33 737 LINE",
"97.78 737 LINE",
"97.78 0 LINE"
);
}
);
width = 699;
}
);
leftKerningGroup = B;
note = H;
rightKerningGroup = H;
unicode = 0048;
},
{
glyphname = Hbar;
lastChange = "2019-09-03 16:25:56 +0000";
layers = (
{
hints = (
{
horizontal = 1;
place = "{374.12, 31.78}";
type = Stem;
},
{
horizontal = 1;
place = "{567.75, 30.55}";
type = Stem;
},
{
place = "{97.78, 33.55}";
type = Stem;
},
{
place = "{567.96, 33.55}";
type = Stem;
}
);
layerId = "7107EBA0-69BE-4603-8F48-BAA3372D0529";
paths = (
{
closed = 1;
nodes = (
"131.33 0 LINE",
"131.33 374.12 LINE",
"567.96 374.12 LINE",
"567.96 0 LINE",
"601.51 0 LINE",
"601.51 567.75 LINE",
"677.55 567.75 LINE",
"677.55 598.3 LINE",
"601.51 598.3 LINE",
"601.51 737 LINE",
"567.96 737 LINE",
"567.96 598.3 LINE",
"131.33 598.3 LINE",
"131.33 737 LINE",
"97.78 737 LINE",
"97.78 598.3 LINE",
"21.66 598.3 LINE",
"21.66 567.75 LINE",
"97.78 567.75 LINE",
"97.78 0 LINE"
);
},
{
closed = 1;
nodes = (
"131.33 567.75 LINE",
"567.96 567.75 LINE",
"567.96 405.9 LINE",
"131.33 405.9 LINE"
);
}
);
width = 699;
}
);
leftKerningGroup = B;
note = Hbar;
rightKerningGroup = H;
unicode = 0126;
},
{
glyphname = Hcircumflex;
lastChange = "2019-09-03 16:25:56 +0000";
layers = (
{
hints = (
{
horizontal = 1;
place = "{374.12, 31.78}";
type = Stem;
},
{
horizontal = 1;
place = "{906.37, 25.99}";
type = Stem;
},
{
place = "{97.78, 33.55}";
type = Stem;
},
{
place = "{567.96, 33.55}";
type = Stem;
}
);
layerId = "7107EBA0-69BE-4603-8F48-BAA3372D0529";
paths = (
{
closed = 1;
nodes = (
"131.33 0 LINE",
"131.33 374.12 LINE",
"567.96 374.12 LINE",
"567.96 0 LINE",
"601.51 0 LINE",
"601.51 737 LINE",
"567.96 737 LINE",
"567.96 405.9 LINE",
"131.33 405.9 LINE",
"131.33 737 LINE",
"97.78 737 LINE",
"97.78 0 LINE"
);
},
{
closed = 1;
nodes = (
"244.05 794.25 LINE",
"337.62 906.37 LINE",
"353.18 906.37 LINE",
"446.75 794.25 LINE",
"477.54 794.25 LINE",
"373.04 932.36 LINE",
"317.76 932.36 LINE",
"213.26 794.25 LINE"
);
}
);
width = 699;
}
);
leftKerningGroup = B;
note = Hcircumflex;
rightKerningGroup = H;
unicode = 0124;
},
{
glyphname = I;
lastChange = "2019-09-03 16:25:56 +0000";
layers = (
{
hints = (
{
horizontal = 1;
place = "{0, 32.26}";
type = Stem;
},
{
horizontal = 1;
place = "{704.73, 32.27}";
type = Stem;
},
{
place = "{180.3, 33.55}";
type = Stem;
}
);
layerId = "7107EBA0-69BE-4603-8F48-BAA3372D0529";
paths = (
{
closed = 1;
nodes = (
"329.66 0 LINE",
"329.66 32.26 LINE",
"213.85 32.26 LINE",
"213.85 704.73 LINE",
"329.66 704.73 LINE",
"329.66 737 LINE",
"64.44 737 LINE",
"64.44 704.73 LINE",
"180.3 704.73 LINE",
"180.3 32.26 LINE",
"64.44 32.26 LINE",
"64.44 0 LINE"
);
}
);
width = 394;
}
);
leftKerningGroup = B;
note = I;
rightKerningGroup = H;
unicode = 0049;
},
{
glyphname = Iacute;
lastChange = "2019-09-03 16:25:56 +0000";
layers = (
{
hints = (
{
horizontal = 1;
place = "{0, 32.26}";
type = Stem;
},
{
horizontal = 1;
place = "{704.73, 32.27}";
type = Stem;
},
{
horizontal = 1;
place = "{794.25, 140.22}";
type = Stem;
},
{
place = "{180.3, 33.55}";
type = Stem;
}
);
layerId = "7107EBA0-69BE-4603-8F48-BAA3372D0529";
paths = (
{
closed = 1;
nodes = (
"329.66 0 LINE",
"329.66 32.26 LINE",
"213.85 32.26 LINE",
"213.85 704.73 LINE",
"329.66 704.73 LINE",
"329.66 737 LINE",
"64.44 737 LINE",
"64.44 704.73 LINE",
"180.3 704.73 LINE",
"180.3 32.26 LINE",
"64.44 32.26 LINE",
"64.44 0 LINE"
);
},
{
closed = 1;
nodes = (
"213.66 794.25 LINE",
"313.18 934.47 LINE",
"270.44 934.47 LINE",
"183.87 794.25 LINE"
);
}
);
width = 394;
}
);
leftKerningGroup = B;
note = Iacute;
rightKerningGroup = H;
unicode = 00CD;
},
{
glyphname = Ibreve;
lastChange = "2019-09-03 16:25:56 +0000";
layers = (
{
hints = (
{
horizontal = 1;
place = "{0, 32.26}";
type = Stem;
},
{
horizontal = 1;
place = "{704.73, 32.27}";
type = Stem;
},
{
horizontal = 1;
place = "{794.25, 27.22}";
type = Stem;
},
{
place = "{80.53, 27.59}";
type = Stem;
},
{
place = "{180.3, 33.55}";
type = Stem;
},
{
place = "{285.98, 27.6}";
type = Stem;
}
);
layerId = "7107EBA0-69BE-4603-8F48-BAA3372D0529";
paths = (
{
closed = 1;
nodes = (
"329.66 0 LINE",
"329.66 32.26 LINE",
"213.85 32.26 LINE",
"213.85 704.73 LINE",
"329.66 704.73 LINE",
"329.66 737 LINE",
"64.44 737 LINE",
"64.44 704.73 LINE",
"180.3 704.73 LINE",
"180.3 32.26 LINE",
"64.44 32.26 LINE",
"64.44 0 LINE"
);
},
{
closed = 1;
nodes = (
"261.87 794.25 LINE",
"313.58 845.94 LINE",
"313.58 913.69 LINE",
"285.98 913.69 LINE",
"285.98 855.03 LINE",
"252.44 821.47 LINE",
"141.66 821.47 LINE",
"108.12 855.03 LINE",
"108.12 913.69 LINE",
"80.53 913.69 LINE",
"80.53 845.94 LINE",
"132.23 794.25 LINE"
);
}
);
width = 394;
}
);
leftKerningGroup = B;
note = Ibreve;
rightKerningGroup = H;
unicode = 012C;
},
{
glyphname = Icircumflex;
lastChange = "2019-09-03 16:25:56 +0000";
layers = (
{
hints = (
{
horizontal = 1;
place = "{0, 32.26}";
type = Stem;
},
{
horizontal = 1;
place = "{704.73, 32.27}";
type = Stem;
},
{
horizontal = 1;
place = "{906.37, 25.99}";
type = Stem;
},
{
place = "{180.3, 33.55}";
type = Stem;
}
);
layerId = "7107EBA0-69BE-4603-8F48-BAA3372D0529";
paths = (
{
closed = 1;
nodes = (
"329.66 0 LINE",
"329.66 32.26 LINE",
"213.85 32.26 LINE",
"213.85 704.73 LINE",
"329.66 704.73 LINE",
"329.66 737 LINE",
"64.44 737 LINE",
"64.44 704.73 LINE",
"180.3 704.73 LINE",
"180.3 32.26 LINE",
"64.44 32.26 LINE",
"64.44 0 LINE"
);
},
{
closed = 1;
nodes = (
"95.71 794.25 LINE",
"189.28 906.37 LINE",
"204.83 906.37 LINE",
"298.4 794.25 LINE",
"329.19 794.25 LINE",
"224.69 932.36 LINE",
"169.41 932.36 LINE",
"64.91 794.25 LINE"
);
}
);
width = 394;
}
);
leftKerningGroup = B;
note = Icircumflex;
rightKerningGroup = H;
unicode = 00CE;
},
{
glyphname = uni0208;
lastChange = "2019-09-03 16:25:56 +0000";
layers = (
{
hints = (
{
horizontal = 1;
place = "{0, 32.26}";
type = Stem;
},
{
horizontal = 1;
place = "{704.73, 32.27}";
type = Stem;
},
{
horizontal = 1;
place = "{794.25, 140.22}";
type = Stem;
},
{
place = "{180.3, 33.55}";
type = Stem;
}
);
layerId = "7107EBA0-69BE-4603-8F48-BAA3372D0529";
paths = (
{
closed = 1;
nodes = (
"329.66 0 LINE",
"329.66 32.26 LINE",
"213.85 32.26 LINE",
"213.85 704.73 LINE",
"329.66 704.73 LINE",
"329.66 737 LINE",
"64.44 737 LINE",
"64.44 704.73 LINE",
"180.3 704.73 LINE",
"180.3 32.26 LINE",
"64.44 32.26 LINE",
"64.44 0 LINE"
);
},
{
closed = 1;
nodes = (
"152.72 794.25 LINE",
"66.14 934.47 LINE",
"24.62 934.47 LINE",
"124.14 794.25 LINE"
);
},
{
closed = 1;
nodes = (
"272.01 794.25 LINE",
"185.43 934.47 LINE",
"143.91 934.47 LINE",
"243.43 794.25 LINE"
);
}
);
width = 394;
}
);
leftKerningGroup = B;
note = uni0208;
rightKerningGroup = H;
unicode = 0208;
},
{
glyphname = Idieresis;
lastChange = "2019-09-03 16:25:56 +0000";
layers = (
{
hints = (
{
horizontal = 1;
place = "{0, 32.26}";
type = Stem;
},
{
horizontal = 1;
place = "{704.73, 32.27}";
type = Stem;
},
{
horizontal = 1;
place = "{794.25, 105.94}";
type = Stem;
},
{
place = "{47.5, 33}";
type = Stem;
},
{
place = "{180.3, 33.55}";
type = Stem;
},
{
place = "{313.61, 33}";
type = Stem;
}
);
layerId = "7107EBA0-69BE-4603-8F48-BAA3372D0529";
paths = (
{
closed = 1;
nodes = (
"329.66 0 LINE",
"329.66 32.26 LINE",
"213.85 32.26 LINE",
"213.85 704.73 LINE",
"329.66 704.73 LINE",
"329.66 737 LINE",
"64.44 737 LINE",
"64.44 704.73 LINE",
"180.3 704.73 LINE",
"180.3 32.26 LINE",
"64.44 32.26 LINE",
"64.44 0 LINE"
);
},
{
closed = 1;
nodes = (
"80.5 794.25 LINE",
"80.5 900.19 LINE",
"47.5 900.19 LINE",
"47.5 794.25 LINE"
);
},
{
closed = 1;
nodes = (
"346.61 794.25 LINE",
"346.61 900.19 LINE",
"313.61 900.19 LINE",
"313.61 794.25 LINE"
);
}
);
width = 394;
}
);
leftKerningGroup = B;
note = Idieresis;
rightKerningGroup = H;
unicode = 00CF;
},
{
glyphname = Idotaccent;
lastChange = "2019-09-03 16:25:56 +0000";
layers = (
{
hints = (
{
horizontal = 1;
place = "{0, 32.26}";
type = Stem;
},
{
horizontal = 1;
place = "{704.73, 32.27}";
type = Stem;
},
{
horizontal = 1;
place = "{794.25, 105.82}";
type = Stem;
},
{
place = "{180.3, 33.55}";
type = Stem;
}
);
layerId = "7107EBA0-69BE-4603-8F48-BAA3372D0529";
paths = (
{
closed = 1;
nodes = (
"329.66 0 LINE",
"329.66 32.26 LINE",
"213.85 32.26 LINE",
"213.85 704.73 LINE",
"329.66 704.73 LINE",
"329.66 737 LINE",
"64.44 737 LINE",
"64.44 704.73 LINE",
"180.3 704.73 LINE",
"180.3 32.26 LINE",
"64.44 32.26 LINE",
"64.44 0 LINE"
);
},
{
closed = 1;
nodes = (
"213.55 794.25 LINE",
"213.55 900.07 LINE",
"180.55 900.07 LINE",
"180.55 794.25 LINE"
);
}
);
width = 394;
}
);
leftKerningGroup = B;
note = Idotaccent;
rightKerningGroup = H;
unicode = 0130;
},
{
glyphname = uni1ECA;
lastChange = "2019-09-03 16:25:56 +0000";
layers = (
{
hints = (
{
horizontal = 1;
place = "{-163.07, 105.82}";
type = Stem;
},
{
horizontal = 1;
place = "{0, 32.26}";
type = Stem;
},
{
horizontal = 1;
place = "{704.73, 32.27}";
type = Stem;
},
{
place = "{180.3, 33.55}";
type = Stem;
}
);
layerId = "7107EBA0-69BE-4603-8F48-BAA3372D0529";
paths = (
{
closed = 1;
nodes = (
"329.66 0 LINE",
"329.66 32.26 LINE",
"213.85 32.26 LINE",
"213.85 704.73 LINE",
"329.66 704.73 LINE",
"329.66 737 LINE",
"64.44 737 LINE",
"64.44 704.73 LINE",
"180.3 704.73 LINE",
"180.3 32.26 LINE",
"64.44 32.26 LINE",
"64.44 0 LINE"
);
},
{
closed = 1;
nodes = (
"213.55 -163.07 LINE",
"213.55 -57.25 LINE",
"180.55 -57.25 LINE",
"180.55 -163.07 LINE"
);
}
);
width = 394;
}
);
leftKerningGroup = B;
note = uni1ECA;
rightKerningGroup = H;
unicode = 1ECA;
},
{
glyphname = Igrave;
lastChange = "2019-09-03 16:25:56 +0000";
layers = (
{
hints = (
{
horizontal = 1;
place = "{0, 32.26}";
type = Stem;
},
{
horizontal = 1;
place = "{704.73, 32.27}";
type = Stem;
},
{
horizontal = 1;
place = "{794.25, 140.22}";
type = Stem;
},
{
place = "{180.3, 33.55}";
type = Stem;
}
);
layerId = "7107EBA0-69BE-4603-8F48-BAA3372D0529";
paths = (
{
closed = 1;
nodes = (
"329.66 0 LINE",
"329.66 32.26 LINE",
"213.85 32.26 LINE",
"213.85 704.73 LINE",
"329.66 704.73 LINE",
"329.66 737 LINE",
"64.44 737 LINE",
"64.44 704.73 LINE",
"180.3 704.73 LINE",
"180.3 32.26 LINE",
"64.44 32.26 LINE",
"64.44 0 LINE"
);
},
{
closed = 1;
nodes = (
"209.28 794.25 LINE",
"122.71 934.47 LINE",
"79.97 934.47 LINE",
"179.48 794.25 LINE"
);
}
);
width = 394;
}
);
leftKerningGroup = B;
note = Igrave;
rightKerningGroup = H;
unicode = 00CC;
},
{
glyphname = uni1EC8;
lastChange = "2019-09-03 16:25:56 +0000";
layers = (
{
hints = (
{
horizontal = 1;
place = "{0, 32.26}";
type = Stem;
},
{
horizontal = 1;
place = "{704.73, 32.27}";
type = Stem;
},
{
horizontal = 1;
place = "{794.25, 40.34}";
type = Stem;
},
{
horizontal = 1;
place = "{958.55, 27.11}";
type = Stem;
},
{
place = "{180.3, 33.55}";
type = Stem;
},
{
place = "{252.55, 28.82}";
type = Stem;
},
{
place = "{185.36, 27.93}";
type = Stem;
}
);
layerId = "7107EBA0-69BE-4603-8F48-BAA3372D0529";
paths = (
{
closed = 1;
nodes = (
"329.66 0 LINE",
"329.66 32.26 LINE",
"213.85 32.26 LINE",
"213.85 704.73 LINE",
"329.66 704.73 LINE",
"329.66 737 LINE",
"64.44 737 LINE",
"64.44 704.73 LINE",
"180.3 704.73 LINE",
"180.3 32.26 LINE",
"64.44 32.26 LINE",
"64.44 0 LINE"
);
},
{
closed = 1;
nodes = (
"213.29 794.25 LINE",
"213.29 823.59 LINE",
"281.37 888.64 LINE",
"281.37 950.23 LINE",
"247.29 985.66 LINE",
"168.9 985.66 LINE",
"129.79 944.19 LINE",
"149.9 924.93 LINE",
"181.69 958.55 LINE",
"234.65 958.55 LINE",
"252.55 939.76 LINE",
"252.55 899.37 LINE",
"185.36 834.59 LINE",
"185.36 794.25 LINE"
);
}
);
width = 394;
}
);
leftKerningGroup = B;
note = uni1EC8;
rightKerningGroup = H;
unicode = 1EC8;
},
{
glyphname = uni020A;
lastChange = "2019-09-03 16:25:56 +0000";
layers = (
{
hints = (
{
horizontal = 1;
place = "{0, 32.26}";
type = Stem;
},
{
horizontal = 1;
place = "{704.73, 32.27}";
type = Stem;
},
{
horizontal = 1;
place = "{886.46, 27.23}";
type = Stem;
},
{
place = "{80.53, 27.59}";
type = Stem;
},
{
place = "{180.3, 33.55}";
type = Stem;
},
{
place = "{285.98, 27.6}";
type = Stem;
}
);
layerId = "7107EBA0-69BE-4603-8F48-BAA3372D0529";
paths = (
{
closed = 1;
nodes = (
"329.66 0 LINE",
"329.66 32.26 LINE",
"213.85 32.26 LINE",
"213.85 704.73 LINE",
"329.66 704.73 LINE",
"329.66 737 LINE",
"64.44 737 LINE",
"64.44 704.73 LINE",
"180.3 704.73 LINE",
"180.3 32.26 LINE",
"64.44 32.26 LINE",
"64.44 0 LINE"
);
},
{
closed = 1;
nodes = (
"108.12 794.25 LINE",
"108.12 852.91 LINE",
"141.66 886.46 LINE",
"252.44 886.46 LINE",
"285.98 852.91 LINE",
"285.98 794.25 LINE",
"313.58 794.25 LINE",
"313.58 861.98 LINE",
"261.87 913.69 LINE",
"132.23 913.69 LINE",
"80.53 861.98 LINE",
"80.53 794.25 LINE"
);
}
);
width = 394;
}
);
leftKerningGroup = B;
note = uni020A;
rightKerningGroup = H;
unicode = 020A;
},
{
glyphname = Imacron;
lastChange = "2019-09-03 16:25:56 +0000";
layers = (
{
hints = (
{
horizontal = 1;
place = "{0, 32.26}";
type = Stem;
},
{
horizontal = 1;
place = "{704.73, 32.27}";
type = Stem;
},
{
horizontal = 1;
place = "{794.25, 28.57}";
type = Stem;
},
{
place = "{180.3, 33.55}";
type = Stem;
}
);
layerId = "7107EBA0-69BE-4603-8F48-BAA3372D0529";
paths = (
{
closed = 1;
nodes = (
"329.66 0 LINE",
"329.66 32.26 LINE",
"213.85 32.26 LINE",
"213.85 704.73 LINE",
"329.66 704.73 LINE",
"329.66 737 LINE",
"64.44 737 LINE",
"64.44 704.73 LINE",
"180.3 704.73 LINE",
"180.3 32.26 LINE",
"64.44 32.26 LINE",
"64.44 0 LINE"
);
},
{
closed = 1;
nodes = (
"346.61 794.25 LINE",
"346.61 822.82 LINE",
"47.5 822.82 LINE",
"47.5 794.25 LINE"
);
}
);
width = 394;
}
);
leftKerningGroup = B;
note = Imacron;
rightKerningGroup = H;
unicode = 012A;
},
{
glyphname = Iogonek;
lastChange = "2019-09-03 16:25:56 +0000";
layers = (
{
hints = (
{
horizontal = 1;
place = "{-142.29, 28.59}";
type = Stem;
},
{
horizontal = 1;
place = "{0, 32.26}";
type = Stem;
},
{
horizontal = 1;
place = "{704.73, 32.27}";
type = Stem;
},
{
place = "{180.3, 33.55}";
type = Stem;
},
{
place = "{247.91, 27.99}";
type = Stem;
}
);
layerId = "7107EBA0-69BE-4603-8F48-BAA3372D0529";
paths = (
{
closed = 1;
nodes = (
"329.66 -142.29 LINE",
"329.66 -113.7 LINE",
"306.57 -113.7 LINE",
"275.9 -83.03 LINE",
"275.9 -42.17 LINE",
"329.66 0 LINE",
"329.66 32.26 LINE",
"213.85 32.26 LINE",
"213.85 704.73 LINE",
"329.66 704.73 LINE",
"329.66 737 LINE",
"64.44 737 LINE",
"64.44 704.73 LINE",
"180.3 704.73 LINE",
"180.3 32.26 LINE",
"64.44 32.26 LINE",
"64.44 0 LINE",
"290.04 0 LINE",
"247.91 -33 LINE",
"247.91 -93.09 LINE",
"297.01 -142.29 LINE"
);
}
);
width = 394;
}
);
leftKerningGroup = B;
note = Iogonek;
rightKerningGroup = H;
unicode = 012E;
},
{
glyphname = Itilde;
lastChange = "2019-09-03 16:25:56 +0000";
layers = (
{
hints = (
{
horizontal = 1;
place = "{0, 32.26}";
type = Stem;
},
{
horizontal = 1;
place = "{704.73, 32.27}";
type = Stem;
},
{
horizontal = 1;
place = "{794.25, 26.98}";
type = Stem;
},
{
horizontal = 1;
place = "{870.03, 26.98}";
type = Stem;
},
{
place = "{48.41, 22.43}";
type = Stem;
},
{
place = "{180.3, 33.55}";
type = Stem;
},
{
place = "{322.98, 22.43}";
type = Stem;
}
);
layerId = "7107EBA0-69BE-4603-8F48-BAA3372D0529";
paths = (
{
closed = 1;
nodes = (
"329.66 0 LINE",
"329.66 32.26 LINE",
"213.85 32.26 LINE",
"213.85 704.73 LINE",
"329.66 704.73 LINE",
"329.66 737 LINE",
"64.44 737 LINE",
"64.44 704.73 LINE",
"180.3 704.73 LINE",
"180.3 32.26 LINE",
"64.44 32.26 LINE",
"64.44 0 LINE"
);
},
{
closed = 1;
nodes = (
"294.47 794.25 LINE",
"344.91 845.69 LINE",
"345.91 896.64 LINE",
"324.43 896.64 LINE",
"321.54 857.48 LINE",
"282.41 821.23 LINE",
"246.76 821.23 LINE",
"171.51 897.01 LINE",
"99.36 897.01 LINE",
"48.91 845.55 LINE",
"47.91 794.61 LINE",
"69.4 794.61 LINE",
"72.29 833.65 LINE",
"111.41 870.03 LINE",
"158.84 870.03 LINE",
"233.98 794.25 LINE"
);
}
);
width = 394;
}
);
leftKerningGroup = B;
note = Itilde;
rightKerningGroup = H;
unicode = 0128;
},
{
glyphname = J;
lastChange = "2019-09-03 16:25:56 +0000";
layers = (
{
hints = (
{
horizontal = 1;
place = "{0, 31.77}";
type = Stem;
},
{
place = "{66.66, 33.5}";
type = Stem;
},
{
place = "{427.47, 33.47}";
type = Stem;
}
);
layerId = "7107EBA0-69BE-4603-8F48-BAA3372D0529";
paths = (
{
closed = 1;
nodes = (
"367.5 0 LINE",
"460.94 94.46 LINE",
"460.94 737 LINE",
"427.46 737 LINE",
"427.48 105.11 LINE",
"355.12 31.79 LINE",
"172.48 31.75 LINE",
"100.18 105.11 LINE",
"100.15 261.94 LINE",
"66.66 261.94 LINE",
"66.66 94.46 LINE",
"160.11 0 LINE"
);
}
);
width = 559;
}
);
leftKerningGroup = J;
note = J;
unicode = 004A;
},
{
glyphname = Jcircumflex;
lastChange = "2019-09-03 16:25:56 +0000";
layers = (
{
hints = (
{
horizontal = 1;
place = "{0, 31.77}";
type = Stem;
},
{
horizontal = 1;
place = "{906.37, 25.99}";
type = Stem;
},
{
place = "{66.66, 33.5}";
type = Stem;
},
{
place = "{427.47, 33.47}";
type = Stem;
}
);
layerId = "7107EBA0-69BE-4603-8F48-BAA3372D0529";
paths = (
{
closed = 1;
nodes = (
"367.5 0 LINE",
"460.94 94.46 LINE",
"460.94 737 LINE",
"427.46 737 LINE",
"427.48 105.11 LINE",
"355.12 31.79 LINE",
"172.48 31.75 LINE",
"100.18 105.11 LINE",
"100.15 261.94 LINE",
"66.66 261.94 LINE",
"66.66 94.46 LINE",
"160.11 0 LINE"
);
},
{
closed = 1;
nodes = (
"342.86 794.25 LINE",
"436.43 906.37 LINE",
"451.98 906.37 LINE",
"545.55 794.25 LINE",
"576.34 794.25 LINE",
"471.84 932.36 LINE",
"416.57 932.36 LINE",
"312.07 794.25 LINE"
);
}
);
width = 559;
}
);
note = Jcircumflex;
unicode = 0134;
},
{
glyphname = K;
lastChange = "2019-09-03 16:25:56 +0000";
layers = (
{
hints = (
{
horizontal = 1;
place = "{0, 737}";
type = Stem;
},
{
place = "{97.78, 33.55}";
type = Stem;
}
);
layerId = "7107EBA0-69BE-4603-8F48-BAA3372D0529";
paths = (
{
closed = 1;
nodes = (
"131.33 0 LINE",
"131.33 252.26 LINE",
"260.43 396.06 LINE",
"541.58 0 LINE",
"580.22 0 LINE",
"282.44 420.57 LINE",
"566.55 737 LINE",
"525.73 737 LINE",
"133.96 302.36 LINE",
"131.33 302.36 LINE",
"131.33 737 LINE",
"97.78 737 LINE",
"97.78 0 LINE"
);
}
);
width = 616;
}
);
leftKerningGroup = B;
note = K;
rightKerningGroup = K;
unicode = 004B;
},
{
glyphname = uni0136;
lastChange = "2019-09-03 16:25:56 +0000";
layers = (
{
hints = (
{
horizontal = 1;
place = "{-219.31, 956.31}";
type = Stem;
},
{
place = "{97.78, 33.55}";
type = Stem;
}
);
layerId = "7107EBA0-69BE-4603-8F48-BAA3372D0529";
paths = (
{
closed = 1;
nodes = (
"131.33 0 LINE",
"131.33 252.26 LINE",
"260.43 396.06 LINE",
"541.58 0 LINE",
"580.22 0 LINE",
"282.44 420.57 LINE",
"566.55 737 LINE",
"525.73 737 LINE",
"133.96 302.36 LINE",
"131.33 302.36 LINE",
"131.33 737 LINE",
"97.78 737 LINE",
"97.78 0 LINE"
);
},
{
closed = 1;
nodes = (
"290.72 -219.31 LINE",
"340.98 -57.25 LINE",
"304.46 -57.25 LINE",
"266.61 -219.31 LINE"
);
}
);
width = 616;
}
);
leftKerningGroup = B;
note = uni0136;
rightKerningGroup = K;
unicode = 0136;
},
{
glyphname = L;
lastChange = "2019-09-03 16:25:56 +0000";
layers = (
{
hints = (
{
horizontal = 1;
place = "{0, 32.26}";
type = Stem;
},
{
place = "{97.78, 33.55}";
type = Stem;
}
);
layerId = "7107EBA0-69BE-4603-8F48-BAA3372D0529";
paths = (
{
closed = 1;
nodes = (
"528.64 0 LINE",
"528.64 32.26 LINE",
"131.33 32.26 LINE",
"131.33 737 LINE",
"97.78 737 LINE",
"97.78 0 LINE"
);
}
);
width = 539;
}
);
leftKerningGroup = B;
note = L;
rightKerningGroup = L;
unicode = 004C;
},
{
glyphname = uni01C7;
lastChange = "2019-09-03 16:25:56 +0000";
layers = (
{
hints = (
{
horizontal = 1;
place = "{0, 32.26}";
type = Stem;
},
{
place = "{97.78, 33.55}";
type = Stem;
},
{
place = "{615.36, 33.49}";
type = Stem;
},
{
place = "{976.16, 33.48}";
type = Stem;
}
);
layerId = "7107EBA0-69BE-4603-8F48-BAA3372D0529";
paths = (
{
closed = 1;
nodes = (
"528.64 0 LINE",
"528.64 32.26 LINE",
"131.33 32.26 LINE",
"131.33 737 LINE",
"97.78 737 LINE",
"97.78 0 LINE"
);
},
{
closed = 1;
nodes = (
"916.19 0 LINE",
"1009.64 94.46 LINE",
"1009.64 737 LINE",
"976.15 737 LINE",
"976.18 105.11 LINE",
"903.82 31.79 LINE",
"721.18 31.75 LINE",
"648.87 105.11 LINE",
"648.84 261.94 LINE",
"615.36 261.94 LINE",
"615.36 94.46 LINE",
"708.8 0 LINE"
);
}
);
width = 1107;
}
);
leftKerningGroup = B;
note = uni01C7;
unicode = 01C7;
},
{
glyphname = Lacute;
lastChange = "2019-09-03 16:25:56 +0000";
layers = (
{
hints = (
{
horizontal = 1;
place = "{0, 32.26}";
type = Stem;
},
{
horizontal = 1;
place = "{794.25, 140.22}";
type = Stem;
},
{
place = "{97.78, 33.55}";
type = Stem;
}
);
layerId = "7107EBA0-69BE-4603-8F48-BAA3372D0529";
paths = (
{
closed = 1;
nodes = (
"528.64 0 LINE",
"528.64 32.26 LINE",
"131.33 32.26 LINE",
"131.33 737 LINE",
"97.78 737 LINE",
"97.78 0 LINE"
);
},
{
closed = 1;
nodes = (
"131.12 794.25 LINE",
"230.64 934.47 LINE",
"187.9 934.47 LINE",
"101.33 794.25 LINE"
);
}
);
width = 539;
}
);
leftKerningGroup = B;
note = Lacute;
rightKerningGroup = L;
unicode = 0139;
},
{
glyphname = Lcaron;
lastChange = "2019-09-03 16:25:56 +0000";
layers = (
{
hints = (
{
horizontal = 1;
place = "{0, 32.26}";
type = Stem;
},
{
horizontal = 1;
place = "{574.94, 162.06}";
type = Stem;
},
{
place = "{97.78, 33.55}";
type = Stem;
}
);
layerId = "7107EBA0-69BE-4603-8F48-BAA3372D0529";
paths = (
{
closed = 1;
nodes = (
"528.64 0 LINE",
"528.64 32.26 LINE",
"131.33 32.26 LINE",
"131.33 737 LINE",
"97.78 737 LINE",
"97.78 0 LINE"
);
},
{
closed = 1;
nodes = (
"335.5 574.94 LINE",
"385.76 737 LINE",
"349.23 737 LINE",
"311.39 574.94 LINE"
);
}
);
width = 539;
}
);
leftKerningGroup = B;
note = Lcaron;
rightKerningGroup = L;
unicode = 013D;
},
{
glyphname = uni013B;
lastChange = "2019-09-03 16:25:56 +0000";
layers = (
{
hints = (
{
horizontal = 1;
place = "{0, 32.26}";
type = Stem;
},
{
place = "{97.78, 33.55}";
type = Stem;
}
);
layerId = "7107EBA0-69BE-4603-8F48-BAA3372D0529";
paths = (
{
closed = 1;
nodes = (
"528.64 0 LINE",
"528.64 32.26 LINE",
"131.33 32.26 LINE",
"131.33 737 LINE",
"97.78 737 LINE",
"97.78 0 LINE"
);
},
{
closed = 1;
nodes = (
"280.94 -219.31 LINE",
"331.21 -57.25 LINE",
"294.68 -57.25 LINE",
"256.83 -219.31 LINE"
);
}
);
width = 539;
}
);
leftKerningGroup = B;
note = uni013B;
rightKerningGroup = L;
unicode = 013B;
},
{
glyphname = Ldot;
lastChange = "2019-09-03 16:25:56 +0000";
layers = (
{
hints = (
{
horizontal = 1;
place = "{0, 32.26}";
type = Stem;
},
{
horizontal = 1;
place = "{330.99, 105.82}";
type = Stem;
},
{
place = "{97.78, 33.55}";
type = Stem;
},
{
place = "{326.34, 33}";
type = Stem;
}
);
layerId = "7107EBA0-69BE-4603-8F48-BAA3372D0529";
paths = (
{
closed = 1;
nodes = (
"528.64 0 LINE",
"528.64 32.26 LINE",
"131.33 32.26 LINE",
"131.33 737 LINE",
"97.78 737 LINE",
"97.78 0 LINE"
);
},
{
closed = 1;
nodes = (
"359.34 330.99 LINE",
"359.34 436.81 LINE",
"326.34 436.81 LINE",
"326.34 330.99 LINE"
);
}
);
width = 539;
}
);
leftKerningGroup = B;
note = Ldot;
rightKerningGroup = L;
unicode = 013F;
},
{
glyphname = uni01C8;
lastChange = "2019-09-03 16:25:56 +0000";
layers = (
{
hints = (
{
horizontal = 1;
place = "{-187, 30.55}";
type = Stem;
},
{
horizontal = 1;
place = "{0, 32.26}";
type = Stem;
},
{
horizontal = 1;
place = "{579.75, 105.82}";
type = Stem;
},
{
place = "{97.78, 33.55}";
type = Stem;
},
{
place = "{642.33, 33}";
type = Stem;
}
);
layerId = "7107EBA0-69BE-4603-8F48-BAA3372D0529";
paths = (
{
closed = 1;
nodes = (
"528.64 0 LINE",
"528.64 32.26 LINE",
"131.33 32.26 LINE",
"131.33 737 LINE",
"97.78 737 LINE",
"97.78 0 LINE"
);
},
{
closed = 1;
nodes = (
"597.53 -187 LINE",
"675.33 -108.56 LINE",
"675.33 522.5 LINE",
"642.33 522.5 LINE",
"642.33 -97.91 LINE",
"584.91 -156.45 LINE",
"477.94 -156.45 LINE",
"477.94 -187 LINE"
);
},
{
closed = 1;
nodes = (
"675.33 579.75 LINE",
"675.33 685.57 LINE",
"642.33 685.57 LINE",
"642.33 579.75 LINE"
);
}
);
width = 768;
}
);
leftKerningGroup = B;
note = uni01C8;
rightKerningGroup = uni01C8;
unicode = 01C8;
},
{
glyphname = Lslash;
lastChange = "2019-09-03 16:25:56 +0000";
layers = (
{
hints = (
{
horizontal = 1;
place = "{0, 32.26}";
type = Stem;
},
{
place = "{97.78, 33.55}";
type = Stem;
}
);
layerId = "7107EBA0-69BE-4603-8F48-BAA3372D0529";
paths = (
{
closed = 1;
nodes = (
"528.64 0 LINE",
"528.64 32.26 LINE",
"131.33 32.26 LINE",
"131.33 364.43 LINE",
"340.75 456.15 LINE",
"340.75 490.53 LINE",
"131.33 398.8 LINE",
"131.33 737 LINE",
"97.78 737 LINE",
"97.78 384.11 LINE",
"28.33 353.69 LINE",
"28.33 319.32 LINE",
"97.78 349.73 LINE",
"97.78 0 LINE"
);
}
);
width = 539;
}
);
leftKerningGroup = B;
note = Lslash;
rightKerningGroup = L;
unicode = 0141;
},
{
glyphname = M;
lastChange = "2019-09-03 16:25:56 +0000";
layers = (
{
hints = (
{
horizontal = 1;
place = "{692.75, 44.25}";
type = Stem;
},
{
place = "{97.78, 33.55}";
type = Stem;
},
{
place = "{735.09, 33.55}";
type = Stem;
}
);
layerId = "7107EBA0-69BE-4603-8F48-BAA3372D0529";
paths = (
{
closed = 1;
nodes = (
"131.33 0 LINE",
"131.33 692.75 LINE",
"148.93 692.75 LINE",
"423.37 0 LINE",
"442.98 0 LINE",
"717.43 692.75 LINE",
"735.09 692.75 LINE",
"735.09 0 LINE",
"768.64 0 LINE",
"768.64 737 LINE",
"702.09 737 LINE",
"433.07 56.82 LINE",
"164.04 737 LINE",
"97.78 737 LINE",
"97.78 0 LINE"
);
}
);
width = 866;
}
);
leftKerningGroup = B;
note = M;
rightKerningGroup = H;
unicode = 004D;
},
{
glyphname = N;
lastChange = "2019-09-03 16:25:56 +0000";
layers = (
{
hints = (
{
horizontal = 1;
place = "{0, 44.25}";
type = Stem;
},
{
horizontal = 1;
place = "{692.75, 44.25}";
type = Stem;
},
{
place = "{97.78, 33.55}";
type = Stem;
},
{
place = "{551.9, 33.55}";
type = Stem;
}
);
layerId = "7107EBA0-69BE-4603-8F48-BAA3372D0529";
paths = (
{
closed = 1;
nodes = (
"131.33 0 LINE",
"131.33 692.75 LINE",
"151.5 692.75 LINE",
"523.34 0 LINE",
"585.45 0 LINE",
"585.45 737 LINE",
"551.9 737 LINE",
"551.9 44.25 LINE",
"534.34 44.25 LINE",
"162.5 737 LINE",
"97.78 737 LINE",
"97.78 0 LINE"
);
}
);
width = 683;
}
);
leftKerningGroup = B;
note = N;
rightKerningGroup = H;
unicode = 004E;
},
{
glyphname = uni01CA;
lastChange = "2019-09-03 16:25:56 +0000";
layers = (
{
hints = (
{
horizontal = 1;
place = "{0, 44.25}";
type = Stem;
},
{
horizontal = 1;
place = "{692.75, 44.25}";
type = Stem;
},
{
place = "{97.78, 33.55}";
type = Stem;
},
{
place = "{551.9, 33.55}";
type = Stem;
},
{
place = "{773.29, 33.5}";
type = Stem;
},
{
place = "{1134.09, 33.48}";
type = Stem;
},
{
horizontal = 1;
place = "{0, 31.77}";
type = Stem;
}
);
layerId = "7107EBA0-69BE-4603-8F48-BAA3372D0529";
paths = (
{
closed = 1;
nodes = (
"131.33 0 LINE",
"131.33 692.75 LINE",
"151.5 692.75 LINE",
"523.34 0 LINE",
"585.45 0 LINE",
"585.45 737 LINE",
"551.9 737 LINE",
"551.9 44.25 LINE",
"534.34 44.25 LINE",
"162.5 737 LINE",
"97.78 737 LINE",
"97.78 0 LINE"
);
},
{
closed = 1;
nodes = (
"1074.12 0 LINE",
"1167.57 94.46 LINE",
"1167.57 737 LINE",
"1134.08 737 LINE",
"1134.11 105.11 LINE",
"1061.75 31.79 LINE",
"879.11 31.75 LINE",
"806.8 105.11 LINE",
"806.78 261.94 LINE",
"773.29 261.94 LINE",
"773.29 94.46 LINE",
"866.73 0 LINE"
);
}
);
width = 1265;
}
);
leftKerningGroup = B;
note = uni01CA;
unicode = 01CA;
},
{
glyphname = Nacute;
lastChange = "2019-09-03 16:25:56 +0000";
layers = (
{
hints = (
{
horizontal = 1;
place = "{0, 44.25}";
type = Stem;
},
{
horizontal = 1;
place = "{692.75, 44.25}";
type = Stem;
},
{
horizontal = 1;
place = "{794.25, 140.22}";
type = Stem;
},
{
place = "{97.78, 33.55}";
type = Stem;
},
{
place = "{551.9, 33.55}";
type = Stem;
}
);
layerId = "7107EBA0-69BE-4603-8F48-BAA3372D0529";
paths = (
{
closed = 1;
nodes = (
"131.33 0 LINE",
"131.33 692.75 LINE",
"151.5 692.75 LINE",
"523.34 0 LINE",
"585.45 0 LINE",
"585.45 737 LINE",
"551.9 737 LINE",
"551.9 44.25 LINE",
"534.34 44.25 LINE",
"162.5 737 LINE",
"97.78 737 LINE",
"97.78 0 LINE"
);
},
{
closed = 1;
nodes = (
"374.14 794.25 LINE",
"473.65 934.47 LINE",
"430.91 934.47 LINE",
"344.34 794.25 LINE"
);
}
);
width = 683;
}
);
leftKerningGroup = B;
note = Nacute;
rightKerningGroup = H;
unicode = 0143;
},
{
glyphname = Ncaron;
lastChange = "2019-09-03 16:25:56 +0000";
layers = (
{
hints = (
{
horizontal = 1;
place = "{0, 44.25}";
type = Stem;
},
{
horizontal = 1;
place = "{692.75, 44.25}";
type = Stem;
},
{
horizontal = 1;
place = "{794.25, 25.98}";
type = Stem;
},
{
place = "{97.78, 33.55}";
type = Stem;
},
{
place = "{551.9, 33.55}";
type = Stem;
}
);
layerId = "7107EBA0-69BE-4603-8F48-BAA3372D0529";
paths = (
{
closed = 1;
nodes = (
"131.32 0 LINE",
"131.32 692.75 LINE",
"151.49 692.75 LINE",
"523.33 0 LINE",
"585.44 0 LINE",
"585.44 737 LINE",
"551.89 737 LINE",
"551.89 44.25 LINE",
"534.33 44.25 LINE",
"162.49 737 LINE",
"97.77 737 LINE",
"97.77 0 LINE"
);
},
{
closed = 1;
nodes = (
"384.16 794.25 LINE",
"488.66 932.36 LINE",
"457.87 932.36 LINE",
"364.3 820.23 LINE",
"348.75 820.23 LINE",
"255.18 932.36 LINE",
"224.39 932.36 LINE",
"328.89 794.25 LINE"
);
}
);
width = 683;
}
);
leftKerningGroup = B;
note = Ncaron;
rightKerningGroup = H;
unicode = 0147;
},
{
glyphname = uni0145;
lastChange = "2019-09-03 16:25:56 +0000";
layers = (
{
hints = (
{
horizontal = 1;
place = "{0, 44.25}";
type = Stem;
},
{
horizontal = 1;
place = "{692.75, 44.25}";
type = Stem;
},
{
place = "{97.78, 33.55}";
type = Stem;
},
{
place = "{551.9, 33.55}";
type = Stem;
}
);
layerId = "7107EBA0-69BE-4603-8F48-BAA3372D0529";
paths = (
{
closed = 1;
nodes = (
"131.33 0 LINE",
"131.33 692.75 LINE",
"151.5 692.75 LINE",
"523.34 0 LINE",
"585.45 0 LINE",
"585.45 737 LINE",
"551.9 737 LINE",
"551.9 44.25 LINE",
"534.34 44.25 LINE",
"162.5 737 LINE",
"97.78 737 LINE",
"97.78 0 LINE"
);
},
{
closed = 1;
nodes = (
"311.78 -219.31 LINE",
"362.04 -57.25 LINE",
"325.51 -57.25 LINE",
"287.66 -219.31 LINE"
);
}
);
width = 683;
}
);
leftKerningGroup = B;
note = uni0145;
rightKerningGroup = H;
unicode = 0145;
},
{
glyphname = Eng;
lastChange = "2019-09-03 16:25:56 +0000";
layers = (
{
hints = (
{
horizontal = 1;
place = "{-187, 30.5}";
type = Stem;
},
{
horizontal = 1;
place = "{0, 44.25}";
type = Stem;
},
{
horizontal = 1;
place = "{692.75, 44.25}";
type = Stem;
},
{
place = "{97.8, 33.55}";
type = Stem;
},
{
place = "{552, 33.5}";
type = Stem;
}
);
layerId = "7107EBA0-69BE-4603-8F48-BAA3372D0529";
paths = (
{
closed = 1;
nodes = (
"511.75 -187 LINE",
"585.5 -108.5 LINE",
"585.5 737 LINE",
"552 737 LINE",
"552 44.25 LINE",
"534.25 44.25 LINE",
"162.5 737 LINE",
"97.8 737 LINE",
"97.8 0 LINE",
"131.35 0 LINE",
"131.35 692.75 LINE",
"151.5 692.75 LINE",
"523.25 0 LINE",
"552 0 LINE",
"552 -96 LINE",
"495.87 -156.5 LINE",
"390 -156.5 LINE",
"390 -187 LINE"
);
}
);
width = 683;
}
);
leftKerningGroup = B;
note = Eng;
rightKerningGroup = H;
unicode = 014A;
},
{
glyphname = uni01CB;
lastChange = "2019-09-03 16:25:56 +0000";
layers = (
{
hints = (
{
horizontal = 1;
place = "{-187, 30.55}";
type = Stem;
},
{
horizontal = 1;
place = "{0, 44.25}";
type = Stem;
},
{
horizontal = 1;
place = "{692.75, 44.25}";
type = Stem;
},
{
place = "{97.78, 33.55}";
type = Stem;
},
{
place = "{551.9, 33.55}";
type = Stem;
},
{
place = "{800.71, 33}";
type = Stem;
},
{
horizontal = 1;
place = "{579.75, 105.82}";
type = Stem;
}
);
layerId = "7107EBA0-69BE-4603-8F48-BAA3372D0529";
paths = (
{
closed = 1;
nodes = (
"131.33 0 LINE",
"131.33 692.75 LINE",
"151.5 692.75 LINE",
"523.34 0 LINE",
"585.45 0 LINE",
"585.45 737 LINE",
"551.9 737 LINE",
"551.9 44.25 LINE",
"534.34 44.25 LINE",
"162.5 737 LINE",
"97.78 737 LINE",
"97.78 0 LINE"
);
},
{
closed = 1;
nodes = (
"755.9 -187 LINE",
"833.71 -108.56 LINE",
"833.71 522.5 LINE",
"800.71 522.5 LINE",
"800.71 -97.91 LINE",
"743.29 -156.45 LINE",
"636.32 -156.45 LINE",
"636.32 -187 LINE"
);
},
{
closed = 1;
nodes = (
"833.71 579.75 LINE",
"833.71 685.57 LINE",
"800.71 685.57 LINE",
"800.71 579.75 LINE"
);
}
);
width = 926;
}
);
leftKerningGroup = B;
note = uni01CB;
rightKerningGroup = uni01C8;
unicode = 01CB;
},
{
glyphname = Ntilde;
lastChange = "2019-09-03 16:25:56 +0000";
layers = (
{
hints = (
{
horizontal = 1;
place = "{0, 44.25}";
type = Stem;
},
{
horizontal = 1;
place = "{692.75, 44.25}";
type = Stem;
},
{
horizontal = 1;
place = "{794.25, 26.98}";
type = Stem;
},
{
horizontal = 1;
place = "{870.03, 26.98}";
type = Stem;
},
{
place = "{97.78, 33.55}";
type = Stem;
},
{
place = "{208.89, 22.42}";
type = Stem;
},
{
place = "{483.45, 22.44}";
type = Stem;
},
{
place = "{551.9, 33.55}";
type = Stem;
}
);
layerId = "7107EBA0-69BE-4603-8F48-BAA3372D0529";
paths = (
{
closed = 1;
nodes = (
"131.33 0 LINE",
"131.33 692.75 LINE",
"151.5 692.75 LINE",
"523.34 0 LINE",
"585.45 0 LINE",
"585.45 737 LINE",
"551.9 737 LINE",
"551.9 44.25 LINE",
"534.34 44.25 LINE",
"162.5 737 LINE",
"97.78 737 LINE",
"97.78 0 LINE"
);
},
{
closed = 1;
nodes = (
"454.94 794.25 LINE",
"505.39 845.69 LINE",
"506.39 896.64 LINE",
"484.9 896.64 LINE",
"482.01 857.48 LINE",
"442.89 821.23 LINE",
"407.23 821.23 LINE",
"331.98 897.01 LINE",
"259.83 897.01 LINE",
"209.39 845.55 LINE",
"208.39 794.61 LINE",
"229.87 794.61 LINE",
"232.76 833.65 LINE",
"271.89 870.03 LINE",
"319.32 870.03 LINE",
"394.46 794.25 LINE"
);
}
);
width = 683;
}
);
leftKerningGroup = B;
note = Ntilde;
rightKerningGroup = H;
unicode = 00D1;
},
{
glyphname = O;
lastChange = "2019-09-03 16:25:56 +0000";
layers = (
{
hints = (
{
horizontal = 1;
place = "{0, 31.78}";
type = Stem;
},
{
horizontal = 1;
place = "{705.21, 31.79}";
type = Stem;
},
{
place = "{82.22, 33.48}";
type = Stem;
},
{
place = "{563.28, 33.5}";
type = Stem;
}
);
layerId = "7107EBA0-69BE-4603-8F48-BAA3372D0529";
paths = (
{
closed = 1;
nodes = (
"503.32 0 LINE",
"596.78 94.46 LINE",
"596.78 642.54 LINE",
"503.32 737 LINE",
"175.68 737 LINE",
"82.22 642.54 LINE",
"82.22 94.46 LINE",
"175.68 0 LINE"
);
},
{
closed = 1;
nodes = (
"115.73 105.11 LINE",
"115.68 631.89 LINE",
"188.04 705.19 LINE",
"490.94 705.23 LINE",
"563.26 631.89 LINE",
"563.3 105.12 LINE",
"490.96 31.8 LINE",
"188.05 31.76 LINE"
);
}
);
width = 679;
}
);
leftKerningGroup = C;
note = O;
rightKerningGroup = O;
unicode = 004F;
},
{
glyphname = Oacute;
lastChange = "2019-09-03 16:25:56 +0000";
layers = (
{
hints = (
{
horizontal = 1;
place = "{0, 31.78}";
type = Stem;
},
{
horizontal = 1;
place = "{705.21, 31.79}";
type = Stem;
},
{
horizontal = 1;
place = "{794.25, 140.22}";
type = Stem;
},
{
place = "{82.22, 33.48}";
type = Stem;
},
{
place = "{563.28, 33.5}";
type = Stem;
}
);
layerId = "7107EBA0-69BE-4603-8F48-BAA3372D0529";
paths = (
{
closed = 1;
nodes = (
"503.32 0 LINE",
"596.78 94.46 LINE",
"596.78 642.54 LINE",
"503.32 737 LINE",
"175.68 737 LINE",
"82.22 642.54 LINE",
"82.22 94.46 LINE",
"175.68 0 LINE"
);
},
{
closed = 1;
nodes = (
"115.73 105.11 LINE",
"115.68 631.89 LINE",
"188.04 705.19 LINE",
"490.94 705.23 LINE",
"563.26 631.89 LINE",
"563.3 105.12 LINE",
"490.96 31.8 LINE",
"188.05 31.76 LINE"
);
},
{
closed = 1;
nodes = (
"356.11 794.25 LINE",
"455.62 934.47 LINE",
"412.89 934.47 LINE",
"326.32 794.25 LINE"
);
}
);
width = 679;
}
);
leftKerningGroup = C;
note = Oacute;
rightKerningGroup = O;
unicode = 00D3;
},
{
glyphname = Obreve;
lastChange = "2019-09-03 16:25:56 +0000";
layers = (
{
hints = (
{
horizontal = 1;
place = "{0, 31.78}";
type = Stem;
},
{
horizontal = 1;
place = "{705.21, 31.79}";
type = Stem;
},
{
horizontal = 1;
place = "{794.25, 27.22}";
type = Stem;
},
{
place = "{82.22, 33.48}";
type = Stem;
},
{
place = "{222.97, 27.6}";
type = Stem;
},
{
place = "{428.43, 27.6}";
type = Stem;
},
{
place = "{563.28, 33.5}";
type = Stem;
}
);
layerId = "7107EBA0-69BE-4603-8F48-BAA3372D0529";
paths = (
{
closed = 1;
nodes = (
"503.32 0 LINE",
"596.78 94.46 LINE",
"596.78 642.54 LINE",
"503.32 737 LINE",
"175.68 737 LINE",
"82.22 642.54 LINE",
"82.22 94.46 LINE",
"175.68 0 LINE"
);
},
{
closed = 1;
nodes = (
"115.73 105.11 LINE",
"115.68 631.89 LINE",
"188.04 705.19 LINE",
"490.94 705.23 LINE",
"563.26 631.89 LINE",
"563.3 105.12 LINE",
"490.96 31.8 LINE",
"188.05 31.76 LINE"
);
},
{
closed = 1;
nodes = (
"404.32 794.25 LINE",
"456.03 845.94 LINE",
"456.03 913.69 LINE",
"428.43 913.69 LINE",
"428.43 855.03 LINE",
"394.89 821.47 LINE",
"284.11 821.47 LINE",
"250.57 855.03 LINE",
"250.57 913.69 LINE",
"222.97 913.69 LINE",
"222.97 845.94 LINE",
"274.68 794.25 LINE"
);
}
);
width = 679;
}
);
leftKerningGroup = C;
note = Obreve;
rightKerningGroup = O;
unicode = 014E;
},
{
glyphname = Ocircumflex;
lastChange = "2019-09-03 16:25:56 +0000";
layers = (
{
hints = (
{
horizontal = 1;
place = "{0, 31.78}";
type = Stem;
},
{
horizontal = 1;
place = "{705.21, 31.79}";
type = Stem;
},
{
horizontal = 1;
place = "{906.37, 25.99}";
type = Stem;
},
{
place = "{82.22, 33.48}";
type = Stem;
},
{
place = "{563.28, 33.5}";
type = Stem;
}
);
layerId = "7107EBA0-69BE-4603-8F48-BAA3372D0529";
paths = (
{
closed = 1;
nodes = (
"503.32 0 LINE",
"596.78 94.46 LINE",
"596.78 642.54 LINE",
"503.32 737 LINE",
"175.68 737 LINE",
"82.22 642.54 LINE",
"82.22 94.46 LINE",
"175.68 0 LINE"
);
},
{
closed = 1;
nodes = (
"115.73 105.11 LINE",
"115.68 631.89 LINE",
"188.04 705.19 LINE",
"490.94 705.23 LINE",
"563.26 631.89 LINE",
"563.3 105.12 LINE",
"490.96 31.8 LINE",
"188.05 31.76 LINE"
);
},
{
closed = 1;
nodes = (
"238.15 794.25 LINE",
"331.72 906.37 LINE",
"347.28 906.37 LINE",
"440.84 794.25 LINE",
"471.64 794.25 LINE",
"367.14 932.36 LINE",
"311.86 932.36 LINE",
"207.36 794.25 LINE"
);
}
);
width = 679;
}
);
leftKerningGroup = C;
note = Ocircumflex;
rightKerningGroup = O;
unicode = 00D4;
},
{
glyphname = uni1ED0;
lastChange = "2019-09-03 16:25:56 +0000";
layers = (
{
hints = (
{
horizontal = 1;
place = "{0, 31.78}";
type = Stem;
},
{
horizontal = 1;
place = "{705.21, 31.79}";
type = Stem;
},
{
horizontal = 1;
place = "{861.64, 140.22}";
type = Stem;
},
{
place = "{82.22, 33.48}";
type = Stem;
},
{
place = "{563.28, 33.5}";
type = Stem;
},
{
horizontal = 1;
place = "{906.37, 25.99}";
type = Stem;
}
);
layerId = "7107EBA0-69BE-4603-8F48-BAA3372D0529";
paths = (
{
closed = 1;
nodes = (
"503.32 0 LINE",
"596.78 94.46 LINE",
"596.78 642.54 LINE",
"503.32 737 LINE",
"175.68 737 LINE",
"82.22 642.54 LINE",
"82.22 94.46 LINE",
"175.68 0 LINE"
);
},
{
closed = 1;
nodes = (
"115.73 105.11 LINE",
"115.68 631.89 LINE",
"188.04 705.19 LINE",
"490.94 705.23 LINE",
"563.26 631.89 LINE",
"563.3 105.12 LINE",
"490.96 31.8 LINE",
"188.05 31.76 LINE"
);
},
{
closed = 1;
nodes = (
"238.15 794.25 LINE",
"331.72 906.37 LINE",
"347.28 906.37 LINE",
"440.84 794.25 LINE",
"471.64 794.25 LINE",
"367.14 932.36 LINE",
"311.86 932.36 LINE",
"207.36 794.25 LINE"
);
},
{
closed = 1;
nodes = (
"498.5 861.64 LINE",
"598.01 1001.86 LINE",
"555.28 1001.86 LINE",
"468.71 861.64 LINE"
);
}
);
width = 679;
}
);
leftKerningGroup = C;
note = uni1ED0;
rightKerningGroup = O;
unicode = 1ED0;
},
{
glyphname = uni1ED8;
lastChange = "2019-09-03 16:25:56 +0000";
layers = (
{
hints = (
{
horizontal = 1;
place = "{-163.07, 105.82}";
type = Stem;
},
{
horizontal = 1;
place = "{0, 31.78}";
type = Stem;
},
{
horizontal = 1;
place = "{705.21, 31.79}";
type = Stem;
},
{
horizontal = 1;
place = "{906.37, 25.99}";
type = Stem;
},
{
place = "{82.22, 33.48}";
type = Stem;
},
{
place = "{323, 33}";
type = Stem;
},
{
place = "{563.28, 33.5}";
type = Stem;
}
);
layerId = "7107EBA0-69BE-4603-8F48-BAA3372D0529";
paths = (
{
closed = 1;
nodes = (
"503.32 0 LINE",
"596.78 94.46 LINE",
"596.78 642.54 LINE",
"503.32 737 LINE",
"175.68 737 LINE",
"82.22 642.54 LINE",
"82.22 94.46 LINE",
"175.68 0 LINE"
);
},
{
closed = 1;
nodes = (
"356 -163.07 LINE",
"356 -57.25 LINE",
"323 -57.25 LINE",
"323 -163.07 LINE"
);
},
{
closed = 1;
nodes = (
"115.73 105.11 LINE",
"115.68 631.89 LINE",
"188.04 705.19 LINE",
"490.94 705.23 LINE",
"563.26 631.89 LINE",
"563.3 105.12 LINE",
"490.96 31.8 LINE",
"188.05 31.76 LINE"
);
},
{
closed = 1;
nodes = (
"238.15 794.25 LINE",
"331.72 906.37 LINE",
"347.28 906.37 LINE",
"440.84 794.25 LINE",
"471.64 794.25 LINE",
"367.14 932.36 LINE",
"311.86 932.36 LINE",
"207.36 794.25 LINE"
);
}
);
width = 679;
}
);
leftKerningGroup = C;
note = uni1ED8;
rightKerningGroup = O;
unicode = 1ED8;
},
{
glyphname = uni1ED2;
lastChange = "2019-09-03 16:25:56 +0000";
layers = (
{
hints = (
{
horizontal = 1;
place = "{0, 31.78}";
type = Stem;
},
{
horizontal = 1;
place = "{705.21, 31.79}";
type = Stem;
},
{
horizontal = 1;
place = "{861.64, 140.22}";
type = Stem;
},
{
place = "{82.22, 33.48}";
type = Stem;
},
{
place = "{563.28, 33.5}";
type = Stem;
},
{
horizontal = 1;
place = "{906.37, 25.99}";
type = Stem;
}
);
layerId = "7107EBA0-69BE-4603-8F48-BAA3372D0529";
paths = (
{
closed = 1;
nodes = (
"503.32 0 LINE",
"596.78 94.46 LINE",
"596.78 642.54 LINE",
"503.32 737 LINE",
"175.68 737 LINE",
"82.22 642.54 LINE",
"82.22 94.46 LINE",
"175.68 0 LINE"
);
},
{
closed = 1;
nodes = (
"115.73 105.11 LINE",
"115.68 631.89 LINE",
"188.04 705.19 LINE",
"490.94 705.23 LINE",
"563.26 631.89 LINE",
"563.3 105.12 LINE",
"490.96 31.8 LINE",
"188.05 31.76 LINE"
);
},
{
closed = 1;
nodes = (
"220.4 861.64 LINE",
"133.83 1001.86 LINE",
"91.09 1001.86 LINE",
"190.61 861.64 LINE"
);
},
{
closed = 1;
nodes = (
"238.15 794.25 LINE",
"331.72 906.37 LINE",
"347.28 906.37 LINE",
"440.84 794.25 LINE",
"471.64 794.25 LINE",
"367.14 932.36 LINE",
"311.86 932.36 LINE",
"207.36 794.25 LINE"
);
}
);
width = 679;
}
);
leftKerningGroup = C;
note = uni1ED2;
rightKerningGroup = O;
unicode = 1ED2;
},
{
glyphname = uni1ED4;
lastChange = "2019-09-03 16:25:56 +0000";
layers = (
{
hints = (
{
horizontal = 1;
place = "{0, 31.78}";
type = Stem;
},
{
horizontal = 1;
place = "{705.21, 31.79}";
type = Stem;
},
{
horizontal = 1;
place = "{861.64, 40.34}";
type = Stem;
},
{
horizontal = 1;
place = "{1025.94, 27.11}";
type = Stem;
},
{
place = "{82.22, 33.48}";
type = Stem;
},
{
place = "{455.41, 27.93}";
type = Stem;
},
{
place = "{522.61, 28.82}";
type = Stem;
},
{
place = "{563.28, 33.5}";
type = Stem;
},
{
horizontal = 1;
place = "{906.37, 25.99}";
type = Stem;
}
);
layerId = "7107EBA0-69BE-4603-8F48-BAA3372D0529";
paths = (
{
closed = 1;
nodes = (
"503.32 0 LINE",
"596.78 94.46 LINE",
"596.78 642.54 LINE",
"503.32 737 LINE",
"175.68 737 LINE",
"82.22 642.54 LINE",
"82.22 94.46 LINE",
"175.68 0 LINE"
);
},
{
closed = 1;
nodes = (
"115.73 105.11 LINE",
"115.68 631.89 LINE",
"188.04 705.19 LINE",
"490.94 705.23 LINE",
"563.26 631.89 LINE",
"563.3 105.12 LINE",
"490.96 31.8 LINE",
"188.05 31.76 LINE"
);
},
{
closed = 1;
nodes = (
"238.15 794.25 LINE",
"331.72 906.37 LINE",
"347.28 906.37 LINE",
"440.84 794.25 LINE",
"471.64 794.25 LINE",
"367.14 932.36 LINE",
"311.86 932.36 LINE",
"207.36 794.25 LINE"
);
},
{
closed = 1;
nodes = (
"483.34 861.64 LINE",
"483.34 890.98 LINE",
"551.43 956.03 LINE",
"551.43 1017.62 LINE",
"517.34 1053.05 LINE",
"438.96 1053.05 LINE",
"399.84 1011.58 LINE",
"419.96 992.32 LINE",
"451.75 1025.94 LINE",
"504.71 1025.94 LINE",
"522.61 1007.15 LINE",
"522.61 966.76 LINE",
"455.41 901.98 LINE",
"455.41 861.64 LINE"
);
}
);
width = 679;
}
);
leftKerningGroup = C;
note = uni1ED4;
rightKerningGroup = O;
unicode = 1ED4;
},
{
glyphname = uni1ED6;
lastChange = "2019-09-03 16:25:56 +0000";
layers = (
{
hints = (
{
horizontal = 1;
place = "{0, 31.78}";
type = Stem;
},
{
horizontal = 1;
place = "{705.21, 31.79}";
type = Stem;
},
{
horizontal = 1;
place = "{954.43, 26.98}";
type = Stem;
},
{
horizontal = 1;
place = "{1030.21, 26.98}";
type = Stem;
},
{
place = "{82.22, 33.48}";
type = Stem;
},
{
place = "{199, 22.42}";
type = Stem;
},
{
place = "{473.56, 22.44}";
type = Stem;
},
{
place = "{563.28, 33.5}";
type = Stem;
},
{
horizontal = 1;
place = "{906.37, 25.99}";
type = Stem;
}
);
layerId = "7107EBA0-69BE-4603-8F48-BAA3372D0529";
paths = (
{
closed = 1;
nodes = (
"503.32 0 LINE",
"596.78 94.46 LINE",
"596.78 642.54 LINE",
"503.32 737 LINE",
"175.68 737 LINE",
"82.22 642.54 LINE",
"82.22 94.46 LINE",
"175.68 0 LINE"
);
},
{
closed = 1;
nodes = (
"115.73 105.11 LINE",
"115.68 631.89 LINE",
"188.04 705.19 LINE",
"490.94 705.23 LINE",
"563.26 631.89 LINE",
"563.3 105.12 LINE",
"490.96 31.8 LINE",
"188.05 31.76 LINE"
);
},
{
closed = 1;
nodes = (
"238.15 794.25 LINE",
"331.72 906.37 LINE",
"347.28 906.37 LINE",
"440.84 794.25 LINE",
"471.64 794.25 LINE",
"367.14 932.36 LINE",
"311.86 932.36 LINE",
"207.36 794.25 LINE"
);
},
{
closed = 1;
nodes = (
"445.05 954.43 LINE",
"495.5 1005.87 LINE",
"496.5 1056.82 LINE",
"475.01 1056.82 LINE",
"472.12 1017.66 LINE",
"433 981.41 LINE",
"397.34 981.41 LINE",
"322.09 1057.19 LINE",
"249.94 1057.19 LINE",
"199.5 1005.73 LINE",
"198.5 954.79 LINE",
"219.98 954.79 LINE",
"222.87 993.83 LINE",
"262 1030.21 LINE",
"309.43 1030.21 LINE",
"384.57 954.43 LINE"
);
}
);
width = 679;
}
);
leftKerningGroup = C;
note = uni1ED6;
rightKerningGroup = O;
unicode = 1ED6;
},
{
glyphname = uni020C;
lastChange = "2019-09-03 16:25:56 +0000";
layers = (
{
hints = (
{
horizontal = 1;
place = "{0, 31.78}";
type = Stem;
},
{
horizontal = 1;
place = "{705.21, 31.79}";
type = Stem;
},
{
horizontal = 1;
place = "{794.25, 140.22}";
type = Stem;
},
{
place = "{82.22, 33.48}";
type = Stem;
},
{
place = "{563.28, 33.5}";
type = Stem;
}
);
layerId = "7107EBA0-69BE-4603-8F48-BAA3372D0529";
paths = (
{
closed = 1;
nodes = (
"503.32 0 LINE",
"596.78 94.46 LINE",
"596.78 642.54 LINE",
"503.32 737 LINE",
"175.68 737 LINE",
"82.22 642.54 LINE",
"82.22 94.46 LINE",
"175.68 0 LINE"
);
},
{
closed = 1;
nodes = (
"115.73 105.11 LINE",
"115.68 631.89 LINE",
"188.04 705.19 LINE",
"490.94 705.23 LINE",
"563.26 631.89 LINE",
"563.3 105.12 LINE",
"490.96 31.8 LINE",
"188.05 31.76 LINE"
);
},
{
closed = 1;
nodes = (
"295.16 794.25 LINE",
"208.58 934.47 LINE",
"167.07 934.47 LINE",
"266.58 794.25 LINE"
);
},
{
closed = 1;
nodes = (
"414.46 794.25 LINE",
"327.87 934.47 LINE",
"286.36 934.47 LINE",
"385.87 794.25 LINE"
);
}
);
width = 679;
}
);
leftKerningGroup = C;
note = uni020C;
rightKerningGroup = O;
unicode = 020C;
},
{
glyphname = Odieresis;
lastChange = "2019-09-03 16:25:56 +0000";
layers = (
{
hints = (
{
horizontal = 1;
place = "{0, 31.78}";
type = Stem;
},
{
horizontal = 1;
place = "{705.21, 31.79}";
type = Stem;
},
{
horizontal = 1;
place = "{794.25, 105.94}";
type = Stem;
},
{
place = "{82.22, 33.48}";
type = Stem;
},
{
place = "{189.94, 33}";
type = Stem;
},
{
place = "{456.05, 33}";
type = Stem;
},
{
place = "{563.28, 33.5}";
type = Stem;
}
);
layerId = "7107EBA0-69BE-4603-8F48-BAA3372D0529";
paths = (
{
closed = 1;
nodes = (
"503.32 0 LINE",
"596.78 94.46 LINE",
"596.78 642.54 LINE",
"503.32 737 LINE",
"175.68 737 LINE",
"82.22 642.54 LINE",
"82.22 94.46 LINE",
"175.68 0 LINE"
);
},
{
closed = 1;
nodes = (
"115.73 105.11 LINE",
"115.68 631.89 LINE",
"188.04 705.19 LINE",
"490.94 705.23 LINE",
"563.26 631.89 LINE",
"563.3 105.12 LINE",
"490.96 31.8 LINE",
"188.05 31.76 LINE"
);
},
{
closed = 1;
nodes = (
"222.94 794.25 LINE",
"222.94 900.19 LINE",
"189.94 900.19 LINE",
"189.94 794.25 LINE"
);
},
{
closed = 1;
nodes = (
"489.05 794.25 LINE",
"489.05 900.19 LINE",
"456.05 900.19 LINE",
"456.05 794.25 LINE"
);
}
);
width = 679;
}
);
leftKerningGroup = C;
note = Odieresis;
rightKerningGroup = O;
unicode = 00D6;
},
{
glyphname = uni022A;
lastChange = "2019-09-03 16:25:56 +0000";
layers = (
{
hints = (
{
horizontal = 1;
place = "{0, 31.78}";
type = Stem;
},
{
horizontal = 1;
place = "{705.21, 31.79}";
type = Stem;
},
{
horizontal = 1;
place = "{794.25, 105.94}";
type = Stem;
},
{
horizontal = 1;
place = "{935.39, 28.57}";
type = Stem;
},
{
place = "{82.22, 33.48}";
type = Stem;
},
{
place = "{189.94, 33}";
type = Stem;
},
{
place = "{456.05, 33}";
type = Stem;
},
{
place = "{563.28, 33.5}";
type = Stem;
}
);
layerId = "7107EBA0-69BE-4603-8F48-BAA3372D0529";
paths = (
{
closed = 1;
nodes = (
"503.32 0 LINE",
"596.78 94.46 LINE",
"596.78 642.54 LINE",
"503.32 737 LINE",
"175.68 737 LINE",
"82.22 642.54 LINE",
"82.22 94.46 LINE",
"175.68 0 LINE"
);
},
{
closed = 1;
nodes = (
"115.73 105.11 LINE",
"115.68 631.89 LINE",
"188.04 705.19 LINE",
"490.94 705.23 LINE",
"563.26 631.89 LINE",
"563.3 105.12 LINE",
"490.96 31.8 LINE",
"188.05 31.76 LINE"
);
},
{
closed = 1;
nodes = (
"222.94 794.25 LINE",
"222.94 900.19 LINE",
"189.94 900.19 LINE",
"189.94 794.25 LINE"
);
},
{
closed = 1;
nodes = (
"489.05 935.39 LINE",
"489.05 963.96 LINE",
"189.94 963.96 LINE",
"189.94 935.39 LINE"
);
},
{
closed = 1;
nodes = (
"489.05 794.25 LINE",
"489.05 900.19 LINE",
"456.05 900.19 LINE",
"456.05 794.25 LINE"
);
}
);
width = 679;
}
);
leftKerningGroup = C;
note = uni022A;
rightKerningGroup = O;
unicode = 022A;
},
{
glyphname = uni0230;
lastChange = "2019-09-03 16:25:56 +0000";
layers = (
{
hints = (
{
horizontal = 1;
place = "{0, 31.78}";
type = Stem;
},
{
horizontal = 1;
place = "{705.21, 31.79}";
type = Stem;
},
{
horizontal = 1;
place = "{794.25, 105.82}";
type = Stem;
},
{
horizontal = 1;
place = "{935.36, 28.57}";
type = Stem;
},
{
place = "{82.22, 33.48}";
type = Stem;
},
{
place = "{323, 33}";
type = Stem;
},
{
place = "{563.28, 33.5}";
type = Stem;
}
);
layerId = "7107EBA0-69BE-4603-8F48-BAA3372D0529";
paths = (
{
closed = 1;
nodes = (
"503.32 0 LINE",
"596.78 94.46 LINE",
"596.78 642.54 LINE",
"503.32 737 LINE",
"175.68 737 LINE",
"82.22 642.54 LINE",
"82.22 94.46 LINE",
"175.68 0 LINE"
);
},
{
closed = 1;
nodes = (
"115.73 105.11 LINE",
"115.68 631.89 LINE",
"188.04 705.19 LINE",
"490.94 705.23 LINE",
"563.26 631.89 LINE",
"563.3 105.12 LINE",
"490.96 31.8 LINE",
"188.05 31.76 LINE"
);
},
{
closed = 1;
nodes = (
"356 794.25 LINE",
"356 900.07 LINE",
"323 900.07 LINE",
"323 794.25 LINE"
);
},
{
closed = 1;
nodes = (
"489.05 935.36 LINE",
"489.05 963.93 LINE",
"189.94 963.93 LINE",
"189.94 935.36 LINE"
);
}
);
width = 679;
}
);
leftKerningGroup = C;
note = uni0230;
rightKerningGroup = O;
unicode = 0230;
},
{
glyphname = uni1ECC;
lastChange = "2019-09-03 16:25:56 +0000";
layers = (
{
hints = (
{
horizontal = 1;
place = "{-163.07, 105.82}";
type = Stem;
},
{
horizontal = 1;
place = "{0, 31.78}";
type = Stem;
},
{
horizontal = 1;
place = "{705.21, 31.79}";
type = Stem;
},
{
place = "{82.22, 33.48}";
type = Stem;
},
{
place = "{323, 33}";
type = Stem;
},
{
place = "{563.28, 33.5}";
type = Stem;
}
);
layerId = "7107EBA0-69BE-4603-8F48-BAA3372D0529";
paths = (
{
closed = 1;
nodes = (
"503.32 0 LINE",
"596.78 94.46 LINE",
"596.78 642.54 LINE",
"503.32 737 LINE",
"175.68 737 LINE",
"82.22 642.54 LINE",
"82.22 94.46 LINE",
"175.68 0 LINE"
);
},
{
closed = 1;
nodes = (
"356 -163.07 LINE",
"356 -57.25 LINE",
"323 -57.25 LINE",
"323 -163.07 LINE"
);
},
{
closed = 1;
nodes = (
"115.73 105.11 LINE",
"115.68 631.89 LINE",
"188.04 705.19 LINE",
"490.94 705.23 LINE",
"563.26 631.89 LINE",
"563.3 105.12 LINE",
"490.96 31.8 LINE",
"188.05 31.76 LINE"
);
}
);
width = 679;
}
);
leftKerningGroup = C;
note = uni1ECC;
rightKerningGroup = O;
unicode = 1ECC;
},
{
glyphname = Ograve;
lastChange = "2019-09-03 16:25:56 +0000";
layers = (
{
hints = (
{
horizontal = 1;
place = "{0, 31.78}";
type = Stem;
},
{
horizontal = 1;
place = "{705.21, 31.79}";
type = Stem;
},
{
horizontal = 1;
place = "{794.25, 140.22}";
type = Stem;
},
{
place = "{82.22, 33.48}";
type = Stem;
},
{
place = "{563.28, 33.5}";
type = Stem;
}
);
layerId = "7107EBA0-69BE-4603-8F48-BAA3372D0529";
paths = (
{
closed = 1;
nodes = (
"503.32 0 LINE",
"596.78 94.46 LINE",
"596.78 642.54 LINE",
"503.32 737 LINE",
"175.68 737 LINE",
"82.22 642.54 LINE",
"82.22 94.46 LINE",
"175.68 0 LINE"
);
},
{
closed = 1;
nodes = (
"115.73 105.11 LINE",
"115.68 631.89 LINE",
"188.04 705.19 LINE",
"490.94 705.23 LINE",
"563.26 631.89 LINE",
"563.3 105.12 LINE",
"490.96 31.8 LINE",
"188.05 31.76 LINE"
);
},
{
closed = 1;
nodes = (
"351.72 794.25 LINE",
"265.15 934.47 LINE",
"222.41 934.47 LINE",
"321.93 794.25 LINE"
);
}
);
width = 679;
}
);
leftKerningGroup = C;
note = Ograve;
rightKerningGroup = O;
unicode = 00D2;
},
{
glyphname = uni1ECE;
lastChange = "2019-09-03 16:25:56 +0000";
layers = (
{
hints = (
{
horizontal = 1;
place = "{0, 31.78}";
type = Stem;
},
{
horizontal = 1;
place = "{705.21, 31.79}";
type = Stem;
},
{
horizontal = 1;
place = "{794.25, 40.34}";
type = Stem;
},
{
horizontal = 1;
place = "{958.55, 27.11}";
type = Stem;
},
{
place = "{82.22, 33.48}";
type = Stem;
},
{
place = "{327.8, 27.93}";
type = Stem;
},
{
place = "{395, 28.82}";
type = Stem;
},
{
place = "{563.28, 33.5}";
type = Stem;
}
);
layerId = "7107EBA0-69BE-4603-8F48-BAA3372D0529";
paths = (
{
closed = 1;
nodes = (
"503.32 0 LINE",
"596.78 94.46 LINE",
"596.78 642.54 LINE",
"503.32 737 LINE",
"175.68 737 LINE",
"82.22 642.54 LINE",
"82.22 94.46 LINE",
"175.68 0 LINE"
);
},
{
closed = 1;
nodes = (
"115.73 105.11 LINE",
"115.68 631.89 LINE",
"188.04 705.19 LINE",
"490.94 705.23 LINE",
"563.26 631.89 LINE",
"563.3 105.12 LINE",
"490.96 31.8 LINE",
"188.05 31.76 LINE"
);
},
{
closed = 1;
nodes = (
"355.73 794.25 LINE",
"355.73 823.59 LINE",
"423.82 888.64 LINE",
"423.82 950.23 LINE",
"389.73 985.66 LINE",
"311.34 985.66 LINE",
"272.23 944.19 LINE",
"292.34 924.93 LINE",
"324.14 958.55 LINE",
"377.09 958.55 LINE",
"395 939.76 LINE",
"395 899.37 LINE",
"327.8 834.59 LINE",
"327.8 794.25 LINE"
);
}
);
width = 679;
}
);
leftKerningGroup = C;
note = uni1ECE;
rightKerningGroup = O;
unicode = 1ECE;
},
{
glyphname = Ohorn;
lastChange = "2019-09-03 16:25:56 +0000";
layers = (
{
hints = (
{
horizontal = 1;
place = "{0, 31.78}";
type = Stem;
},
{
horizontal = 1;
place = "{630.57, 27.65}";
type = Stem;
},
{
horizontal = 1;
place = "{705.21, 31.79}";
type = Stem;
},
{
place = "{82.22, 33.48}";
type = Stem;
},
{
place = "{563.28, 33.5}";
type = Stem;
}
);
layerId = "7107EBA0-69BE-4603-8F48-BAA3372D0529";
paths = (
{
closed = 1;
nodes = (
"503.32 0 LINE",
"596.78 94.46 LINE",
"596.78 630.57 LINE",
"649.14 630.57 LINE",
"696.97 802.84 LINE",
"660.28 802.84 LINE",
"627.9 658.22 LINE",
"581.26 658.22 LINE",
"503.32 737 LINE",
"175.68 737 LINE",
"82.22 642.54 LINE",
"82.22 94.46 LINE",
"175.68 0 LINE"
);
},
{
closed = 1;
nodes = (
"115.73 105.11 LINE",
"115.68 631.89 LINE",
"188.04 705.19 LINE",
"490.94 705.23 LINE",
"563.26 631.89 LINE",
"563.3 105.12 LINE",
"490.96 31.8 LINE",
"188.05 31.76 LINE"
);
}
);
width = 679;
}
);
leftKerningGroup = C;
note = Ohorn;
rightKerningGroup = O;
unicode = 01A0;
},
{
glyphname = uni1EDA;
lastChange = "2019-09-03 16:25:56 +0000";
layers = (
{
hints = (
{
horizontal = 1;
place = "{0, 31.78}";
type = Stem;
},
{
horizontal = 1;
place = "{630.57, 27.65}";
type = Stem;
},
{
horizontal = 1;
place = "{705.21, 31.79}";
type = Stem;
},
{
horizontal = 1;
place = "{794.25, 140.22}";
type = Stem;
},
{
place = "{82.22, 33.48}";
type = Stem;
},
{
place = "{563.28, 33.5}";
type = Stem;
}
);
layerId = "7107EBA0-69BE-4603-8F48-BAA3372D0529";
paths = (
{
closed = 1;
nodes = (
"503.32 0 LINE",
"596.78 94.46 LINE",
"596.78 630.57 LINE",
"649.14 630.57 LINE",
"696.97 802.84 LINE",
"660.28 802.84 LINE",
"627.9 658.22 LINE",
"581.26 658.22 LINE",
"503.32 737 LINE",
"175.68 737 LINE",
"82.22 642.54 LINE",
"82.22 94.46 LINE",
"175.68 0 LINE"
);
},
{
closed = 1;
nodes = (
"115.73 105.11 LINE",
"115.68 631.89 LINE",
"188.04 705.19 LINE",
"490.94 705.23 LINE",
"563.26 631.89 LINE",
"563.3 105.12 LINE",
"490.96 31.8 LINE",
"188.05 31.76 LINE"
);
},
{
closed = 1;
nodes = (
"356.11 794.25 LINE",
"455.62 934.47 LINE",
"412.89 934.47 LINE",
"326.32 794.25 LINE"
);
}
);
width = 679;
}
);
leftKerningGroup = C;
note = uni1EDA;
rightKerningGroup = O;
unicode = 1EDA;
},
{
glyphname = uni1EE2;
lastChange = "2019-09-03 16:25:56 +0000";
layers = (
{
hints = (
{
horizontal = 1;
place = "{-163.07, 105.82}";
type = Stem;
},
{
horizontal = 1;
place = "{0, 31.78}";
type = Stem;
},
{
horizontal = 1;
place = "{630.57, 27.65}";
type = Stem;
},
{
horizontal = 1;
place = "{705.21, 31.79}";
type = Stem;
},
{
place = "{82.22, 33.48}";
type = Stem;
},
{
place = "{323, 33}";
type = Stem;
},
{
place = "{563.28, 33.5}";
type = Stem;
}
);
layerId = "7107EBA0-69BE-4603-8F48-BAA3372D0529";
paths = (
{
closed = 1;
nodes = (
"503.32 0 LINE",
"596.78 94.46 LINE",
"596.78 630.57 LINE",
"649.14 630.57 LINE",
"696.97 802.84 LINE",
"660.28 802.84 LINE",
"627.9 658.22 LINE",
"581.26 658.22 LINE",
"503.32 737 LINE",
"175.68 737 LINE",
"82.22 642.54 LINE",
"82.22 94.46 LINE",
"175.68 0 LINE"
);
},
{
closed = 1;
nodes = (
"356 -163.07 LINE",
"356 -57.25 LINE",
"323 -57.25 LINE",
"323 -163.07 LINE"
);
},
{
closed = 1;
nodes = (
"115.73 105.11 LINE",
"115.68 631.89 LINE",
"188.04 705.19 LINE",
"490.94 705.23 LINE",
"563.26 631.89 LINE",
"563.3 105.12 LINE",
"490.96 31.8 LINE",
"188.05 31.76 LINE"
);
}
);
width = 679;
}
);
leftKerningGroup = C;
note = uni1EE2;
rightKerningGroup = O;
unicode = 1EE2;
},
{
glyphname = uni1EDC;
lastChange = "2019-09-03 16:25:56 +0000";
layers = (
{
hints = (
{
horizontal = 1;
place = "{0, 31.78}";
type = Stem;
},
{
horizontal = 1;
place = "{630.57, 27.65}";
type = Stem;
},
{
horizontal = 1;
place = "{705.21, 31.79}";
type = Stem;
},
{
horizontal = 1;
place = "{794.25, 140.22}";
type = Stem;
},
{
place = "{82.22, 33.48}";
type = Stem;
},
{
place = "{563.28, 33.5}";
type = Stem;
}
);
layerId = "7107EBA0-69BE-4603-8F48-BAA3372D0529";
paths = (
{
closed = 1;
nodes = (
"503.32 0 LINE",
"596.78 94.46 LINE",
"596.78 630.57 LINE",
"649.14 630.57 LINE",
"696.97 802.84 LINE",
"660.28 802.84 LINE",
"627.9 658.22 LINE",
"581.26 658.22 LINE",
"503.32 737 LINE",
"175.68 737 LINE",
"82.22 642.54 LINE",
"82.22 94.46 LINE",
"175.68 0 LINE"
);
},
{
closed = 1;
nodes = (
"115.73 105.11 LINE",
"115.68 631.89 LINE",
"188.04 705.19 LINE",
"490.94 705.23 LINE",
"563.26 631.89 LINE",
"563.3 105.12 LINE",
"490.96 31.8 LINE",
"188.05 31.76 LINE"
);
},
{
closed = 1;
nodes = (
"351.72 794.25 LINE",
"265.15 934.47 LINE",
"222.41 934.47 LINE",
"321.93 794.25 LINE"
);
}
);
width = 679;
}
);
leftKerningGroup = C;
note = uni1EDC;
rightKerningGroup = O;
unicode = 1EDC;
},
{
glyphname = uni1EDE;
lastChange = "2019-09-03 16:25:56 +0000";
layers = (
{
hints = (
{
horizontal = 1;
place = "{0, 31.78}";
type = Stem;
},
{
horizontal = 1;
place = "{630.57, 27.65}";
type = Stem;
},
{
horizontal = 1;
place = "{705.21, 31.79}";
type = Stem;
},
{
horizontal = 1;
place = "{794.25, 40.34}";
type = Stem;
},
{
horizontal = 1;
place = "{958.55, 27.11}";
type = Stem;
},
{
place = "{82.22, 33.48}";
type = Stem;
},
{
place = "{327.8, 27.93}";
type = Stem;
},
{
place = "{395, 28.82}";
type = Stem;
},
{
place = "{563.28, 33.5}";
type = Stem;
}
);
layerId = "7107EBA0-69BE-4603-8F48-BAA3372D0529";
paths = (
{
closed = 1;
nodes = (
"503.32 0 LINE",
"596.78 94.46 LINE",
"596.78 630.57 LINE",
"649.14 630.57 LINE",
"696.97 802.84 LINE",
"660.28 802.84 LINE",
"627.9 658.22 LINE",
"581.26 658.22 LINE",
"503.32 737 LINE",
"175.68 737 LINE",
"82.22 642.54 LINE",
"82.22 94.46 LINE",
"175.68 0 LINE"
);
},
{
closed = 1;
nodes = (
"115.73 105.11 LINE",
"115.68 631.89 LINE",
"188.04 705.19 LINE",
"490.94 705.23 LINE",
"563.26 631.89 LINE",
"563.3 105.12 LINE",
"490.96 31.8 LINE",
"188.05 31.76 LINE"
);
},
{
closed = 1;
nodes = (
"355.73 794.25 LINE",
"355.73 823.59 LINE",
"423.82 888.64 LINE",
"423.82 950.23 LINE",
"389.73 985.66 LINE",
"311.34 985.66 LINE",
"272.23 944.19 LINE",
"292.34 924.93 LINE",
"324.14 958.55 LINE",
"377.09 958.55 LINE",
"395 939.76 LINE",
"395 899.37 LINE",
"327.8 834.59 LINE",
"327.8 794.25 LINE"
);
}
);
width = 679;
}
);
leftKerningGroup = C;
note = uni1EDE;
rightKerningGroup = O;
unicode = 1EDE;
},
{
glyphname = uni1EE0;
lastChange = "2019-09-03 16:25:56 +0000";
layers = (
{
hints = (
{
horizontal = 1;
place = "{0, 31.78}";
type = Stem;
},
{
horizontal = 1;
place = "{630.57, 27.65}";
type = Stem;
},
{
horizontal = 1;
place = "{705.21, 31.79}";
type = Stem;
},
{
horizontal = 1;
place = "{794.25, 26.98}";
type = Stem;
},
{
horizontal = 1;
place = "{870.03, 26.98}";
type = Stem;
},
{
place = "{82.22, 33.48}";
type = Stem;
},
{
place = "{190.86, 22.42}";
type = Stem;
},
{
place = "{465.42, 22.44}";
type = Stem;
},
{
place = "{563.28, 33.5}";
type = Stem;
}
);
layerId = "7107EBA0-69BE-4603-8F48-BAA3372D0529";
paths = (
{
closed = 1;
nodes = (
"503.32 0 LINE",
"596.78 94.46 LINE",
"596.78 630.57 LINE",
"649.14 630.57 LINE",
"696.97 802.84 LINE",
"660.28 802.84 LINE",
"627.9 658.22 LINE",
"581.26 658.22 LINE",
"503.32 737 LINE",
"175.68 737 LINE",
"82.22 642.54 LINE",
"82.22 94.46 LINE",
"175.68 0 LINE"
);
},
{
closed = 1;
nodes = (
"115.73 105.11 LINE",
"115.68 631.89 LINE",
"188.04 705.19 LINE",
"490.94 705.23 LINE",
"563.26 631.89 LINE",
"563.3 105.12 LINE",
"490.96 31.8 LINE",
"188.05 31.76 LINE"
);
},
{
closed = 1;
nodes = (
"436.91 794.25 LINE",
"487.36 845.69 LINE",
"488.36 896.64 LINE",
"466.87 896.64 LINE",
"463.98 857.48 LINE",
"424.86 821.23 LINE",
"389.21 821.23 LINE",
"313.96 897.01 LINE",
"241.8 897.01 LINE",
"191.36 845.55 LINE",
"190.36 794.61 LINE",
"211.84 794.61 LINE",
"214.73 833.65 LINE",
"253.86 870.03 LINE",
"301.29 870.03 LINE",
"376.43 794.25 LINE"
);
}
);
width = 679;
}
);
leftKerningGroup = C;
note = uni1EE0;
rightKerningGroup = O;
unicode = 1EE0;
},
{
glyphname = Ohungarumlaut;
lastChange = "2019-09-03 16:25:56 +0000";
layers = (
{
hints = (
{
horizontal = 1;
place = "{0, 31.78}";
type = Stem;
},
{
horizontal = 1;
place = "{705.21, 31.79}";
type = Stem;
},
{
horizontal = 1;
place = "{794.25, 140.22}";
type = Stem;
},
{
place = "{82.22, 33.48}";
type = Stem;
},
{
place = "{563.28, 33.5}";
type = Stem;
}
);
layerId = "7107EBA0-69BE-4603-8F48-BAA3372D0529";
paths = (
{
closed = 1;
nodes = (
"503.32 0 LINE",
"596.78 94.46 LINE",
"596.78 642.54 LINE",
"503.32 737 LINE",
"175.68 737 LINE",
"82.22 642.54 LINE",
"82.22 94.46 LINE",
"175.68 0 LINE"
);
},
{
closed = 1;
nodes = (
"115.73 105.11 LINE",
"115.68 631.89 LINE",
"188.04 705.19 LINE",
"490.94 705.23 LINE",
"563.26 631.89 LINE",
"563.3 105.12 LINE",
"490.96 31.8 LINE",
"188.05 31.76 LINE"
);
},
{
closed = 1;
nodes = (
"288.61 794.25 LINE",
"388.12 934.47 LINE",
"346.61 934.47 LINE",
"260.03 794.25 LINE"
);
},
{
closed = 1;
nodes = (
"407.9 794.25 LINE",
"507.41 934.47 LINE",
"465.9 934.47 LINE",
"379.32 794.25 LINE"
);
}
);
width = 679;
}
);
leftKerningGroup = C;
note = Ohungarumlaut;
rightKerningGroup = O;
unicode = 0150;
},
{
glyphname = uni020E;
lastChange = "2019-09-03 16:25:56 +0000";
layers = (
{
hints = (
{
horizontal = 1;
place = "{0, 31.78}";
type = Stem;
},
{
horizontal = 1;
place = "{705.21, 31.79}";
type = Stem;
},
{
horizontal = 1;
place = "{886.46, 27.23}";
type = Stem;
},
{
place = "{82.22, 33.48}";
type = Stem;
},
{
place = "{222.97, 27.6}";
type = Stem;
},
{
place = "{428.43, 27.6}";
type = Stem;
},
{
place = "{563.28, 33.5}";
type = Stem;
}
);
layerId = "7107EBA0-69BE-4603-8F48-BAA3372D0529";
paths = (
{
closed = 1;
nodes = (
"503.32 0 LINE",
"596.78 94.46 LINE",
"596.78 642.54 LINE",
"503.32 737 LINE",
"175.68 737 LINE",
"82.22 642.54 LINE",
"82.22 94.46 LINE",
"175.68 0 LINE"
);
},
{
closed = 1;
nodes = (
"115.73 105.11 LINE",
"115.68 631.89 LINE",
"188.04 705.19 LINE",
"490.94 705.23 LINE",
"563.26 631.89 LINE",
"563.3 105.12 LINE",
"490.96 31.8 LINE",
"188.05 31.76 LINE"
);
},
{
closed = 1;
nodes = (
"250.57 794.25 LINE",
"250.57 852.91 LINE",
"284.11 886.46 LINE",
"394.89 886.46 LINE",
"428.43 852.91 LINE",
"428.43 794.25 LINE",
"456.03 794.25 LINE",
"456.03 861.98 LINE",
"404.32 913.69 LINE",
"274.68 913.69 LINE",
"222.97 861.98 LINE",
"222.97 794.25 LINE"
);
}
);
width = 679;
}
);
leftKerningGroup = C;
note = uni020E;
rightKerningGroup = O;
unicode = 020E;
},
{
glyphname = Omacron;
lastChange = "2019-09-03 16:25:56 +0000";
layers = (
{
hints = (
{
horizontal = 1;
place = "{0, 31.78}";
type = Stem;
},
{
horizontal = 1;
place = "{705.21, 31.79}";
type = Stem;
},
{
horizontal = 1;
place = "{794.25, 28.57}";
type = Stem;
},
{
place = "{82.22, 33.48}";
type = Stem;
},
{
place = "{563.28, 33.5}";
type = Stem;
}
);
layerId = "7107EBA0-69BE-4603-8F48-BAA3372D0529";
paths = (
{
closed = 1;
nodes = (
"503.32 0 LINE",
"596.78 94.46 LINE",
"596.78 642.54 LINE",
"503.32 737 LINE",
"175.68 737 LINE",
"82.22 642.54 LINE",
"82.22 94.46 LINE",
"175.68 0 LINE"
);
},
{
closed = 1;
nodes = (
"115.73 105.11 LINE",
"115.68 631.89 LINE",
"188.04 705.19 LINE",
"490.94 705.23 LINE",
"563.26 631.89 LINE",
"563.3 105.12 LINE",
"490.96 31.8 LINE",
"188.05 31.76 LINE"
);
},
{
closed = 1;
nodes = (
"489.05 794.25 LINE",
"489.05 822.82 LINE",
"189.94 822.82 LINE",
"189.94 794.25 LINE"
);
}
);
width = 679;
}
);
leftKerningGroup = C;
note = Omacron;
rightKerningGroup = O;
unicode = 014C;
},
{
glyphname = uni01EA;
lastChange = "2019-09-03 18:11:57 +0000";
layers = (
{
hints = (
{
horizontal = 1;
place = "{-142.29, 28.59}";
type = Stem;
},
{
horizontal = 1;
place = "{0, 31.78}";
type = Stem;
},
{
horizontal = 1;
place = "{705.21, 31.79}";
type = Stem;
},
{
place = "{82.22, 33.48}";
type = Stem;
},
{
place = "{433.93, 27.98}";
type = Stem;
},
{
place = "{563.28, 33.5}";
type = Stem;
}
);
layerId = "7107EBA0-69BE-4603-8F48-BAA3372D0529";
paths = (
{
closed = 1;
nodes = (
"515.66 -142.29 LINE",
"515.66 -113.7 LINE",
"492.57 -113.7 LINE",
"461.91 -83.03 LINE",
"461.91 -44.17 LINE",
"596.78 94.46 LINE",
"596.78 642.54 LINE",
"503.32 737 LINE",
"175.68 737 LINE",
"82.22 642.54 LINE",
"82.22 94.46 LINE",
"175.68 0 LINE",
"470.93 0 LINE",
"433.93 -37 LINE",
"433.93 -93.09 LINE",
"483.01 -142.29 LINE"
);
},
{
closed = 1;
nodes = (
"115.73 105.11 LINE",
"115.68 631.89 LINE",
"188.04 705.19 LINE",
"490.94 705.23 LINE",
"563.26 631.89 LINE",
"563.3 105.12 LINE",
"490.96 31.8 LINE",
"188.05 31.76 LINE"
);
}
);
width = 679;
}
);
leftKerningGroup = C;
note = uni01EA;
rightKerningGroup = O;
unicode = 01EA;
},
{
glyphname = Oslash;
lastChange = "2019-09-03 16:25:56 +0000";
layers = (
{
hints = (
{
horizontal = 1;
place = "{0, 31.78}";
type = Stem;
},
{
horizontal = 1;
place = "{705.21, 31.79}";
type = Stem;
},
{
place = "{82.22, 33.48}";
type = Stem;
},
{
place = "{563.28, 33.5}";
type = Stem;
}
);
layerId = "7107EBA0-69BE-4603-8F48-BAA3372D0529";
paths = (
{
closed = 1;
nodes = (
"503.32 0 LINE",
"596.78 94.46 LINE",
"596.78 642.54 LINE",
"503.32 737 LINE",
"175.68 737 LINE",
"82.22 642.54 LINE",
"82.22 94.46 LINE",
"175.68 0 LINE"
);
},
{
closed = 1;
nodes = (
"161.1 59.1 LINE",
"539.88 655.6 LINE",
"563.26 631.89 LINE",
"563.3 105.12 LINE",
"490.96 31.8 LINE",
"188.05 31.76 LINE"
);
},
{
closed = 1;
nodes = (
"115.73 105.11 LINE",
"115.68 631.89 LINE",
"188.04 705.19 LINE",
"490.94 705.23 LINE",
"517.86 677.94 LINE",
"139.11 81.4 LINE"
);
}
);
width = 679;
}
);
leftKerningGroup = C;
note = Oslash;
rightKerningGroup = O;
unicode = 00D8;
},
{
glyphname = Oslashacute;
lastChange = "2019-09-03 16:25:56 +0000";
layers = (
{
hints = (
{
horizontal = 1;
place = "{0, 31.78}";
type = Stem;
},
{
horizontal = 1;
place = "{705.21, 31.79}";
type = Stem;
},
{
horizontal = 1;
place = "{794.25, 140.22}";
type = Stem;
},
{
place = "{82.22, 33.48}";
type = Stem;
},
{
place = "{563.28, 33.5}";
type = Stem;
}
);
layerId = "7107EBA0-69BE-4603-8F48-BAA3372D0529";
paths = (
{
closed = 1;
nodes = (
"503.32 0 LINE",
"596.78 94.46 LINE",
"596.78 642.54 LINE",
"503.32 737 LINE",
"175.68 737 LINE",
"82.22 642.54 LINE",
"82.22 94.46 LINE",
"175.68 0 LINE"
);
},
{
closed = 1;
nodes = (
"161.1 59.1 LINE",
"539.88 655.6 LINE",
"563.26 631.89 LINE",
"563.3 105.12 LINE",
"490.96 31.8 LINE",
"188.05 31.76 LINE"
);
},
{
closed = 1;
nodes = (
"115.73 105.11 LINE",
"115.68 631.89 LINE",
"188.04 705.19 LINE",
"490.94 705.23 LINE",
"517.86 677.94 LINE",
"139.11 81.4 LINE"
);
},
{
closed = 1;
nodes = (
"356.11 794.25 LINE",
"455.62 934.47 LINE",
"412.89 934.47 LINE",
"326.32 794.25 LINE"
);
}
);
width = 679;
}
);
leftKerningGroup = C;
note = Oslashacute;
rightKerningGroup = O;
unicode = 01FE;
},
{
glyphname = Otilde;
lastChange = "2019-09-03 16:25:56 +0000";
layers = (
{
hints = (
{
horizontal = 1;
place = "{0, 31.78}";
type = Stem;
},
{
horizontal = 1;
place = "{705.21, 31.79}";
type = Stem;
},
{
horizontal = 1;
place = "{794.25, 26.98}";
type = Stem;
},
{
horizontal = 1;
place = "{870.03, 26.98}";
type = Stem;
},
{
place = "{82.22, 33.48}";
type = Stem;
},
{
place = "{190.86, 22.42}";
type = Stem;
},
{
place = "{465.42, 22.44}";
type = Stem;
},
{
place = "{563.28, 33.5}";
type = Stem;
}
);
layerId = "7107EBA0-69BE-4603-8F48-BAA3372D0529";
paths = (
{
closed = 1;
nodes = (
"503.32 0 LINE",
"596.78 94.46 LINE",
"596.78 642.54 LINE",
"503.32 737 LINE",
"175.68 737 LINE",
"82.22 642.54 LINE",
"82.22 94.46 LINE",
"175.68 0 LINE"
);
},
{
closed = 1;
nodes = (
"115.73 105.11 LINE",
"115.68 631.89 LINE",
"188.04 705.19 LINE",
"490.94 705.23 LINE",
"563.26 631.89 LINE",
"563.3 105.12 LINE",
"490.96 31.8 LINE",
"188.05 31.76 LINE"
);
},
{
closed = 1;
nodes = (
"436.91 794.25 LINE",
"487.36 845.69 LINE",
"488.36 896.64 LINE",
"466.87 896.64 LINE",
"463.98 857.48 LINE",
"424.86 821.23 LINE",
"389.21 821.23 LINE",
"313.96 897.01 LINE",
"241.8 897.01 LINE",
"191.36 845.55 LINE",
"190.36 794.61 LINE",
"211.84 794.61 LINE",
"214.73 833.65 LINE",
"253.86 870.03 LINE",
"301.29 870.03 LINE",
"376.43 794.25 LINE"
);
}
);
width = 679;
}
);
leftKerningGroup = C;
note = Otilde;
rightKerningGroup = O;
unicode = 00D5;
},
{
glyphname = uni022C;
lastChange = "2019-09-03 16:25:56 +0000";
layers = (
{
hints = (
{
horizontal = 1;
place = "{0, 31.78}";
type = Stem;
},
{
horizontal = 1;
place = "{705.21, 31.79}";
type = Stem;
},
{
horizontal = 1;
place = "{794.25, 26.98}";
type = Stem;
},
{
horizontal = 1;
place = "{870.03, 26.98}";
type = Stem;
},
{
horizontal = 1;
place = "{935.37, 28.57}";
type = Stem;
},
{
place = "{82.22, 33.48}";
type = Stem;
},
{
place = "{190.86, 22.42}";
type = Stem;
},
{
place = "{465.42, 22.44}";
type = Stem;
},
{
place = "{563.28, 33.5}";
type = Stem;
}
);
layerId = "7107EBA0-69BE-4603-8F48-BAA3372D0529";
paths = (
{
closed = 1;
nodes = (
"503.32 0 LINE",
"596.78 94.46 LINE",
"596.78 642.54 LINE",
"503.32 737 LINE",
"175.68 737 LINE",
"82.22 642.54 LINE",
"82.22 94.46 LINE",
"175.68 0 LINE"
);
},
{
closed = 1;
nodes = (
"115.73 105.11 LINE",
"115.68 631.89 LINE",
"188.04 705.19 LINE",
"490.94 705.23 LINE",
"563.26 631.89 LINE",
"563.3 105.12 LINE",
"490.96 31.8 LINE",
"188.05 31.76 LINE"
);
},
{
closed = 1;
nodes = (
"436.91 794.25 LINE",
"487.36 845.69 LINE",
"488.36 896.64 LINE",
"466.87 896.64 LINE",
"463.98 857.48 LINE",
"424.86 821.23 LINE",
"389.21 821.23 LINE",
"313.96 897.01 LINE",
"241.8 897.01 LINE",
"191.36 845.55 LINE",
"190.36 794.61 LINE",
"211.84 794.61 LINE",
"214.73 833.65 LINE",
"253.86 870.03 LINE",
"301.29 870.03 LINE",
"376.43 794.25 LINE"
);
},
{
closed = 1;
nodes = (
"489.05 935.37 LINE",
"489.05 963.94 LINE",
"189.94 963.94 LINE",
"189.94 935.37 LINE"
);
}
);
width = 679;
}
);
leftKerningGroup = C;
note = uni022C;
rightKerningGroup = O;
unicode = 022C;
},
{
glyphname = OE;
lastChange = "2019-09-03 16:26:49 +0000";
layers = (
{
hints = (
{
horizontal = 1;
place = "{0, 32.26}";
type = Stem;
},
{
horizontal = 1;
place = "{373.87, 32.27}";
type = Stem;
},
{
horizontal = 1;
place = "{704.73, 32.27}";
type = Stem;
},
{
place = "{82.22, 33.48}";
type = Stem;
},
{
place = "{563.29, 33.55}";
type = Stem;
},
{
horizontal = 1;
place = "{0, 31.78}";
type = Stem;
},
{
horizontal = 1;
place = "{705.21, 31.79}";
type = Stem;
}
);
layerId = "7107EBA0-69BE-4603-8F48-BAA3372D0529";
paths = (
{
closed = 1;
nodes = (
"1020.11 0 LINE",
"1020.11 32.26 LINE",
"596.84 32.26 LINE",
"596.84 373.87 LINE",
"963.66 373.87 LINE",
"963.66 406.14 LINE",
"596.84 406.14 LINE",
"596.84 704.73 LINE",
"1020.11 704.73 LINE",
"1020.11 737 LINE",
"563.29 736.98 LINE",
"563.29 676.38 LINE",
"503.32 737 LINE",
"175.68 737 LINE",
"82.22 642.54 LINE",
"82.22 94.46 LINE",
"175.68 0 LINE",
"503.32 0 LINE",
"563.29 60.61 LINE",
"563.29 -0.02 LINE"
);
},
{
closed = 1;
nodes = (
"115.73 105.11 LINE",
"115.68 631.89 LINE",
"188.04 705.19 LINE",
"490.94 705.23 LINE",
"563.26 631.89 LINE",
"563.29 105.11 LINE",
"490.96 31.8 LINE",
"188.05 31.76 LINE"
);
}
);
width = 1075;
}
);
leftKerningGroup = C;
note = OE;
rightKerningGroup = AE;
unicode = 0152;
},
{
glyphname = P;
lastChange = "2019-09-03 16:25:56 +0000";
layers = (
{
hints = (
{
horizontal = 1;
place = "{306.9, 31.8}";
type = Stem;
},
{
horizontal = 1;
place = "{705.24, 31.76}";
type = Stem;
},
{
place = "{97.78, 33.55}";
type = Stem;
},
{
place = "{504.03, 33.5}";
type = Stem;
}
);
layerId = "7107EBA0-69BE-4603-8F48-BAA3372D0529";
paths = (
{
closed = 1;
nodes = (
"131.33 0 LINE",
"131.33 306.9 LINE",
"444.07 306.9 LINE",
"537.53 401.36 LINE",
"537.53 642.54 LINE",
"444.07 737 LINE",
"97.78 737 LINE",
"97.78 0 LINE"
);
},
{
closed = 1;
nodes = (
"131.33 705.22 LINE",
"431.71 705.25 LINE",
"504.01 631.89 LINE",
"504.05 412.03 LINE",
"431.71 338.71 LINE",
"131.33 338.68 LINE"
);
}
);
width = 584;
}
);
leftKerningGroup = B;
note = P;
rightKerningGroup = P;
unicode = 0050;
},
{
glyphname = Thorn;
lastChange = "2019-09-03 16:25:56 +0000";
layers = (
{
hints = (
{
horizontal = 1;
place = "{164.71, 31.79}";
type = Stem;
},
{
horizontal = 1;
place = "{563.05, 31.75}";
type = Stem;
},
{
place = "{97.78, 33.55}";
type = Stem;
},
{
place = "{504.03, 33.5}";
type = Stem;
}
);
layerId = "7107EBA0-69BE-4603-8F48-BAA3372D0529";
paths = (
{
closed = 1;
nodes = (
"131.33 -0.25 LINE",
"131.33 164.71 LINE",
"444.07 164.71 LINE",
"537.53 259.28 LINE",
"537.53 500.36 LINE",
"444.07 594.8 LINE",
"131.33 594.8 LINE",
"131.33 736.75 LINE",
"97.78 736.75 LINE",
"97.78 -0.25 LINE"
);
},
{
closed = 1;
nodes = (
"131.33 563.03 LINE",
"431.71 563.07 LINE",
"504.01 489.69 LINE",
"504.05 269.83 LINE",
"431.71 196.51 LINE",
"131.33 196.48 LINE"
);
}
);
width = 584;
}
);
leftKerningGroup = B;
note = Thorn;
rightKerningGroup = Thorn;
unicode = 00DE;
},
{
glyphname = Q;
lastChange = "2019-09-03 16:25:56 +0000";
layers = (
{
hints = (
{
horizontal = 1;
place = "{0, 31.77}";
type = Stem;
},
{
horizontal = 1;
place = "{705.21, 31.79}";
type = Stem;
},
{
place = "{82.22, 33.48}";
type = Stem;
},
{
place = "{323.73, 31.53}";
type = Stem;
},
{
place = "{563.28, 33.5}";
type = Stem;
}
);
layerId = "7107EBA0-69BE-4603-8F48-BAA3372D0529";
paths = (
{
closed = 1;
nodes = (
"355.26 -124.35 LINE",
"355.26 0 LINE",
"503.32 0 LINE",
"596.78 94.46 LINE",
"596.78 642.54 LINE",
"503.32 737 LINE",
"175.68 737 LINE",
"82.22 642.54 LINE",
"82.22 94.46 LINE",
"175.68 0 LINE",
"323.73 0 LINE",
"323.73 -124.35 LINE"
);
},
{
closed = 1;
nodes = (
"115.73 105.11 LINE",
"115.68 631.89 LINE",
"188.04 705.19 LINE",
"490.94 705.23 LINE",
"563.26 631.89 LINE",
"563.3 105.12 LINE",
"490.96 31.8 LINE",
"355.26 31.78 LINE",
"355.26 151.33 LINE",
"323.73 151.33 LINE",
"323.73 31.78 LINE",
"188.05 31.76 LINE"
);
}
);
width = 679;
}
);
leftKerningGroup = C;
note = Q;
rightKerningGroup = O;
unicode = 0051;
},
{
glyphname = R;
lastChange = "2019-09-03 16:25:56 +0000";
layers = (
{
hints = (
{
horizontal = 1;
place = "{328.25, 31.83}";
type = Stem;
},
{
horizontal = 1;
place = "{705.21, 31.79}";
type = Stem;
},
{
place = "{97.77, 33.55}";
type = Stem;
},
{
place = "{517.41, 33.46}";
type = Stem;
}
);
layerId = "7107EBA0-69BE-4603-8F48-BAA3372D0529";
paths = (
{
closed = 1;
nodes = (
"131.32 0 LINE",
"131.32 328.25 LINE",
"381.78 328.25 LINE",
"545.75 0 LINE",
"580.83 0 LINE",
"416.86 328.25 LINE",
"457.33 328.25 LINE",
"550.87 422.83 LINE",
"550.87 642.41 LINE",
"457.33 737 LINE",
"97.77 737 LINE",
"97.77 0 LINE"
);
},
{
closed = 1;
nodes = (
"131.32 705.21 LINE",
"445.12 705.21 LINE",
"517.41 631.87 LINE",
"517.41 433.41 LINE",
"445.12 360.08 LINE",
"131.32 360.08 LINE"
);
}
);
width = 649;
}
);
leftKerningGroup = B;
note = R;
rightKerningGroup = R;
unicode = 0052;
},
{
glyphname = Racute;
lastChange = "2019-09-03 16:25:56 +0000";
layers = (
{
hints = (
{
horizontal = 1;
place = "{328.25, 31.83}";
type = Stem;
},
{
horizontal = 1;
place = "{705.21, 31.79}";
type = Stem;
},
{
horizontal = 1;
place = "{794.25, 140.22}";
type = Stem;
},
{
place = "{97.77, 33.55}";
type = Stem;
},
{
place = "{517.41, 33.46}";
type = Stem;
}
);
layerId = "7107EBA0-69BE-4603-8F48-BAA3372D0529";
paths = (
{
closed = 1;
nodes = (
"131.32 0 LINE",
"131.32 328.25 LINE",
"381.78 328.25 LINE",
"545.75 0 LINE",
"580.83 0 LINE",
"416.86 328.25 LINE",
"457.33 328.25 LINE",
"550.87 422.83 LINE",
"550.87 642.41 LINE",
"457.33 737 LINE",
"97.77 737 LINE",
"97.77 0 LINE"
);
},
{
closed = 1;
nodes = (
"131.32 705.21 LINE",
"445.12 705.21 LINE",
"517.41 631.87 LINE",
"517.41 433.41 LINE",
"445.12 360.08 LINE",
"131.32 360.08 LINE"
);
},
{
closed = 1;
nodes = (
"312.78 794.25 LINE",
"412.29 934.47 LINE",
"369.55 934.47 LINE",
"282.98 794.25 LINE"
);
}
);
width = 649;
}
);
leftKerningGroup = B;
note = Racute;
rightKerningGroup = R;
unicode = 0154;
},
{
glyphname = Rcaron;
lastChange = "2019-09-03 16:25:56 +0000";
layers = (
{
hints = (
{
horizontal = 1;
place = "{328.25, 31.83}";
type = Stem;
},
{
horizontal = 1;
place = "{705.21, 31.79}";
type = Stem;
},
{
horizontal = 1;
place = "{794.25, 25.98}";
type = Stem;
},
{
place = "{97.77, 33.55}";
type = Stem;
},
{
place = "{517.41, 33.46}";
type = Stem;
}
);
layerId = "7107EBA0-69BE-4603-8F48-BAA3372D0529";
paths = (
{
closed = 1;
nodes = (
"131.32 0 LINE",
"131.32 328.25 LINE",
"381.78 328.25 LINE",
"545.75 0 LINE",
"580.83 0 LINE",
"416.86 328.25 LINE",
"457.33 328.25 LINE",
"550.87 422.83 LINE",
"550.87 642.41 LINE",
"457.33 737 LINE",
"97.77 737 LINE",
"97.77 0 LINE"
);
},
{
closed = 1;
nodes = (
"131.32 705.21 LINE",
"445.12 705.21 LINE",
"517.41 631.87 LINE",
"517.41 433.41 LINE",
"445.12 360.08 LINE",
"131.32 360.08 LINE"
);
},
{
closed = 1;
nodes = (
"322.8 794.25 LINE",
"427.3 932.36 LINE",
"396.51 932.36 LINE",
"302.94 820.23 LINE",
"287.39 820.23 LINE",
"193.82 932.36 LINE",
"163.03 932.36 LINE",
"267.53 794.25 LINE"
);
}
);
width = 649;
}
);
leftKerningGroup = B;
note = Rcaron;
rightKerningGroup = R;
unicode = 0158;
},
{
glyphname = uni0156;
lastChange = "2019-09-03 16:25:56 +0000";
layers = (
{
hints = (
{
horizontal = 1;
place = "{328.25, 31.83}";
type = Stem;
},
{
horizontal = 1;
place = "{705.21, 31.79}";
type = Stem;
},
{
place = "{97.77, 33.55}";
type = Stem;
},
{
place = "{517.41, 33.46}";
type = Stem;
}
);
layerId = "7107EBA0-69BE-4603-8F48-BAA3372D0529";
paths = (
{
closed = 1;
nodes = (
"131.32 0 LINE",
"131.32 328.25 LINE",
"381.78 328.25 LINE",
"545.75 0 LINE",
"580.83 0 LINE",
"416.86 328.25 LINE",
"457.33 328.25 LINE",
"550.87 422.83 LINE",
"550.87 642.41 LINE",
"457.33 737 LINE",
"97.77 737 LINE",
"97.77 0 LINE"
);
},
{
closed = 1;
nodes = (
"300.5 -219.31 LINE",
"350.76 -57.25 LINE",
"314.23 -57.25 LINE",
"276.39 -219.31 LINE"
);
},
{
closed = 1;
nodes = (
"131.32 705.21 LINE",
"445.12 705.21 LINE",
"517.41 631.87 LINE",
"517.41 433.41 LINE",
"445.12 360.08 LINE",
"131.32 360.08 LINE"
);
}
);
width = 649;
}
);
leftKerningGroup = B;
note = uni0156;
rightKerningGroup = R;
unicode = 0156;
},
{
glyphname = uni0210;
lastChange = "2019-09-03 16:25:56 +0000";
layers = (
{
hints = (
{
horizontal = 1;
place = "{328.25, 31.83}";
type = Stem;
},
{
horizontal = 1;
place = "{705.21, 31.79}";
type = Stem;
},
{
horizontal = 1;
place = "{794.25, 140.22}";
type = Stem;
},
{
place = "{97.77, 33.55}";
type = Stem;
},
{
place = "{517.41, 33.46}";
type = Stem;
}
);
layerId = "7107EBA0-69BE-4603-8F48-BAA3372D0529";
paths = (
{
closed = 1;
nodes = (
"131.32 0 LINE",
"131.32 328.25 LINE",
"381.78 328.25 LINE",
"545.75 0 LINE",
"580.83 0 LINE",
"416.86 328.25 LINE",
"457.33 328.25 LINE",
"550.87 422.83 LINE",
"550.87 642.41 LINE",
"457.33 737 LINE",
"97.77 737 LINE",
"97.77 0 LINE"
);
},
{
closed = 1;
nodes = (
"131.32 705.21 LINE",
"445.12 705.21 LINE",
"517.41 631.87 LINE",
"517.41 433.41 LINE",
"445.12 360.08 LINE",
"131.32 360.08 LINE"
);
},
{
closed = 1;
nodes = (
"251.83 794.25 LINE",
"165.25 934.47 LINE",
"123.73 934.47 LINE",
"223.25 794.25 LINE"
);
},
{
closed = 1;
nodes = (
"371.12 794.25 LINE",
"284.54 934.47 LINE",
"243.03 934.47 LINE",
"342.54 794.25 LINE"
);
}
);
width = 649;
}
);
leftKerningGroup = B;
note = uni0210;
rightKerningGroup = R;
unicode = 0210;
},
{
glyphname = uni0212;
lastChange = "2019-09-03 16:25:56 +0000";
layers = (
{
hints = (
{
horizontal = 1;
place = "{328.25, 31.83}";
type = Stem;
},
{
horizontal = 1;
place = "{705.21, 31.79}";
type = Stem;
},
{
horizontal = 1;
place = "{886.46, 27.23}";
type = Stem;
},
{
place = "{97.77, 33.55}";
type = Stem;
},
{
place = "{179.64, 27.59}";
type = Stem;
},
{
place = "{385.09, 27.6}";
type = Stem;
},
{
place = "{517.41, 33.46}";
type = Stem;
}
);
layerId = "7107EBA0-69BE-4603-8F48-BAA3372D0529";
paths = (
{
closed = 1;
nodes = (
"131.32 0 LINE",
"131.32 328.25 LINE",
"381.78 328.25 LINE",
"545.75 0 LINE",
"580.83 0 LINE",
"416.86 328.25 LINE",
"457.33 328.25 LINE",
"550.87 422.83 LINE",
"550.87 642.41 LINE",
"457.33 737 LINE",
"97.77 737 LINE",
"97.77 0 LINE"
);
},
{
closed = 1;
nodes = (
"131.32 705.21 LINE",
"445.12 705.21 LINE",
"517.41 631.87 LINE",
"517.41 433.41 LINE",
"445.12 360.08 LINE",
"131.32 360.08 LINE"
);
},
{
closed = 1;
nodes = (
"207.23 794.25 LINE",
"207.23 852.91 LINE",
"240.78 886.46 LINE",
"351.55 886.46 LINE",
"385.09 852.91 LINE",
"385.09 794.25 LINE",
"412.69 794.25 LINE",
"412.69 861.98 LINE",
"360.98 913.69 LINE",
"231.34 913.69 LINE",
"179.64 861.98 LINE",
"179.64 794.25 LINE"
);
}
);
width = 649;
}
);
leftKerningGroup = B;
note = uni0212;
rightKerningGroup = R;
unicode = 0212;
},
{
glyphname = S;
lastChange = "2019-09-03 16:25:56 +0000";
layers = (
{
hints = (
{
horizontal = 1;
place = "{0, 32.28}";
type = Stem;
},
{
horizontal = 1;
place = "{363.88, 31.72}";
type = Stem;
},
{
horizontal = 1;
place = "{704.72, 32.28}";
type = Stem;
},
{
place = "{72.78, 33.48}";
type = Stem;
},
{
place = "{531.71, 33.51}";
type = Stem;
}
);
layerId = "7107EBA0-69BE-4603-8F48-BAA3372D0529";
paths = (
{
closed = 1;
nodes = (
"471.76 0 LINE",
"565.22 94.46 LINE",
"565.22 301.16 LINE",
"471.76 395.61 LINE",
"178.61 395.59 LINE",
"106.29 468.97 LINE",
"106.23 631.4 LINE",
"178.61 704.71 LINE",
"530.36 704.73 LINE",
"530.36 737 LINE",
"166.23 737 LINE",
"72.78 642.54 LINE",
"72.78 458.3 LINE",
"166.23 363.86 LINE",
"459.39 363.89 LINE",
"531.69 290.53 LINE",
"531.73 105.61 LINE",
"459.39 32.29 LINE",
"101.04 32.26 LINE",
"101.04 0 LINE"
);
}
);
width = 638;
}
);
leftKerningGroup = S;
note = S;
rightKerningGroup = S;
unicode = 0053;
},
{
glyphname = Sacute;
lastChange = "2019-09-03 16:25:56 +0000";
layers = (
{
hints = (
{
horizontal = 1;
place = "{0, 32.28}";
type = Stem;
},
{
horizontal = 1;
place = "{363.88, 31.72}";
type = Stem;
},
{
horizontal = 1;
place = "{704.72, 32.28}";
type = Stem;
},
{
horizontal = 1;
place = "{794.25, 140.22}";
type = Stem;
},
{
place = "{72.78, 33.48}";
type = Stem;
},
{
place = "{531.71, 33.51}";
type = Stem;
}
);
layerId = "7107EBA0-69BE-4603-8F48-BAA3372D0529";
paths = (
{
closed = 1;
nodes = (
"471.76 0 LINE",
"565.22 94.46 LINE",
"565.22 301.16 LINE",
"471.76 395.61 LINE",
"178.61 395.59 LINE",
"106.29 468.97 LINE",
"106.23 631.4 LINE",
"178.61 704.71 LINE",
"530.36 704.73 LINE",
"530.36 737 LINE",
"166.23 737 LINE",
"72.78 642.54 LINE",
"72.78 458.3 LINE",
"166.23 363.86 LINE",
"459.39 363.89 LINE",
"531.69 290.53 LINE",
"531.73 105.61 LINE",
"459.39 32.29 LINE",
"101.04 32.26 LINE",
"101.04 0 LINE"
);
},
{
closed = 1;
nodes = (
"330.41 794.25 LINE",
"429.93 934.47 LINE",
"387.19 934.47 LINE",
"300.62 794.25 LINE"
);
}
);
width = 638;
}
);
leftKerningGroup = S;
note = Sacute;
rightKerningGroup = S;
unicode = 015A;
},
{
glyphname = Scaron;
lastChange = "2019-09-03 16:25:56 +0000";
layers = (
{
hints = (
{
horizontal = 1;
place = "{0, 32.28}";
type = Stem;
},
{
horizontal = 1;
place = "{363.88, 31.72}";
type = Stem;
},
{
horizontal = 1;
place = "{704.72, 32.28}";
type = Stem;
},
{
horizontal = 1;
place = "{794.25, 25.98}";
type = Stem;
},
{
place = "{72.78, 33.48}";
type = Stem;
},
{
place = "{531.71, 33.51}";
type = Stem;
}
);
layerId = "7107EBA0-69BE-4603-8F48-BAA3372D0529";
paths = (
{
closed = 1;
nodes = (
"471.76 0 LINE",
"565.22 94.46 LINE",
"565.22 301.16 LINE",
"471.76 395.61 LINE",
"178.61 395.59 LINE",
"106.29 468.97 LINE",
"106.23 631.4 LINE",
"178.61 704.71 LINE",
"530.36 704.73 LINE",
"530.36 737 LINE",
"166.23 737 LINE",
"72.78 642.54 LINE",
"72.78 458.3 LINE",
"166.23 363.86 LINE",
"459.39 363.89 LINE",
"531.69 290.53 LINE",
"531.73 105.61 LINE",
"459.39 32.29 LINE",
"101.04 32.26 LINE",
"101.04 0 LINE"
);
},
{
closed = 1;
nodes = (
"340.44 794.25 LINE",
"444.94 932.36 LINE",
"414.15 932.36 LINE",
"320.58 820.23 LINE",
"305.03 820.23 LINE",
"211.46 932.36 LINE",
"180.66 932.36 LINE",
"285.16 794.25 LINE"
);
}
);
width = 638;
}
);
leftKerningGroup = S;
note = Scaron;
rightKerningGroup = S;
unicode = 0160;
},
{
glyphname = Scedilla;
lastChange = "2019-09-03 16:25:56 +0000";
layers = (
{
hints = (
{
horizontal = 1;
place = "{0, 32.28}";
type = Stem;
},
{
horizontal = 1;
place = "{363.88, 31.72}";
type = Stem;
},
{
horizontal = 1;
place = "{704.72, 32.28}";
type = Stem;
},
{
place = "{72.78, 33.48}";
type = Stem;
},
{
place = "{531.71, 33.51}";
type = Stem;
}
);
layerId = "7107EBA0-69BE-4603-8F48-BAA3372D0529";
paths = (
{
closed = 1;
nodes = (
"291.28 -131.27 LINE",
"329.78 0 LINE",
"471.76 0 LINE",
"565.22 94.46 LINE",
"565.22 301.16 LINE",
"471.76 395.61 LINE",
"178.61 395.59 LINE",
"106.29 468.97 LINE",
"106.23 631.4 LINE",
"178.61 704.71 LINE",
"530.36 704.73 LINE",
"530.36 737 LINE",
"166.23 737 LINE",
"72.78 642.54 LINE",
"72.78 458.3 LINE",
"166.23 363.86 LINE",
"459.39 363.89 LINE",
"531.69 290.53 LINE",
"531.73 105.61 LINE",
"459.39 32.29 LINE",
"101.04 32.26 LINE",
"101.04 0 LINE",
"297.73 0 LINE",
"262.3 -131.27 LINE"
);
}
);
width = 638;
}
);
leftKerningGroup = S;
note = Scedilla;
rightKerningGroup = S;
unicode = 015E;
},
{
glyphname = Scircumflex;
lastChange = "2019-09-03 16:25:56 +0000";
layers = (
{
hints = (
{
horizontal = 1;
place = "{0, 32.28}";
type = Stem;
},
{
horizontal = 1;
place = "{363.88, 31.72}";
type = Stem;
},
{
horizontal = 1;
place = "{704.72, 32.28}";
type = Stem;
},
{
horizontal = 1;
place = "{906.37, 25.99}";
type = Stem;
},
{
place = "{72.78, 33.48}";
type = Stem;
},
{
place = "{531.71, 33.51}";
type = Stem;
}
);
layerId = "7107EBA0-69BE-4603-8F48-BAA3372D0529";
paths = (
{
closed = 1;
nodes = (
"471.76 0 LINE",
"565.22 94.46 LINE",
"565.22 301.16 LINE",
"471.76 395.61 LINE",
"178.61 395.59 LINE",
"106.29 468.97 LINE",
"106.23 631.4 LINE",
"178.61 704.71 LINE",
"530.36 704.73 LINE",
"530.36 737 LINE",
"166.23 737 LINE",
"72.78 642.54 LINE",
"72.78 458.3 LINE",
"166.23 363.86 LINE",
"459.39 363.89 LINE",
"531.69 290.53 LINE",
"531.73 105.61 LINE",
"459.39 32.29 LINE",
"101.04 32.26 LINE",
"101.04 0 LINE"
);
},
{
closed = 1;
nodes = (
"212.46 794.25 LINE",
"306.03 906.37 LINE",
"321.58 906.37 LINE",
"415.15 794.25 LINE",
"445.94 794.25 LINE",
"341.44 932.36 LINE",
"286.16 932.36 LINE",
"181.66 794.25 LINE"
);
}
);
width = 638;
}
);
leftKerningGroup = S;
note = Scircumflex;
rightKerningGroup = S;
unicode = 015C;
},
{
glyphname = uni0218;
lastChange = "2019-09-03 16:25:56 +0000";
layers = (
{
hints = (
{
horizontal = 1;
place = "{0, 32.28}";
type = Stem;
},
{
horizontal = 1;
place = "{363.88, 31.72}";
type = Stem;
},
{
horizontal = 1;
place = "{704.72, 32.28}";
type = Stem;
},
{
place = "{72.78, 33.48}";
type = Stem;
},
{
place = "{531.71, 33.51}";
type = Stem;
}
);
layerId = "7107EBA0-69BE-4603-8F48-BAA3372D0529";
paths = (
{
closed = 1;
nodes = (
"471.76 0 LINE",
"565.22 94.46 LINE",
"565.22 301.16 LINE",
"471.76 395.61 LINE",
"178.61 395.59 LINE",
"106.29 468.97 LINE",
"106.23 631.4 LINE",
"178.61 704.71 LINE",
"530.36 704.73 LINE",
"530.36 737 LINE",
"166.23 737 LINE",
"72.78 642.54 LINE",
"72.78 458.3 LINE",
"166.23 363.86 LINE",
"459.39 363.89 LINE",
"531.69 290.53 LINE",
"531.73 105.61 LINE",
"459.39 32.29 LINE",
"101.04 32.26 LINE",
"101.04 0 LINE"
);
},
{
closed = 1;
nodes = (
"281.05 -219.31 LINE",
"331.32 -57.25 LINE",
"294.79 -57.25 LINE",
"256.94 -219.31 LINE"
);
}
);
width = 638;
}
);
leftKerningGroup = S;
note = uni0218;
rightKerningGroup = S;
unicode = 0218;
},
{
glyphname = uni1E9E;
lastChange = "2019-09-03 16:25:56 +0000";
layers = (
{
hints = (
{
horizontal = 1;
place = "{0, 31.79}";
type = Stem;
},
{
horizontal = 1;
place = "{395.45, 31.76}";
type = Stem;
},
{
horizontal = 1;
place = "{705.21, 31.79}";
type = Stem;
},
{
place = "{97.78, 33.46}";
type = Stem;
},
{
place = "{487.65, 32.27}";
type = Stem;
},
{
place = "{559.85, 33.47}";
type = Stem;
}
);
layerId = "7107EBA0-69BE-4603-8F48-BAA3372D0529";
paths = (
{
closed = 1;
nodes = (
"131.25 0 LINE",
"131.23 631.89 LINE",
"203.59 705.19 LINE",
"414.11 705.23 LINE",
"487.65 630.55 LINE",
"294.08 424.76 LINE",
"294.08 395.43 LINE",
"457.05 395.46 LINE",
"559.84 286.32 LINE",
"559.86 105.11 LINE",
"487.5 31.8 LINE",
"315.04 31.78 LINE",
"221.86 125.84 LINE",
"200.04 104.01 LINE",
"303.15 0 LINE",
"499.87 0 LINE",
"593.32 94.46 LINE",
"593.32 296.3 LINE",
"470.09 427.21 LINE",
"337.44 427.21 LINE",
"519.9 621.78 LINE",
"519.94 642.54 LINE",
"426.48 737 LINE",
"191.22 737 LINE",
"97.78 642.54 LINE",
"97.78 0 LINE"
);
}
);
width = 667;
}
);
leftKerningGroup = B;
note = uni1E9E;
rightKerningGroup = B;
unicode = 1E9E;
},
{
glyphname = uni018F;
lastChange = "2019-09-03 16:25:56 +0000";
layers = (
{
hints = (
{
horizontal = 1;
place = "{0, 31.78}";
type = Stem;
},
{
horizontal = 1;
place = "{355.62, 30.29}";
type = Stem;
},
{
horizontal = 1;
place = "{705.21, 31.79}";
type = Stem;
},
{
place = "{82.22, 33.5}";
type = Stem;
},
{
place = "{629.27, 33.51}";
type = Stem;
}
);
layerId = "7107EBA0-69BE-4603-8F48-BAA3372D0529";
paths = (
{
closed = 1;
nodes = (
"569.32 0 LINE",
"662.78 94.46 LINE",
"662.78 642.54 LINE",
"569.32 737 LINE",
"93.47 737 LINE",
"93.47 705.19 LINE",
"556.94 705.23 LINE",
"629.26 631.89 LINE",
"629.28 385.91 LINE",
"82.22 385.91 LINE",
"82.22 94.46 LINE",
"175.68 0 LINE"
);
},
{
closed = 1;
nodes = (
"115.73 105.11 LINE",
"115.71 355.62 LINE",
"629.28 355.62 LINE",
"629.3 105.12 LINE",
"556.96 31.8 LINE",
"188.05 31.76 LINE"
);
}
);
width = 745;
}
);
leftKerningGroup = C;
note = uni018F;
rightKerningGroup = O;
unicode = 018F;
},
{
glyphname = T;
lastChange = "2019-09-03 16:25:56 +0000";
layers = (
{
hints = (
{
horizontal = 1;
place = "{704.73, 32.27}";
type = Stem;
},
{
place = "{253.28, 33.55}";
type = Stem;
}
);
layerId = "7107EBA0-69BE-4603-8F48-BAA3372D0529";
paths = (
{
closed = 1;
nodes = (
"286.83 0 LINE",
"286.83 704.73 LINE",
"528.61 704.73 LINE",
"528.61 737 LINE",
"10.55 737 LINE",
"10.55 704.73 LINE",
"253.28 704.73 LINE",
"253.28 0 LINE"
);
}
);
width = 539;
}
);
leftKerningGroup = T;
note = T;
rightKerningGroup = T;
unicode = 0054;
},
{
glyphname = Tbar;
lastChange = "2019-09-03 16:25:56 +0000";
layers = (
{
hints = (
{
horizontal = 1;
place = "{381.55, 29.82}";
type = Stem;
},
{
horizontal = 1;
place = "{704.73, 32.27}";
type = Stem;
},
{
place = "{253.28, 33.55}";
type = Stem;
}
);
layerId = "7107EBA0-69BE-4603-8F48-BAA3372D0529";
paths = (
{
closed = 1;
nodes = (
"286.83 0 LINE",
"286.83 381.55 LINE",
"460.25 381.55 LINE",
"460.25 411.37 LINE",
"286.83 411.37 LINE",
"286.83 704.73 LINE",
"528.61 704.73 LINE",
"528.61 737 LINE",
"10.55 737 LINE",
"10.55 704.73 LINE",
"253.28 704.73 LINE",
"253.28 411.37 LINE",
"78.91 411.37 LINE",
"78.91 381.55 LINE",
"253.28 381.55 LINE",
"253.28 0 LINE"
);
}
);
width = 539;
}
);
leftKerningGroup = T;
note = Tbar;
rightKerningGroup = T;
unicode = 0166;
},
{
glyphname = Tcaron;
lastChange = "2019-09-03 16:25:56 +0000";
layers = (
{
hints = (
{
horizontal = 1;
place = "{704.73, 32.27}";
type = Stem;
},
{
horizontal = 1;
place = "{794.25, 25.98}";
type = Stem;
},
{
place = "{253.28, 33.55}";
type = Stem;
}
);
layerId = "7107EBA0-69BE-4603-8F48-BAA3372D0529";
paths = (
{
closed = 1;
nodes = (
"286.83 0 LINE",
"286.83 704.73 LINE",
"528.61 704.73 LINE",
"528.61 737 LINE",
"10.55 737 LINE",
"10.55 704.73 LINE",
"253.28 704.73 LINE",
"253.28 0 LINE"
);
},
{
closed = 1;
nodes = (
"296.54 794.25 LINE",
"401.04 932.36 LINE",
"370.25 932.36 LINE",
"276.68 820.23 LINE",
"261.12 820.23 LINE",
"167.55 932.36 LINE",
"136.76 932.36 LINE",
"241.26 794.25 LINE"
);
}
);
width = 539;
}
);
leftKerningGroup = T;
note = Tcaron;
rightKerningGroup = T;
unicode = 0164;
},
{
glyphname = uni0162;
lastChange = "2019-09-03 16:25:56 +0000";
layers = (
{
hints = (
{
horizontal = 1;
place = "{704.73, 32.27}";
type = Stem;
},
{
place = "{253.28, 33.55}";
type = Stem;
}
);
layerId = "7107EBA0-69BE-4603-8F48-BAA3372D0529";
paths = (
{
closed = 1;
nodes = (
"248.26 -131.27 LINE",
"286.76 0 LINE",
"286.83 0 LINE",
"286.83 704.73 LINE",
"528.61 704.73 LINE",
"528.61 737 LINE",
"10.55 737 LINE",
"10.55 704.73 LINE",
"253.28 704.73 LINE",
"253.28 0 LINE",
"255.72 0 LINE",
"220.3 -131.27 LINE"
);
}
);
width = 539;
}
);
leftKerningGroup = T;
note = uni0162;
rightKerningGroup = T;
unicode = 0162;
},
{
glyphname = uni021A;
lastChange = "2019-09-03 16:25:56 +0000";
layers = (
{
hints = (
{
horizontal = 1;
place = "{704.73, 32.27}";
type = Stem;
},
{
place = "{253.28, 33.55}";
type = Stem;
}
);
layerId = "7107EBA0-69BE-4603-8F48-BAA3372D0529";
paths = (
{
closed = 1;
nodes = (
"286.83 0 LINE",
"286.83 704.73 LINE",
"528.61 704.73 LINE",
"528.61 737 LINE",
"10.55 737 LINE",
"10.55 704.73 LINE",
"253.28 704.73 LINE",
"253.28 0 LINE"
);
},
{
closed = 1;
nodes = (
"238.36 -219.31 LINE",
"288.62 -57.25 LINE",
"252.09 -57.25 LINE",
"214.25 -219.31 LINE"
);
}
);
width = 539;
}
);
leftKerningGroup = T;
note = uni021A;
rightKerningGroup = T;
unicode = 021A;
},
{
glyphname = U;
lastChange = "2019-09-03 16:25:56 +0000";
layers = (
{
hints = (
{
horizontal = 1;
place = "{0, 31.78}";
type = Stem;
},
{
place = "{87.22, 33.47}";
type = Stem;
},
{
place = "{566.27, 33.51}";
type = Stem;
}
);
layerId = "7107EBA0-69BE-4603-8F48-BAA3372D0529";
paths = (
{
closed = 1;
nodes = (
"506.32 0 LINE",
"599.78 94.46 LINE",
"599.78 737 LINE",
"566.29 737 LINE",
"566.26 105.08 LINE",
"493.93 31.76 LINE",
"193.03 31.8 LINE",
"120.68 105.14 LINE",
"120.71 737 LINE",
"87.22 737 LINE",
"87.22 94.46 LINE",
"180.68 0 LINE"
);
}
);
width = 687;
}
);
leftKerningGroup = U;
note = U;
unicode = 0055;
},
{
glyphname = Uacute;
lastChange = "2019-09-03 16:25:56 +0000";
layers = (
{
hints = (
{
horizontal = 1;
place = "{0, 31.78}";
type = Stem;
},
{
horizontal = 1;
place = "{794.25, 140.22}";
type = Stem;
},
{
place = "{87.22, 33.47}";
type = Stem;
},
{
place = "{566.27, 33.51}";
type = Stem;
}
);
layerId = "7107EBA0-69BE-4603-8F48-BAA3372D0529";
paths = (
{
closed = 1;
nodes = (
"506.32 0 LINE",
"599.78 94.46 LINE",
"599.78 737 LINE",
"566.29 737 LINE",
"566.26 105.08 LINE",
"493.93 31.76 LINE",
"193.03 31.8 LINE",
"120.68 105.14 LINE",
"120.71 737 LINE",
"87.22 737 LINE",
"87.22 94.46 LINE",
"180.68 0 LINE"
);
},
{
closed = 1;
nodes = (
"360.11 794.25 LINE",
"459.62 934.47 LINE",
"416.89 934.47 LINE",
"330.32 794.25 LINE"
);
}
);
width = 687;
}
);
leftKerningGroup = U;
note = Uacute;
unicode = 00DA;
},
{
glyphname = Ubreve;
lastChange = "2019-09-03 16:25:56 +0000";
layers = (
{
hints = (
{
horizontal = 1;
place = "{0, 31.78}";
type = Stem;
},
{
horizontal = 1;
place = "{794.25, 27.22}";
type = Stem;
},
{
place = "{87.22, 33.47}";
type = Stem;
},
{
place = "{226.97, 27.6}";
type = Stem;
},
{
place = "{432.43, 27.6}";
type = Stem;
},
{
place = "{566.27, 33.51}";
type = Stem;
}
);
layerId = "7107EBA0-69BE-4603-8F48-BAA3372D0529";
paths = (
{
closed = 1;
nodes = (
"506.32 0 LINE",
"599.78 94.46 LINE",
"599.78 737 LINE",
"566.29 737 LINE",
"566.26 105.08 LINE",
"493.93 31.76 LINE",
"193.03 31.8 LINE",
"120.68 105.14 LINE",
"120.71 737 LINE",
"87.22 737 LINE",
"87.22 94.46 LINE",
"180.68 0 LINE"
);
},
{
closed = 1;
nodes = (
"408.32 794.25 LINE",
"460.03 845.94 LINE",
"460.03 913.69 LINE",
"432.43 913.69 LINE",
"432.43 855.03 LINE",
"398.89 821.47 LINE",
"288.11 821.47 LINE",
"254.57 855.03 LINE",
"254.57 913.69 LINE",
"226.97 913.69 LINE",
"226.97 845.94 LINE",
"278.68 794.25 LINE"
);
}
);
width = 687;
}
);
leftKerningGroup = U;
note = Ubreve;
unicode = 016C;
},
{
glyphname = Ucircumflex;
lastChange = "2019-09-03 16:25:56 +0000";
layers = (
{
hints = (
{
horizontal = 1;
place = "{0, 31.78}";
type = Stem;
},
{
horizontal = 1;
place = "{906.37, 25.99}";
type = Stem;
},
{
place = "{87.22, 33.47}";
type = Stem;
},
{
place = "{566.27, 33.51}";
type = Stem;
}
);
layerId = "7107EBA0-69BE-4603-8F48-BAA3372D0529";
paths = (
{
closed = 1;
nodes = (
"506.32 0 LINE",
"599.78 94.46 LINE",
"599.78 737 LINE",
"566.29 737 LINE",
"566.26 105.08 LINE",
"493.93 31.76 LINE",
"193.03 31.8 LINE",
"120.68 105.14 LINE",
"120.71 737 LINE",
"87.22 737 LINE",
"87.22 94.46 LINE",
"180.68 0 LINE"
);
},
{
closed = 1;
nodes = (
"242.15 794.25 LINE",
"335.72 906.37 LINE",
"351.28 906.37 LINE",
"444.84 794.25 LINE",
"475.64 794.25 LINE",
"371.14 932.36 LINE",
"315.86 932.36 LINE",
"211.36 794.25 LINE"
);
}
);
width = 687;
}
);
leftKerningGroup = U;
note = Ucircumflex;
unicode = 00DB;
},
{
glyphname = uni0214;
lastChange = "2019-09-03 16:25:56 +0000";
layers = (
{
hints = (
{
horizontal = 1;
place = "{0, 31.78}";
type = Stem;
},
{
horizontal = 1;
place = "{794.25, 140.22}";
type = Stem;
},
{
place = "{87.22, 33.47}";
type = Stem;
},
{
place = "{566.27, 33.51}";
type = Stem;
}
);
layerId = "7107EBA0-69BE-4603-8F48-BAA3372D0529";
paths = (
{
closed = 1;
nodes = (
"506.32 0 LINE",
"599.78 94.46 LINE",
"599.78 737 LINE",
"566.29 737 LINE",
"566.26 105.08 LINE",
"493.93 31.76 LINE",
"193.03 31.8 LINE",
"120.68 105.14 LINE",
"120.71 737 LINE",
"87.22 737 LINE",
"87.22 94.46 LINE",
"180.68 0 LINE"
);
},
{
closed = 1;
nodes = (
"299.16 794.25 LINE",
"212.58 934.47 LINE",
"171.07 934.47 LINE",
"270.58 794.25 LINE"
);
},
{
closed = 1;
nodes = (
"418.46 794.25 LINE",
"331.87 934.47 LINE",
"290.36 934.47 LINE",
"389.87 794.25 LINE"
);
}
);
width = 687;
}
);
leftKerningGroup = U;
note = uni0214;
unicode = 0214;
},
{
glyphname = Udieresis;
lastChange = "2019-09-03 16:25:56 +0000";
layers = (
{
hints = (
{
horizontal = 1;
place = "{0, 31.78}";
type = Stem;
},
{
horizontal = 1;
place = "{794.25, 105.94}";
type = Stem;
},
{
place = "{87.22, 33.47}";
type = Stem;
},
{
place = "{193.94, 33}";
type = Stem;
},
{
place = "{460.05, 33}";
type = Stem;
},
{
place = "{566.27, 33.51}";
type = Stem;
}
);
layerId = "7107EBA0-69BE-4603-8F48-BAA3372D0529";
paths = (
{
closed = 1;
nodes = (
"506.32 0 LINE",
"599.78 94.46 LINE",
"599.78 737 LINE",
"566.29 737 LINE",
"566.26 105.08 LINE",
"493.93 31.76 LINE",
"193.03 31.8 LINE",
"120.68 105.14 LINE",
"120.71 737 LINE",
"87.22 737 LINE",
"87.22 94.46 LINE",
"180.68 0 LINE"
);
},
{
closed = 1;
nodes = (
"226.94 794.25 LINE",
"226.94 900.19 LINE",
"193.94 900.19 LINE",
"193.94 794.25 LINE"
);
},
{
closed = 1;
nodes = (
"493.05 794.25 LINE",
"493.05 900.19 LINE",
"460.05 900.19 LINE",
"460.05 794.25 LINE"
);
}
);
width = 687;
}
);
leftKerningGroup = U;
note = Udieresis;
unicode = 00DC;
},
{
glyphname = uni1EE4;
lastChange = "2019-09-03 16:25:56 +0000";
layers = (
{
hints = (
{
horizontal = 1;
place = "{-163.07, 105.82}";
type = Stem;
},
{
horizontal = 1;
place = "{0, 31.78}";
type = Stem;
},
{
place = "{87.22, 33.47}";
type = Stem;
},
{
place = "{327.01, 33}";
type = Stem;
},
{
place = "{566.27, 33.51}";
type = Stem;
}
);
layerId = "7107EBA0-69BE-4603-8F48-BAA3372D0529";
paths = (
{
closed = 1;
nodes = (
"506.32 0 LINE",
"599.78 94.46 LINE",
"599.78 737 LINE",
"566.29 737 LINE",
"566.26 105.08 LINE",
"493.93 31.76 LINE",
"193.03 31.8 LINE",
"120.68 105.14 LINE",
"120.71 737 LINE",
"87.22 737 LINE",
"87.22 94.46 LINE",
"180.68 0 LINE"
);
},
{
closed = 1;
nodes = (
"360.01 -163.07 LINE",
"360.01 -57.25 LINE",
"327.01 -57.25 LINE",
"327.01 -163.07 LINE"
);
}
);
width = 687;
}
);
leftKerningGroup = U;
note = uni1EE4;
unicode = 1EE4;
},
{
glyphname = Ugrave;
lastChange = "2019-09-03 16:25:56 +0000";
layers = (
{
hints = (
{
horizontal = 1;
place = "{0, 31.78}";
type = Stem;
},
{
horizontal = 1;
place = "{794.25, 140.22}";
type = Stem;
},
{
place = "{87.22, 33.47}";
type = Stem;
},
{
place = "{566.27, 33.51}";
type = Stem;
}
);
layerId = "7107EBA0-69BE-4603-8F48-BAA3372D0529";
paths = (
{
closed = 1;
nodes = (
"506.32 0 LINE",
"599.78 94.46 LINE",
"599.78 737 LINE",
"566.29 737 LINE",
"566.26 105.08 LINE",
"493.93 31.76 LINE",
"193.03 31.8 LINE",
"120.68 105.14 LINE",
"120.71 737 LINE",
"87.22 737 LINE",
"87.22 94.46 LINE",
"180.68 0 LINE"
);
},
{
closed = 1;
nodes = (
"355.72 794.25 LINE",
"269.15 934.47 LINE",
"226.41 934.47 LINE",
"325.93 794.25 LINE"
);
}
);
width = 687;
}
);
leftKerningGroup = U;
note = Ugrave;
unicode = 00D9;
},
{
glyphname = uni1EE6;
lastChange = "2019-09-03 16:25:56 +0000";
layers = (
{
hints = (
{
horizontal = 1;
place = "{0, 31.78}";
type = Stem;
},
{
horizontal = 1;
place = "{794.25, 40.34}";
type = Stem;
},
{
horizontal = 1;
place = "{958.55, 27.11}";
type = Stem;
},
{
place = "{87.22, 33.47}";
type = Stem;
},
{
place = "{331.8, 27.93}";
type = Stem;
},
{
place = "{399, 28.82}";
type = Stem;
},
{
place = "{566.27, 33.51}";
type = Stem;
}
);
layerId = "7107EBA0-69BE-4603-8F48-BAA3372D0529";
paths = (
{
closed = 1;
nodes = (
"506.32 0 LINE",
"599.78 94.46 LINE",
"599.78 737 LINE",
"566.29 737 LINE",
"566.26 105.08 LINE",
"493.93 31.76 LINE",
"193.03 31.8 LINE",
"120.68 105.14 LINE",
"120.71 737 LINE",
"87.22 737 LINE",
"87.22 94.46 LINE",
"180.68 0 LINE"
);
},
{
closed = 1;
nodes = (
"359.73 794.25 LINE",
"359.73 823.59 LINE",
"427.82 888.64 LINE",
"427.82 950.23 LINE",
"393.73 985.66 LINE",
"315.34 985.66 LINE",
"276.23 944.19 LINE",
"296.34 924.93 LINE",
"328.14 958.55 LINE",
"381.09 958.55 LINE",
"399 939.76 LINE",
"399 899.37 LINE",
"331.8 834.59 LINE",
"331.8 794.25 LINE"
);
}
);
width = 687;
}
);
leftKerningGroup = U;
note = uni1EE6;
unicode = 1EE6;
},
{
glyphname = Uhorn;
lastChange = "2019-09-03 16:25:56 +0000";
layers = (
{
hints = (
{
horizontal = 1;
place = "{0, 31.78}";
type = Stem;
},
{
horizontal = 1;
place = "{630.57, 27.65}";
type = Stem;
},
{
place = "{87.22, 33.47}";
type = Stem;
},
{
place = "{566.27, 33.51}";
type = Stem;
}
);
layerId = "7107EBA0-69BE-4603-8F48-BAA3372D0529";
paths = (
{
closed = 1;
nodes = (
"506.32 0 LINE",
"599.78 94.46 LINE",
"599.78 630.57 LINE",
"672.51 630.57 LINE",
"720.34 802.84 LINE",
"683.65 802.84 LINE",
"651.28 658.22 LINE",
"599.78 658.22 LINE",
"599.78 737 LINE",
"566.29 737 LINE",
"566.26 105.08 LINE",
"493.93 31.76 LINE",
"193.03 31.8 LINE",
"120.68 105.14 LINE",
"120.71 737 LINE",
"87.22 737 LINE",
"87.22 94.46 LINE",
"180.68 0 LINE"
);
}
);
width = 687;
}
);
leftKerningGroup = Uhorn;
note = Uhorn;
rightKerningGroup = Uhorn;
unicode = 01AF;
},
{
glyphname = uni1EE8;
lastChange = "2019-09-03 16:25:56 +0000";
layers = (
{
hints = (
{
horizontal = 1;
place = "{0, 31.78}";
type = Stem;
},
{
horizontal = 1;
place = "{630.57, 27.65}";
type = Stem;
},
{
horizontal = 1;
place = "{794.25, 140.22}";
type = Stem;
},
{
place = "{87.22, 33.47}";
type = Stem;
},
{
place = "{566.27, 33.51}";
type = Stem;
}
);
layerId = "7107EBA0-69BE-4603-8F48-BAA3372D0529";
paths = (
{
closed = 1;
nodes = (
"506.32 0 LINE",
"599.78 94.46 LINE",
"599.78 630.57 LINE",
"672.51 630.57 LINE",
"720.34 802.84 LINE",
"683.65 802.84 LINE",
"651.28 658.22 LINE",
"599.78 658.22 LINE",
"599.78 737 LINE",
"566.29 737 LINE",
"566.26 105.08 LINE",
"493.93 31.76 LINE",
"193.03 31.8 LINE",
"120.68 105.14 LINE",
"120.71 737 LINE",
"87.22 737 LINE",
"87.22 94.46 LINE",
"180.68 0 LINE"
);
},
{
closed = 1;
nodes = (
"360.11 794.25 LINE",
"459.62 934.47 LINE",
"416.89 934.47 LINE",
"330.32 794.25 LINE"
);
}
);
width = 687;
}
);
note = uni1EE8;
rightKerningGroup = Uhorn;
unicode = 1EE8;
},
{
glyphname = uni1EF0;
lastChange = "2019-09-03 16:25:56 +0000";
layers = (
{
hints = (
{
horizontal = 1;
place = "{-163.07, 105.82}";
type = Stem;
},
{
horizontal = 1;
place = "{0, 31.78}";
type = Stem;
},
{
horizontal = 1;
place = "{630.57, 27.65}";
type = Stem;
},
{
place = "{87.22, 33.47}";
type = Stem;
},
{
place = "{327.01, 33}";
type = Stem;
},
{
place = "{566.27, 33.51}";
type = Stem;
}
);
layerId = "7107EBA0-69BE-4603-8F48-BAA3372D0529";
paths = (
{
closed = 1;
nodes = (
"506.32 0 LINE",
"599.78 94.46 LINE",
"599.78 630.57 LINE",
"672.51 630.57 LINE",
"720.34 802.84 LINE",
"683.65 802.84 LINE",
"651.28 658.22 LINE",
"599.78 658.22 LINE",
"599.78 737 LINE",
"566.29 737 LINE",
"566.26 105.08 LINE",
"493.93 31.76 LINE",
"193.03 31.8 LINE",
"120.68 105.14 LINE",
"120.71 737 LINE",
"87.22 737 LINE",
"87.22 94.46 LINE",
"180.68 0 LINE"
);
},
{
closed = 1;
nodes = (
"360.01 -163.07 LINE",
"360.01 -57.25 LINE",
"327.01 -57.25 LINE",
"327.01 -163.07 LINE"
);
}
);
width = 687;
}
);
note = uni1EF0;
rightKerningGroup = Uhorn;
unicode = 1EF0;
},
{
glyphname = uni1EEA;
lastChange = "2019-09-03 16:25:56 +0000";
layers = (
{
hints = (
{
horizontal = 1;
place = "{0, 31.78}";
type = Stem;
},
{
horizontal = 1;
place = "{630.57, 27.65}";
type = Stem;
},
{
horizontal = 1;
place = "{794.25, 140.22}";
type = Stem;
},
{
place = "{87.22, 33.47}";
type = Stem;
},
{
place = "{566.27, 33.51}";
type = Stem;
}
);
layerId = "7107EBA0-69BE-4603-8F48-BAA3372D0529";
paths = (
{
closed = 1;
nodes = (
"506.32 0 LINE",
"599.78 94.46 LINE",
"599.78 630.57 LINE",
"672.51 630.57 LINE",
"720.34 802.84 LINE",
"683.65 802.84 LINE",
"651.28 658.22 LINE",
"599.78 658.22 LINE",
"599.78 737 LINE",
"566.29 737 LINE",
"566.26 105.08 LINE",
"493.93 31.76 LINE",
"193.03 31.8 LINE",
"120.68 105.14 LINE",
"120.71 737 LINE",
"87.22 737 LINE",
"87.22 94.46 LINE",
"180.68 0 LINE"
);
},
{
closed = 1;
nodes = (
"355.72 794.25 LINE",
"269.15 934.47 LINE",
"226.41 934.47 LINE",
"325.93 794.25 LINE"
);
}
);
width = 687;
}
);
note = uni1EEA;
rightKerningGroup = Uhorn;
unicode = 1EEA;
},
{
glyphname = uni1EEC;
lastChange = "2019-09-03 16:25:56 +0000";
layers = (
{
hints = (
{
horizontal = 1;
place = "{0, 31.78}";
type = Stem;
},
{
horizontal = 1;
place = "{630.57, 27.65}";
type = Stem;
},
{
horizontal = 1;
place = "{794.25, 40.34}";
type = Stem;
},
{
horizontal = 1;
place = "{958.55, 27.11}";
type = Stem;
},
{
place = "{87.22, 33.47}";
type = Stem;
},
{
place = "{331.8, 27.93}";
type = Stem;
},
{
place = "{399, 28.82}";
type = Stem;
},
{
place = "{566.27, 33.51}";
type = Stem;
}
);
layerId = "7107EBA0-69BE-4603-8F48-BAA3372D0529";
paths = (
{
closed = 1;
nodes = (
"506.32 0 LINE",
"599.78 94.46 LINE",
"599.78 630.57 LINE",
"672.51 630.57 LINE",
"720.34 802.84 LINE",
"683.65 802.84 LINE",
"651.28 658.22 LINE",
"599.78 658.22 LINE",
"599.78 737 LINE",
"566.29 737 LINE",
"566.26 105.08 LINE",
"493.93 31.76 LINE",
"193.03 31.8 LINE",
"120.68 105.14 LINE",
"120.71 737 LINE",
"87.22 737 LINE",
"87.22 94.46 LINE",
"180.68 0 LINE"
);
},
{
closed = 1;
nodes = (
"359.73 794.25 LINE",
"359.73 823.59 LINE",
"427.82 888.64 LINE",
"427.82 950.23 LINE",
"393.73 985.66 LINE",
"315.34 985.66 LINE",
"276.23 944.19 LINE",
"296.34 924.93 LINE",
"328.14 958.55 LINE",
"381.09 958.55 LINE",
"399 939.76 LINE",
"399 899.37 LINE",
"331.8 834.59 LINE",
"331.8 794.25 LINE"
);
}
);
width = 687;
}
);
note = uni1EEC;
rightKerningGroup = Uhorn;
unicode = 1EEC;
},
{
glyphname = uni1EEE;
lastChange = "2019-09-03 16:25:56 +0000";
layers = (
{
hints = (
{
horizontal = 1;
place = "{0, 31.78}";
type = Stem;
},
{
horizontal = 1;
place = "{630.57, 27.65}";
type = Stem;
},
{
horizontal = 1;
place = "{794.25, 26.98}";
type = Stem;
},
{
horizontal = 1;
place = "{870.03, 26.98}";
type = Stem;
},
{
place = "{87.22, 33.47}";
type = Stem;
},
{
place = "{194.86, 22.42}";
type = Stem;
},
{
place = "{469.42, 22.44}";
type = Stem;
},
{
place = "{566.27, 33.51}";
type = Stem;
}
);
layerId = "7107EBA0-69BE-4603-8F48-BAA3372D0529";
paths = (
{
closed = 1;
nodes = (
"506.32 0 LINE",
"599.78 94.46 LINE",
"599.78 630.57 LINE",
"672.51 630.57 LINE",
"720.34 802.84 LINE",
"683.65 802.84 LINE",
"651.28 658.22 LINE",
"599.78 658.22 LINE",
"599.78 737 LINE",
"566.29 737 LINE",
"566.26 105.08 LINE",
"493.93 31.76 LINE",
"193.03 31.8 LINE",
"120.68 105.14 LINE",
"120.71 737 LINE",
"87.22 737 LINE",
"87.22 94.46 LINE",
"180.68 0 LINE"
);
},
{
closed = 1;
nodes = (
"440.91 794.25 LINE",
"491.36 845.69 LINE",
"492.36 896.64 LINE",
"470.87 896.64 LINE",
"467.98 857.48 LINE",
"428.86 821.23 LINE",
"393.21 821.23 LINE",
"317.96 897.01 LINE",
"245.8 897.01 LINE",
"195.36 845.55 LINE",
"194.36 794.61 LINE",
"215.84 794.61 LINE",
"218.73 833.65 LINE",
"257.86 870.03 LINE",
"305.29 870.03 LINE",
"380.43 794.25 LINE"
);
}
);
width = 687;
}
);
note = uni1EEE;
rightKerningGroup = Uhorn;
unicode = 1EEE;
},
{
glyphname = Uhungarumlaut;
lastChange = "2019-09-03 16:25:56 +0000";
layers = (
{
hints = (
{
horizontal = 1;
place = "{0, 31.78}";
type = Stem;
},
{
horizontal = 1;
place = "{794.25, 140.22}";
type = Stem;
},
{
place = "{87.22, 33.47}";
type = Stem;
},
{
place = "{566.27, 33.51}";
type = Stem;
}
);
layerId = "7107EBA0-69BE-4603-8F48-BAA3372D0529";
paths = (
{
closed = 1;
nodes = (
"506.32 0 LINE",
"599.78 94.46 LINE",
"599.78 737 LINE",
"566.29 737 LINE",
"566.26 105.08 LINE",
"493.93 31.76 LINE",
"193.03 31.8 LINE",
"120.68 105.14 LINE",
"120.71 737 LINE",
"87.22 737 LINE",
"87.22 94.46 LINE",
"180.68 0 LINE"
);
},
{
closed = 1;
nodes = (
"292.61 794.25 LINE",
"392.12 934.47 LINE",
"350.61 934.47 LINE",
"264.03 794.25 LINE"
);
},
{
closed = 1;
nodes = (
"411.9 794.25 LINE",
"511.41 934.47 LINE",
"469.9 934.47 LINE",
"383.32 794.25 LINE"
);
}
);
width = 687;
}
);
leftKerningGroup = U;
note = Uhungarumlaut;
unicode = 0170;
},
{
glyphname = uni0216;
lastChange = "2019-09-03 16:25:56 +0000";
layers = (
{
hints = (
{
horizontal = 1;
place = "{0, 31.78}";
type = Stem;
},
{
horizontal = 1;
place = "{886.46, 27.23}";
type = Stem;
},
{
place = "{87.22, 33.47}";
type = Stem;
},
{
place = "{226.97, 27.6}";
type = Stem;
},
{
place = "{432.43, 27.6}";
type = Stem;
},
{
place = "{566.27, 33.51}";
type = Stem;
}
);
layerId = "7107EBA0-69BE-4603-8F48-BAA3372D0529";
paths = (
{
closed = 1;
nodes = (
"506.32 0 LINE",
"599.78 94.46 LINE",
"599.78 737 LINE",
"566.29 737 LINE",
"566.26 105.08 LINE",
"493.93 31.76 LINE",
"193.03 31.8 LINE",
"120.68 105.14 LINE",
"120.71 737 LINE",
"87.22 737 LINE",
"87.22 94.46 LINE",
"180.68 0 LINE"
);
},
{
closed = 1;
nodes = (
"254.57 794.25 LINE",
"254.57 852.91 LINE",
"288.11 886.46 LINE",
"398.89 886.46 LINE",
"432.43 852.91 LINE",
"432.43 794.25 LINE",
"460.03 794.25 LINE",
"460.03 861.98 LINE",
"408.32 913.69 LINE",
"278.68 913.69 LINE",
"226.97 861.98 LINE",
"226.97 794.25 LINE"
);
}
);
width = 687;
}
);
leftKerningGroup = U;
note = uni0216;
unicode = 0216;
},
{
glyphname = Umacron;
lastChange = "2019-09-03 16:25:56 +0000";
layers = (
{
hints = (
{
horizontal = 1;
place = "{0, 31.78}";
type = Stem;
},
{
horizontal = 1;
place = "{794.25, 28.57}";
type = Stem;
},
{
place = "{87.22, 33.47}";
type = Stem;
},
{
place = "{566.27, 33.51}";
type = Stem;
}
);
layerId = "7107EBA0-69BE-4603-8F48-BAA3372D0529";
paths = (
{
closed = 1;
nodes = (
"506.32 0 LINE",
"599.78 94.46 LINE",
"599.78 737 LINE",
"566.29 737 LINE",
"566.26 105.08 LINE",
"493.93 31.76 LINE",
"193.03 31.8 LINE",
"120.68 105.14 LINE",
"120.71 737 LINE",
"87.22 737 LINE",
"87.22 94.46 LINE",
"180.68 0 LINE"
);
},
{
closed = 1;
nodes = (
"493.05 794.25 LINE",
"493.05 822.82 LINE",
"193.94 822.82 LINE",
"193.94 794.25 LINE"
);
}
);
width = 687;
}
);
leftKerningGroup = U;
note = Umacron;
unicode = 016A;
},
{
glyphname = Uogonek;
lastChange = "2019-09-03 16:25:56 +0000";
layers = (
{
hints = (
{
horizontal = 1;
place = "{-142.29, 28.59}";
type = Stem;
},
{
horizontal = 1;
place = "{0, 31.78}";
type = Stem;
},
{
place = "{87.22, 33.47}";
type = Stem;
},
{
place = "{309.16, 27.99}";
type = Stem;
},
{
place = "{566.27, 33.51}";
type = Stem;
}
);
layerId = "7107EBA0-69BE-4603-8F48-BAA3372D0529";
paths = (
{
closed = 1;
nodes = (
"390.91 -142.29 LINE",
"390.91 -113.7 LINE",
"367.82 -113.7 LINE",
"337.15 -83.03 LINE",
"337.15 -42.17 LINE",
"390.91 0 LINE",
"506.32 0 LINE",
"599.78 94.46 LINE",
"599.78 737 LINE",
"566.29 737 LINE",
"566.26 105.08 LINE",
"493.93 31.76 LINE",
"193.03 31.8 LINE",
"120.68 105.14 LINE",
"120.71 737 LINE",
"87.22 737 LINE",
"87.22 94.46 LINE",
"180.68 0 LINE",
"351.29 0 LINE",
"309.16 -33 LINE",
"309.16 -93.09 LINE",
"358.26 -142.29 LINE"
);
}
);
width = 687;
}
);
leftKerningGroup = U;
note = Uogonek;
unicode = 0172;
},
{
glyphname = Uring;
lastChange = "2019-09-03 16:25:56 +0000";
layers = (
{
hints = (
{
horizontal = 1;
place = "{0, 31.78}";
type = Stem;
},
{
horizontal = 1;
place = "{794.25, 25.76}";
type = Stem;
},
{
horizontal = 1;
place = "{940.5, 25.76}";
type = Stem;
},
{
place = "{87.22, 33.47}";
type = Stem;
},
{
place = "{255.59, 27.6}";
type = Stem;
},
{
place = "{403.8, 27.6}";
type = Stem;
},
{
place = "{566.27, 33.51}";
type = Stem;
}
);
layerId = "7107EBA0-69BE-4603-8F48-BAA3372D0529";
paths = (
{
closed = 1;
nodes = (
"506.32 0 LINE",
"599.78 94.46 LINE",
"599.78 737 LINE",
"566.29 737 LINE",
"566.26 105.08 LINE",
"493.93 31.76 LINE",
"193.03 31.8 LINE",
"120.68 105.14 LINE",
"120.71 737 LINE",
"87.22 737 LINE",
"87.22 94.46 LINE",
"180.68 0 LINE"
);
},
{
closed = 1;
nodes = (
"379.94 794.25 LINE",
"431.4 845.69 LINE",
"431.4 914.8 LINE",
"379.94 966.26 LINE",
"307.05 966.26 LINE",
"255.59 914.8 LINE",
"255.59 845.69 LINE",
"307.05 794.25 LINE"
);
},
{
closed = 1;
nodes = (
"283.19 854.16 LINE",
"283.19 906.23 LINE",
"317.47 940.5 LINE",
"369.53 940.5 LINE",
"403.8 906.23 LINE",
"403.8 854.16 LINE",
"369.53 820.01 LINE",
"317.47 820.01 LINE"
);
}
);
width = 687;
}
);
leftKerningGroup = U;
note = Uring;
unicode = 016E;
},
{
glyphname = Utilde;
lastChange = "2019-09-03 16:25:56 +0000";
layers = (
{
hints = (
{
horizontal = 1;
place = "{0, 31.78}";
type = Stem;
},
{
horizontal = 1;
place = "{794.25, 26.98}";
type = Stem;
},
{
horizontal = 1;
place = "{870.03, 26.98}";
type = Stem;
},
{
place = "{87.22, 33.47}";
type = Stem;
},
{
place = "{194.86, 22.42}";
type = Stem;
},
{
place = "{469.42, 22.44}";
type = Stem;
},
{
place = "{566.27, 33.51}";
type = Stem;
}
);
layerId = "7107EBA0-69BE-4603-8F48-BAA3372D0529";
paths = (
{
closed = 1;
nodes = (
"506.32 0 LINE",
"599.78 94.46 LINE",
"599.78 737 LINE",
"566.29 737 LINE",
"566.26 105.08 LINE",
"493.93 31.76 LINE",
"193.03 31.8 LINE",
"120.68 105.14 LINE",
"120.71 737 LINE",
"87.22 737 LINE",
"87.22 94.46 LINE",
"180.68 0 LINE"
);
},
{
closed = 1;
nodes = (
"440.91 794.25 LINE",
"491.36 845.69 LINE",
"492.36 896.64 LINE",
"470.87 896.64 LINE",
"467.98 857.48 LINE",
"428.86 821.23 LINE",
"393.21 821.23 LINE",
"317.96 897.01 LINE",
"245.8 897.01 LINE",
"195.36 845.55 LINE",
"194.36 794.61 LINE",
"215.84 794.61 LINE",
"218.73 833.65 LINE",
"257.86 870.03 LINE",
"305.29 870.03 LINE",
"380.43 794.25 LINE"
);
}
);
width = 687;
}
);
leftKerningGroup = U;
note = Utilde;
unicode = 0168;
},
{
glyphname = V;
lastChange = "2019-09-03 16:25:56 +0000";
layers = (
{
hints = (
{
horizontal = 1;
place = "{0, 32.75}";
type = Stem;
},
{
place = "{18.89, 594.94}";
type = Stem;
}
);
layerId = "7107EBA0-69BE-4603-8F48-BAA3372D0529";
paths = (
{
closed = 1;
nodes = (
"347.64 0 LINE",
"613.83 737 LINE",
"579.83 737 LINE",
"326.26 32.75 LINE",
"306.01 32.75 LINE",
"52.33 737 LINE",
"18.89 737 LINE",
"284.08 0 LINE"
);
}
);
width = 633;
}
);
leftKerningGroup = V;
note = V;
rightKerningGroup = V;
unicode = 0056;
},
{
glyphname = W;
lastChange = "2019-09-03 16:25:56 +0000";
layers = (
{
hints = (
{
horizontal = 1;
place = "{0, 32.75}";
type = Stem;
},
{
place = "{18.89, 857.05}";
type = Stem;
}
);
layerId = "7107EBA0-69BE-4603-8F48-BAA3372D0529";
paths = (
{
closed = 1;
nodes = (
"285.16 0 LINE",
"447.3 675.47 LINE",
"609.89 0 LINE",
"675.23 0 LINE",
"875.94 737 LINE",
"842.16 737 LINE",
"653.08 32.75 LINE",
"632.83 32.75 LINE",
"464.32 737 LINE",
"430.29 737 LINE",
"261.78 32.75 LINE",
"241.53 32.75 LINE",
"52.44 737 LINE",
"18.89 737 LINE",
"219.59 0 LINE"
);
}
);
width = 895;
}
);
leftKerningGroup = W;
note = W;
rightKerningGroup = W;
unicode = 0057;
},
{
glyphname = Wacute;
lastChange = "2019-09-03 16:25:56 +0000";
layers = (
{
hints = (
{
horizontal = 1;
place = "{0, 32.75}";
type = Stem;
},
{
horizontal = 1;
place = "{794.25, 140.22}";
type = Stem;
},
{
place = "{18.89, 857.05}";
type = Stem;
}
);
layerId = "7107EBA0-69BE-4603-8F48-BAA3372D0529";
paths = (
{
closed = 1;
nodes = (
"285.16 0 LINE",
"447.3 675.47 LINE",
"609.89 0 LINE",
"675.23 0 LINE",
"875.94 737 LINE",
"842.16 737 LINE",
"653.08 32.75 LINE",
"632.83 32.75 LINE",
"464.32 737 LINE",
"430.29 737 LINE",
"261.78 32.75 LINE",
"241.53 32.75 LINE",
"52.44 737 LINE",
"18.89 737 LINE",
"219.59 0 LINE"
);
},
{
closed = 1;
nodes = (
"463.91 794.25 LINE",
"563.43 934.47 LINE",
"520.69 934.47 LINE",
"434.12 794.25 LINE"
);
}
);
width = 895;
}
);
leftKerningGroup = W;
note = Wacute;
rightKerningGroup = W;
unicode = 1E82;
},
{
glyphname = Wcircumflex;
lastChange = "2019-09-03 16:25:56 +0000";
layers = (
{
hints = (
{
horizontal = 1;
place = "{0, 32.75}";
type = Stem;
},
{
horizontal = 1;
place = "{906.37, 25.99}";
type = Stem;
},
{
place = "{18.89, 857.05}";
type = Stem;
}
);
layerId = "7107EBA0-69BE-4603-8F48-BAA3372D0529";
paths = (
{
closed = 1;
nodes = (
"285.16 0 LINE",
"447.3 675.47 LINE",
"609.89 0 LINE",
"675.23 0 LINE",
"875.94 737 LINE",
"842.16 737 LINE",
"653.08 32.75 LINE",
"632.83 32.75 LINE",
"464.32 737 LINE",
"430.29 737 LINE",
"261.78 32.75 LINE",
"241.53 32.75 LINE",
"52.44 737 LINE",
"18.89 737 LINE",
"219.59 0 LINE"
);
},
{
closed = 1;
nodes = (
"345.96 794.25 LINE",
"439.53 906.37 LINE",
"455.08 906.37 LINE",
"548.65 794.25 LINE",
"579.44 794.25 LINE",
"474.94 932.36 LINE",
"419.66 932.36 LINE",
"315.16 794.25 LINE"
);
}
);
width = 895;
}
);
leftKerningGroup = W;
note = Wcircumflex;
rightKerningGroup = W;
unicode = 0174;
},
{
glyphname = Wdieresis;
lastChange = "2019-09-03 16:25:56 +0000";
layers = (
{
hints = (
{
horizontal = 1;
place = "{0, 32.75}";
type = Stem;
},
{
horizontal = 1;
place = "{794.25, 105.94}";
type = Stem;
},
{
place = "{297.75, 33}";
type = Stem;
},
{
place = "{563.86, 33}";
type = Stem;
}
);
layerId = "7107EBA0-69BE-4603-8F48-BAA3372D0529";
paths = (
{
closed = 1;
nodes = (
"285.16 0 LINE",
"447.3 675.47 LINE",
"609.89 0 LINE",
"675.23 0 LINE",
"875.94 737 LINE",
"842.16 737 LINE",
"653.08 32.75 LINE",
"632.83 32.75 LINE",
"464.32 737 LINE",
"430.29 737 LINE",
"261.78 32.75 LINE",
"241.53 32.75 LINE",
"52.44 737 LINE",
"18.89 737 LINE",
"219.59 0 LINE"
);
},
{
closed = 1;
nodes = (
"330.75 794.25 LINE",
"330.75 900.19 LINE",
"297.75 900.19 LINE",
"297.75 794.25 LINE"
);
},
{
closed = 1;
nodes = (
"596.86 794.25 LINE",
"596.86 900.19 LINE",
"563.86 900.19 LINE",
"563.86 794.25 LINE"
);
}
);
width = 895;
}
);
leftKerningGroup = W;
note = Wdieresis;
rightKerningGroup = W;
unicode = 1E84;
},
{
glyphname = Wgrave;
lastChange = "2019-09-03 16:25:56 +0000";
layers = (
{
hints = (
{
horizontal = 1;
place = "{0, 32.75}";
type = Stem;
},
{
horizontal = 1;
place = "{794.25, 140.22}";
type = Stem;
},
{
place = "{18.89, 857.05}";
type = Stem;
}
);
layerId = "7107EBA0-69BE-4603-8F48-BAA3372D0529";
paths = (
{
closed = 1;
nodes = (
"285.16 0 LINE",
"447.3 675.47 LINE",
"609.89 0 LINE",
"675.23 0 LINE",
"875.94 737 LINE",
"842.16 737 LINE",
"653.08 32.75 LINE",
"632.83 32.75 LINE",
"464.32 737 LINE",
"430.29 737 LINE",
"261.78 32.75 LINE",
"241.53 32.75 LINE",
"52.44 737 LINE",
"18.89 737 LINE",
"219.59 0 LINE"
);
},
{
closed = 1;
nodes = (
"459.53 794.25 LINE",
"372.96 934.47 LINE",
"330.22 934.47 LINE",
"429.73 794.25 LINE"
);
}
);
width = 895;
}
);
leftKerningGroup = W;
note = Wgrave;
rightKerningGroup = W;
unicode = 1E80;
},
{
glyphname = X;
lastChange = "2019-09-03 16:25:56 +0000";
layers = (
{
hints = (
{
horizontal = 1;
place = "{351.87, 35.57}";
type = Stem;
},
{
place = "{18.89, 540.94}";
type = Stem;
}
);
layerId = "7107EBA0-69BE-4603-8F48-BAA3372D0529";
paths = (
{
closed = 1;
nodes = (
"56.66 0 LINE",
"278.46 351.87 LINE",
"300.48 351.87 LINE",
"522.28 0 LINE",
"559.83 0 LINE",
"325.78 369.97 LINE",
"559.59 737 LINE",
"521.59 737 LINE",
"299.82 387.44 LINE",
"278.23 387.44 LINE",
"56.57 737 LINE",
"19.12 737 LINE",
"252.94 369.97 LINE",
"18.89 0 LINE"
);
}
);
width = 579;
}
);
leftKerningGroup = X;
note = X;
rightKerningGroup = X;
unicode = 0058;
},
{
glyphname = Y;
lastChange = "2019-09-03 16:25:56 +0000";
layers = (
{
hints = (
{
horizontal = 1;
place = "{0, 737}";
type = Stem;
},
{
place = "{276.26, 33.5}";
type = Stem;
}
);
layerId = "7107EBA0-69BE-4603-8F48-BAA3372D0529";
paths = (
{
closed = 1;
nodes = (
"309.76 0 LINE",
"309.76 335.96 LINE",
"567.69 737 LINE",
"529.69 737 LINE",
"299.25 377.53 LINE",
"286.78 377.53 LINE",
"56.22 737 LINE",
"18.89 737 LINE",
"276.26 337.07 LINE",
"276.26 0 LINE"
);
}
);
width = 587;
}
);
leftKerningGroup = Y;
note = Y;
rightKerningGroup = Y;
unicode = 0059;
},
{
glyphname = Yacute;
lastChange = "2019-09-03 16:25:56 +0000";
layers = (
{
hints = (
{
horizontal = 1;
place = "{793.8, 140.23}";
type = Stem;
},
{
place = "{276.26, 33.5}";
type = Stem;
}
);
layerId = "7107EBA0-69BE-4603-8F48-BAA3372D0529";
paths = (
{
closed = 1;
nodes = (
"309.76 0 LINE",
"309.76 335.96 LINE",
"567.69 737 LINE",
"529.69 737 LINE",
"299.25 377.53 LINE",
"286.78 377.53 LINE",
"56.22 737 LINE",
"18.89 737 LINE",
"276.26 337.07 LINE",
"276.26 0 LINE"
);
},
{
closed = 1;
nodes = (
"309.96 793.8 LINE",
"409.47 934.03 LINE",
"366.73 934.03 LINE",
"280.16 793.8 LINE"
);
}
);
width = 587;
}
);
leftKerningGroup = Y;
note = Yacute;
rightKerningGroup = Y;
unicode = 00DD;
},
